ISO-10303-21;
HEADER;
FILE_DESCRIPTION(('FreeCAD Model'),'2;1');
FILE_NAME('Open CASCADE Shape Model','2026-10-08T03:56:06',('FreeCAD'),(
    'FreeCAD'),'Open CASCADE STEP processor 7.6','FreeCAD','Unknown');
FILE_SCHEMA(('AUTOMOTIVE_DESIGN { 1 0 10303 214 1 1 1 1 }'));
ENDSEC;
DATA;
#1 = APPLICATION_PROTOCOL_DEFINITION('international standard',
  'automotive_design',2000,#2);
#2 = APPLICATION_CONTEXT(
  'core data for automotive mechanical design processes');
#3 = SHAPE_DEFINITION_REPRESENTATION(#4,#10);
#4 = PRODUCT_DEFINITION_SHAPE('','',#5);
#5 = PRODUCT_DEFINITION('design','',#6,#9);
#6 = PRODUCT_DEFINITION_FORMATION('','',#7);
#7 = PRODUCT('Open CASCADE STEP translator 7.6 1',
  'Open CASCADE STEP translator 7.6 1','',(#8));
#8 = PRODUCT_CONTEXT('',#2,'mechanical');
#9 = PRODUCT_DEFINITION_CONTEXT('part definition',#2,'design');
#10 = ADVANCED_BREP_SHAPE_REPRESENTATION('',(#11,#15),#964);
#11 = AXIS2_PLACEMENT_3D('',#12,#13,#14);
#12 = CARTESIAN_POINT('',(0.,0.,0.));
#13 = DIRECTION('',(0.,0.,1.));
#14 = DIRECTION('',(1.,0.,-0.));
#15 = MANIFOLD_SOLID_BREP('',#16);
#16 = CLOSED_SHELL('',(#17,#76,#163,#237,#293,#366,#382,#392,#459,#471,
    #522,#539,#567,#601,#660,#672,#707,#742,#765,#782,#800,#822,#839,
    #857,#874,#886,#898,#927,#952));
#17 = ADVANCED_FACE('',(#18,#52),#71,.T.);
#18 = FACE_BOUND('',#19,.T.);
#19 = EDGE_LOOP('',(#20,#30,#38,#46));
#20 = ORIENTED_EDGE('',*,*,#21,.F.);
#21 = EDGE_CURVE('',#22,#24,#26,.T.);
#22 = VERTEX_POINT('',#23);
#23 = CARTESIAN_POINT('',(-84.,0.,150.));
#24 = VERTEX_POINT('',#25);
#25 = CARTESIAN_POINT('',(-84.,0.,182.));
#26 = LINE('',#27,#28);
#27 = CARTESIAN_POINT('',(-84.,0.,145.));
#28 = VECTOR('',#29,1.);
#29 = DIRECTION('',(0.,0.,1.));
#30 = ORIENTED_EDGE('',*,*,#31,.T.);
#31 = EDGE_CURVE('',#22,#32,#34,.T.);
#32 = VERTEX_POINT('',#33);
#33 = CARTESIAN_POINT('',(-84.,22.,150.));
#34 = LINE('',#35,#36);
#35 = CARTESIAN_POINT('',(-84.,0.,150.));
#36 = VECTOR('',#37,1.);
#37 = DIRECTION('',(-0.,1.,0.));
#38 = ORIENTED_EDGE('',*,*,#39,.T.);
#39 = EDGE_CURVE('',#32,#40,#42,.T.);
#40 = VERTEX_POINT('',#41);
#41 = CARTESIAN_POINT('',(-84.,22.,182.));
#42 = LINE('',#43,#44);
#43 = CARTESIAN_POINT('',(-84.,22.,145.));
#44 = VECTOR('',#45,1.);
#45 = DIRECTION('',(0.,0.,1.));
#46 = ORIENTED_EDGE('',*,*,#47,.F.);
#47 = EDGE_CURVE('',#24,#40,#48,.T.);
#48 = LINE('',#49,#50);
#49 = CARTESIAN_POINT('',(-84.,0.,182.));
#50 = VECTOR('',#51,1.);
#51 = DIRECTION('',(0.,1.,0.));
#52 = FACE_BOUND('',#53,.T.);
#53 = EDGE_LOOP('',(#54,#65));
#54 = ORIENTED_EDGE('',*,*,#55,.F.);
#55 = EDGE_CURVE('',#56,#58,#60,.T.);
#56 = VERTEX_POINT('',#57);
#57 = CARTESIAN_POINT('',(-84.,16.612325266211,169.2830295783));
#58 = VERTEX_POINT('',#59);
#59 = CARTESIAN_POINT('',(-84.,5.387674733789,169.2830295783));
#60 = ELLIPSE('',#61,8.363937178306,6.5);
#61 = AXIS2_PLACEMENT_3D('',#62,#63,#64);
#62 = CARTESIAN_POINT('',(-84.,11.,173.50230715207));
#63 = DIRECTION('',(1.,0.,0.));
#64 = DIRECTION('',(0.,0.,-1.));
#65 = ORIENTED_EDGE('',*,*,#66,.F.);
#66 = EDGE_CURVE('',#58,#56,#67,.T.);
#67 = LINE('',#68,#69);
#68 = CARTESIAN_POINT('',(-84.,5.5,169.2830295783));
#69 = VECTOR('',#70,1.);
#70 = DIRECTION('',(-0.,1.,0.));
#71 = PLANE('',#72);
#72 = AXIS2_PLACEMENT_3D('',#73,#74,#75);
#73 = CARTESIAN_POINT('',(-84.,0.,145.));
#74 = DIRECTION('',(1.,0.,0.));
#75 = DIRECTION('',(0.,0.,1.));
#76 = ADVANCED_FACE('',(#77),#158,.T.);
#77 = FACE_BOUND('',#78,.T.);
#78 = EDGE_LOOP('',(#79,#89,#97,#103,#104,#112,#120,#128,#136,#144,#152)
  );
#79 = ORIENTED_EDGE('',*,*,#80,.T.);
#80 = EDGE_CURVE('',#81,#83,#85,.T.);
#81 = VERTEX_POINT('',#82);
#82 = CARTESIAN_POINT('',(-98.,0.,145.));
#83 = VERTEX_POINT('',#84);
#84 = CARTESIAN_POINT('',(-60.,0.,145.));
#85 = LINE('',#86,#87);
#86 = CARTESIAN_POINT('',(-98.,0.,145.));
#87 = VECTOR('',#88,1.);
#88 = DIRECTION('',(1.,0.,0.));
#89 = ORIENTED_EDGE('',*,*,#90,.T.);
#90 = EDGE_CURVE('',#83,#91,#93,.T.);
#91 = VERTEX_POINT('',#92);
#92 = CARTESIAN_POINT('',(-60.,0.,150.));
#93 = LINE('',#94,#95);
#94 = CARTESIAN_POINT('',(-60.,0.,145.));
#95 = VECTOR('',#96,1.);
#96 = DIRECTION('',(0.,0.,1.));
#97 = ORIENTED_EDGE('',*,*,#98,.T.);
#98 = EDGE_CURVE('',#91,#22,#99,.T.);
#99 = LINE('',#100,#101);
#100 = CARTESIAN_POINT('',(-60.,0.,150.));
#101 = VECTOR('',#102,1.);
#102 = DIRECTION('',(-1.,0.,0.));
#103 = ORIENTED_EDGE('',*,*,#21,.T.);
#104 = ORIENTED_EDGE('',*,*,#105,.F.);
#105 = EDGE_CURVE('',#106,#24,#108,.T.);
#106 = VERTEX_POINT('',#107);
#107 = CARTESIAN_POINT('',(-64.,0.,202.));
#108 = LINE('',#109,#110);
#109 = CARTESIAN_POINT('',(-64.,0.,202.));
#110 = VECTOR('',#111,1.);
#111 = DIRECTION('',(-0.707106781187,0.,-0.707106781187));
#112 = ORIENTED_EDGE('',*,*,#113,.T.);
#113 = EDGE_CURVE('',#106,#114,#116,.T.);
#114 = VERTEX_POINT('',#115);
#115 = CARTESIAN_POINT('',(-6.976246861744,0.,202.));
#116 = LINE('',#117,#118);
#117 = CARTESIAN_POINT('',(-98.,0.,202.));
#118 = VECTOR('',#119,1.);
#119 = DIRECTION('',(1.,0.,0.));
#120 = ORIENTED_EDGE('',*,*,#121,.T.);
#121 = EDGE_CURVE('',#114,#122,#124,.T.);
#122 = VERTEX_POINT('',#123);
#123 = CARTESIAN_POINT('',(-6.976246861744,0.,214.));
#124 = LINE('',#125,#126);
#125 = CARTESIAN_POINT('',(-6.976246861744,0.,202.));
#126 = VECTOR('',#127,1.);
#127 = DIRECTION('',(0.,0.,1.));
#128 = ORIENTED_EDGE('',*,*,#129,.T.);
#129 = EDGE_CURVE('',#122,#130,#132,.T.);
#130 = VERTEX_POINT('',#131);
#131 = CARTESIAN_POINT('',(-28.37314015743,0.,240.42296268953));
#132 = LINE('',#133,#134);
#133 = CARTESIAN_POINT('',(-6.976246861744,0.,214.));
#134 = VECTOR('',#135,1.);
#135 = DIRECTION('',(-0.62932039105,0.,0.777145961457));
#136 = ORIENTED_EDGE('',*,*,#137,.T.);
#137 = EDGE_CURVE('',#130,#138,#140,.T.);
#138 = VERTEX_POINT('',#139);
#139 = CARTESIAN_POINT('',(-28.37314015743,0.,214.));
#140 = LINE('',#141,#142);
#141 = CARTESIAN_POINT('',(-28.37314015743,0.,240.42296268953));
#142 = VECTOR('',#143,1.);
#143 = DIRECTION('',(0.,0.,-1.));
#144 = ORIENTED_EDGE('',*,*,#145,.T.);
#145 = EDGE_CURVE('',#138,#146,#148,.T.);
#146 = VERTEX_POINT('',#147);
#147 = CARTESIAN_POINT('',(-98.,0.,214.));
#148 = LINE('',#149,#150);
#149 = CARTESIAN_POINT('',(-6.976246861744,0.,214.));
#150 = VECTOR('',#151,1.);
#151 = DIRECTION('',(-1.,0.,0.));
#152 = ORIENTED_EDGE('',*,*,#153,.T.);
#153 = EDGE_CURVE('',#146,#81,#154,.T.);
#154 = LINE('',#155,#156);
#155 = CARTESIAN_POINT('',(-98.,0.,214.));
#156 = VECTOR('',#157,1.);
#157 = DIRECTION('',(0.,0.,-1.));
#158 = PLANE('',#159);
#159 = AXIS2_PLACEMENT_3D('',#160,#161,#162);
#160 = CARTESIAN_POINT('',(-61.79349082576,0.,191.26803140294));
#161 = DIRECTION('',(-0.,-1.,-0.));
#162 = DIRECTION('',(0.,0.,-1.));
#163 = ADVANCED_FACE('',(#164,#182),#232,.T.);
#164 = FACE_BOUND('',#165,.T.);
#165 = EDGE_LOOP('',(#166,#167,#175,#181));
#166 = ORIENTED_EDGE('',*,*,#98,.F.);
#167 = ORIENTED_EDGE('',*,*,#168,.T.);
#168 = EDGE_CURVE('',#91,#169,#171,.T.);
#169 = VERTEX_POINT('',#170);
#170 = CARTESIAN_POINT('',(-60.,22.,150.));
#171 = LINE('',#172,#173);
#172 = CARTESIAN_POINT('',(-60.,0.,150.));
#173 = VECTOR('',#174,1.);
#174 = DIRECTION('',(0.,1.,0.));
#175 = ORIENTED_EDGE('',*,*,#176,.T.);
#176 = EDGE_CURVE('',#169,#32,#177,.T.);
#177 = LINE('',#178,#179);
#178 = CARTESIAN_POINT('',(-60.,22.,150.));
#179 = VECTOR('',#180,1.);
#180 = DIRECTION('',(-1.,0.,0.));
#181 = ORIENTED_EDGE('',*,*,#31,.F.);
#182 = FACE_BOUND('',#183,.T.);
#183 = EDGE_LOOP('',(#184,#194,#202,#210,#218,#226));
#184 = ORIENTED_EDGE('',*,*,#185,.T.);
#185 = EDGE_CURVE('',#186,#188,#190,.T.);
#186 = VERTEX_POINT('',#187);
#187 = CARTESIAN_POINT('',(-82.,7.5,150.));
#188 = VERTEX_POINT('',#189);
#189 = CARTESIAN_POINT('',(-82.,11.,150.));
#190 = LINE('',#191,#192);
#191 = CARTESIAN_POINT('',(-82.,7.5,150.));
#192 = VECTOR('',#193,1.);
#193 = DIRECTION('',(-0.,1.,0.));
#194 = ORIENTED_EDGE('',*,*,#195,.T.);
#195 = EDGE_CURVE('',#188,#196,#198,.T.);
#196 = VERTEX_POINT('',#197);
#197 = CARTESIAN_POINT('',(-82.,14.5,150.));
#198 = LINE('',#199,#200);
#199 = CARTESIAN_POINT('',(-82.,7.5,150.));
#200 = VECTOR('',#201,1.);
#201 = DIRECTION('',(-0.,1.,0.));
#202 = ORIENTED_EDGE('',*,*,#203,.T.);
#203 = EDGE_CURVE('',#196,#204,#206,.T.);
#204 = VERTEX_POINT('',#205);
#205 = CARTESIAN_POINT('',(-62.5,14.5,150.));
#206 = LINE('',#207,#208);
#207 = CARTESIAN_POINT('',(-82.,14.5,150.));
#208 = VECTOR('',#209,1.);
#209 = DIRECTION('',(1.,0.,-0.));
#210 = ORIENTED_EDGE('',*,*,#211,.F.);
#211 = EDGE_CURVE('',#212,#204,#214,.T.);
#212 = VERTEX_POINT('',#213);
#213 = CARTESIAN_POINT('',(-62.5,11.,150.));
#214 = LINE('',#215,#216);
#215 = CARTESIAN_POINT('',(-62.5,7.5,150.));
#216 = VECTOR('',#217,1.);
#217 = DIRECTION('',(-0.,1.,0.));
#218 = ORIENTED_EDGE('',*,*,#219,.F.);
#219 = EDGE_CURVE('',#220,#212,#222,.T.);
#220 = VERTEX_POINT('',#221);
#221 = CARTESIAN_POINT('',(-62.5,7.5,150.));
#222 = LINE('',#223,#224);
#223 = CARTESIAN_POINT('',(-62.5,7.5,150.));
#224 = VECTOR('',#225,1.);
#225 = DIRECTION('',(-0.,1.,0.));
#226 = ORIENTED_EDGE('',*,*,#227,.F.);
#227 = EDGE_CURVE('',#186,#220,#228,.T.);
#228 = LINE('',#229,#230);
#229 = CARTESIAN_POINT('',(-82.,7.5,150.));
#230 = VECTOR('',#231,1.);
#231 = DIRECTION('',(1.,0.,-0.));
#232 = PLANE('',#233);
#233 = AXIS2_PLACEMENT_3D('',#234,#235,#236);
#234 = CARTESIAN_POINT('',(-60.,0.,150.));
#235 = DIRECTION('',(0.,-0.,1.));
#236 = DIRECTION('',(-1.,0.,0.));
#237 = ADVANCED_FACE('',(#238),#288,.F.);
#238 = FACE_BOUND('',#239,.F.);
#239 = EDGE_LOOP('',(#240,#241,#249,#257,#265,#273,#281,#287));
#240 = ORIENTED_EDGE('',*,*,#105,.F.);
#241 = ORIENTED_EDGE('',*,*,#242,.T.);
#242 = EDGE_CURVE('',#106,#243,#245,.T.);
#243 = VERTEX_POINT('',#244);
#244 = CARTESIAN_POINT('',(-64.,7.5,202.));
#245 = LINE('',#246,#247);
#246 = CARTESIAN_POINT('',(-64.,0.,202.));
#247 = VECTOR('',#248,1.);
#248 = DIRECTION('',(0.,1.,0.));
#249 = ORIENTED_EDGE('',*,*,#250,.T.);
#250 = EDGE_CURVE('',#243,#251,#253,.T.);
#251 = VERTEX_POINT('',#252);
#252 = CARTESIAN_POINT('',(-82.,7.5,184.));
#253 = LINE('',#254,#255);
#254 = CARTESIAN_POINT('',(-81.5,7.5,184.5));
#255 = VECTOR('',#256,1.);
#256 = DIRECTION('',(-0.707106781187,0.,-0.707106781187));
#257 = ORIENTED_EDGE('',*,*,#258,.T.);
#258 = EDGE_CURVE('',#251,#259,#261,.T.);
#259 = VERTEX_POINT('',#260);
#260 = CARTESIAN_POINT('',(-82.,14.5,184.));
#261 = LINE('',#262,#263);
#262 = CARTESIAN_POINT('',(-82.,3.75,184.));
#263 = VECTOR('',#264,1.);
#264 = DIRECTION('',(-0.,1.,-0.));
#265 = ORIENTED_EDGE('',*,*,#266,.F.);
#266 = EDGE_CURVE('',#267,#259,#269,.T.);
#267 = VERTEX_POINT('',#268);
#268 = CARTESIAN_POINT('',(-64.,14.5,202.));
#269 = LINE('',#270,#271);
#270 = CARTESIAN_POINT('',(-81.5,14.5,184.5));
#271 = VECTOR('',#272,1.);
#272 = DIRECTION('',(-0.707106781187,0.,-0.707106781187));
#273 = ORIENTED_EDGE('',*,*,#274,.T.);
#274 = EDGE_CURVE('',#267,#275,#277,.T.);
#275 = VERTEX_POINT('',#276);
#276 = CARTESIAN_POINT('',(-64.,22.,202.));
#277 = LINE('',#278,#279);
#278 = CARTESIAN_POINT('',(-64.,0.,202.));
#279 = VECTOR('',#280,1.);
#280 = DIRECTION('',(0.,1.,0.));
#281 = ORIENTED_EDGE('',*,*,#282,.T.);
#282 = EDGE_CURVE('',#275,#40,#283,.T.);
#283 = LINE('',#284,#285);
#284 = CARTESIAN_POINT('',(-64.,22.,202.));
#285 = VECTOR('',#286,1.);
#286 = DIRECTION('',(-0.707106781187,0.,-0.707106781187));
#287 = ORIENTED_EDGE('',*,*,#47,.F.);
#288 = PLANE('',#289);
#289 = AXIS2_PLACEMENT_3D('',#290,#291,#292);
#290 = CARTESIAN_POINT('',(-64.,0.,202.));
#291 = DIRECTION('',(-0.707106781187,0.,0.707106781187));
#292 = DIRECTION('',(-0.707106781187,0.,-0.707106781187));
#293 = ADVANCED_FACE('',(#294),#361,.T.);
#294 = FACE_BOUND('',#295,.T.);
#295 = EDGE_LOOP('',(#296,#306,#314,#322,#330,#338,#344,#345,#346,#347,
    #355));
#296 = ORIENTED_EDGE('',*,*,#297,.F.);
#297 = EDGE_CURVE('',#298,#300,#302,.T.);
#298 = VERTEX_POINT('',#299);
#299 = CARTESIAN_POINT('',(-98.,22.,214.));
#300 = VERTEX_POINT('',#301);
#301 = CARTESIAN_POINT('',(-98.,22.,145.));
#302 = LINE('',#303,#304);
#303 = CARTESIAN_POINT('',(-98.,22.,150.));
#304 = VECTOR('',#305,1.);
#305 = DIRECTION('',(0.,0.,-1.));
#306 = ORIENTED_EDGE('',*,*,#307,.F.);
#307 = EDGE_CURVE('',#308,#298,#310,.T.);
#308 = VERTEX_POINT('',#309);
#309 = CARTESIAN_POINT('',(-28.37314015743,22.,214.));
#310 = LINE('',#311,#312);
#311 = CARTESIAN_POINT('',(-84.,22.,214.));
#312 = VECTOR('',#313,1.);
#313 = DIRECTION('',(-1.,0.,0.));
#314 = ORIENTED_EDGE('',*,*,#315,.F.);
#315 = EDGE_CURVE('',#316,#308,#318,.T.);
#316 = VERTEX_POINT('',#317);
#317 = CARTESIAN_POINT('',(-28.37314015743,22.,240.42296268953));
#318 = LINE('',#319,#320);
#319 = CARTESIAN_POINT('',(-28.37314015743,22.,240.42296268953));
#320 = VECTOR('',#321,1.);
#321 = DIRECTION('',(0.,0.,-1.));
#322 = ORIENTED_EDGE('',*,*,#323,.F.);
#323 = EDGE_CURVE('',#324,#316,#326,.T.);
#324 = VERTEX_POINT('',#325);
#325 = CARTESIAN_POINT('',(-6.976246861744,22.,214.));
#326 = LINE('',#327,#328);
#327 = CARTESIAN_POINT('',(-6.976246861744,22.,214.));
#328 = VECTOR('',#329,1.);
#329 = DIRECTION('',(-0.62932039105,0.,0.777145961457));
#330 = ORIENTED_EDGE('',*,*,#331,.F.);
#331 = EDGE_CURVE('',#332,#324,#334,.T.);
#332 = VERTEX_POINT('',#333);
#333 = CARTESIAN_POINT('',(-6.976246861744,22.,202.));
#334 = LINE('',#335,#336);
#335 = CARTESIAN_POINT('',(-6.976246861744,22.,202.));
#336 = VECTOR('',#337,1.);
#337 = DIRECTION('',(0.,0.,1.));
#338 = ORIENTED_EDGE('',*,*,#339,.F.);
#339 = EDGE_CURVE('',#275,#332,#340,.T.);
#340 = LINE('',#341,#342);
#341 = CARTESIAN_POINT('',(-98.,22.,202.));
#342 = VECTOR('',#343,1.);
#343 = DIRECTION('',(1.,0.,0.));
#344 = ORIENTED_EDGE('',*,*,#282,.T.);
#345 = ORIENTED_EDGE('',*,*,#39,.F.);
#346 = ORIENTED_EDGE('',*,*,#176,.F.);
#347 = ORIENTED_EDGE('',*,*,#348,.F.);
#348 = EDGE_CURVE('',#349,#169,#351,.T.);
#349 = VERTEX_POINT('',#350);
#350 = CARTESIAN_POINT('',(-60.,22.,145.));
#351 = LINE('',#352,#353);
#352 = CARTESIAN_POINT('',(-60.,22.,145.));
#353 = VECTOR('',#354,1.);
#354 = DIRECTION('',(0.,0.,1.));
#355 = ORIENTED_EDGE('',*,*,#356,.F.);
#356 = EDGE_CURVE('',#300,#349,#357,.T.);
#357 = LINE('',#358,#359);
#358 = CARTESIAN_POINT('',(-98.,22.,145.));
#359 = VECTOR('',#360,1.);
#360 = DIRECTION('',(1.,0.,0.));
#361 = PLANE('',#362);
#362 = AXIS2_PLACEMENT_3D('',#363,#364,#365);
#363 = CARTESIAN_POINT('',(-61.79349082576,22.,191.26803140294));
#364 = DIRECTION('',(3.74030147316E-32,1.,8.328865880168E-32));
#365 = DIRECTION('',(0.,-8.328865880168E-32,1.));
#366 = ADVANCED_FACE('',(#367),#377,.F.);
#367 = FACE_BOUND('',#368,.F.);
#368 = EDGE_LOOP('',(#369,#376));
#369 = ORIENTED_EDGE('',*,*,#370,.F.);
#370 = EDGE_CURVE('',#58,#56,#371,.T.);
#371 = CIRCLE('',#372,6.5);
#372 = AXIS2_PLACEMENT_3D('',#373,#374,#375);
#373 = CARTESIAN_POINT('',(-86.0635381178,11.,171.83128693238));
#374 = DIRECTION('',(-0.777145961457,0.,-0.62932039105));
#375 = DIRECTION('',(0.62932039105,0.,-0.777145961457));
#376 = ORIENTED_EDGE('',*,*,#55,.F.);
#377 = CYLINDRICAL_SURFACE('',#378,6.5);
#378 = AXIS2_PLACEMENT_3D('',#379,#380,#381);
#379 = CARTESIAN_POINT('',(-23.89186120124,11.,222.17691821637));
#380 = DIRECTION('',(-0.777145961457,0.,-0.62932039105));
#381 = DIRECTION('',(0.62932039105,0.,-0.777145961457));
#382 = ADVANCED_FACE('',(#383),#387,.F.);
#383 = FACE_BOUND('',#384,.F.);
#384 = EDGE_LOOP('',(#385,#386));
#385 = ORIENTED_EDGE('',*,*,#370,.T.);
#386 = ORIENTED_EDGE('',*,*,#66,.F.);
#387 = PLANE('',#388);
#388 = AXIS2_PLACEMENT_3D('',#389,#390,#391);
#389 = CARTESIAN_POINT('',(-86.0635381178,11.,171.83128693238));
#390 = DIRECTION('',(-0.777145961457,0.,-0.62932039105));
#391 = DIRECTION('',(0.62932039105,0.,-0.777145961457));
#392 = ADVANCED_FACE('',(#393,#409),#454,.T.);
#393 = FACE_BOUND('',#394,.T.);
#394 = EDGE_LOOP('',(#395,#401,#402,#408));
#395 = ORIENTED_EDGE('',*,*,#396,.T.);
#396 = EDGE_CURVE('',#81,#300,#397,.T.);
#397 = LINE('',#398,#399);
#398 = CARTESIAN_POINT('',(-98.,0.,145.));
#399 = VECTOR('',#400,1.);
#400 = DIRECTION('',(0.,1.,0.));
#401 = ORIENTED_EDGE('',*,*,#356,.T.);
#402 = ORIENTED_EDGE('',*,*,#403,.F.);
#403 = EDGE_CURVE('',#83,#349,#404,.T.);
#404 = LINE('',#405,#406);
#405 = CARTESIAN_POINT('',(-60.,0.,145.));
#406 = VECTOR('',#407,1.);
#407 = DIRECTION('',(0.,1.,0.));
#408 = ORIENTED_EDGE('',*,*,#80,.F.);
#409 = FACE_BOUND('',#410,.T.);
#410 = EDGE_LOOP('',(#411,#422,#431,#439,#448));
#411 = ORIENTED_EDGE('',*,*,#412,.T.);
#412 = EDGE_CURVE('',#413,#415,#417,.T.);
#413 = VERTEX_POINT('',#414);
#414 = CARTESIAN_POINT('',(-64.2,9.3,145.));
#415 = VERTEX_POINT('',#416);
#416 = CARTESIAN_POINT('',(-62.5,11.,145.));
#417 = CIRCLE('',#418,1.7);
#418 = AXIS2_PLACEMENT_3D('',#419,#420,#421);
#419 = CARTESIAN_POINT('',(-64.2,11.,145.));
#420 = DIRECTION('',(0.,0.,1.));
#421 = DIRECTION('',(1.,0.,-0.));
#422 = ORIENTED_EDGE('',*,*,#423,.T.);
#423 = EDGE_CURVE('',#415,#424,#426,.T.);
#424 = VERTEX_POINT('',#425);
#425 = CARTESIAN_POINT('',(-64.2,12.7,145.));
#426 = CIRCLE('',#427,1.7);
#427 = AXIS2_PLACEMENT_3D('',#428,#429,#430);
#428 = CARTESIAN_POINT('',(-64.2,11.,145.));
#429 = DIRECTION('',(0.,0.,1.));
#430 = DIRECTION('',(1.,0.,-0.));
#431 = ORIENTED_EDGE('',*,*,#432,.F.);
#432 = EDGE_CURVE('',#433,#424,#435,.T.);
#433 = VERTEX_POINT('',#434);
#434 = CARTESIAN_POINT('',(-80.3,12.7,145.));
#435 = LINE('',#436,#437);
#436 = CARTESIAN_POINT('',(-89.15,12.7,145.));
#437 = VECTOR('',#438,1.);
#438 = DIRECTION('',(1.,0.,0.));
#439 = ORIENTED_EDGE('',*,*,#440,.T.);
#440 = EDGE_CURVE('',#433,#441,#443,.T.);
#441 = VERTEX_POINT('',#442);
#442 = CARTESIAN_POINT('',(-80.3,9.3,145.));
#443 = CIRCLE('',#444,1.7);
#444 = AXIS2_PLACEMENT_3D('',#445,#446,#447);
#445 = CARTESIAN_POINT('',(-80.3,11.,145.));
#446 = DIRECTION('',(0.,0.,1.));
#447 = DIRECTION('',(1.,0.,-0.));
#448 = ORIENTED_EDGE('',*,*,#449,.T.);
#449 = EDGE_CURVE('',#441,#413,#450,.T.);
#450 = LINE('',#451,#452);
#451 = CARTESIAN_POINT('',(-89.15,9.3,145.));
#452 = VECTOR('',#453,1.);
#453 = DIRECTION('',(1.,0.,0.));
#454 = PLANE('',#455);
#455 = AXIS2_PLACEMENT_3D('',#456,#457,#458);
#456 = CARTESIAN_POINT('',(-98.,0.,145.));
#457 = DIRECTION('',(0.,0.,-1.));
#458 = DIRECTION('',(1.,0.,0.));
#459 = ADVANCED_FACE('',(#460),#466,.T.);
#460 = FACE_BOUND('',#461,.T.);
#461 = EDGE_LOOP('',(#462,#463,#464,#465));
#462 = ORIENTED_EDGE('',*,*,#403,.T.);
#463 = ORIENTED_EDGE('',*,*,#348,.T.);
#464 = ORIENTED_EDGE('',*,*,#168,.F.);
#465 = ORIENTED_EDGE('',*,*,#90,.F.);
#466 = PLANE('',#467);
#467 = AXIS2_PLACEMENT_3D('',#468,#469,#470);
#468 = CARTESIAN_POINT('',(-60.,0.,145.));
#469 = DIRECTION('',(1.,0.,0.));
#470 = DIRECTION('',(0.,0.,1.));
#471 = ADVANCED_FACE('',(#472,#506),#517,.T.);
#472 = FACE_BOUND('',#473,.T.);
#473 = EDGE_LOOP('',(#474,#475,#476,#484,#492,#498,#499,#500));
#474 = ORIENTED_EDGE('',*,*,#113,.F.);
#475 = ORIENTED_EDGE('',*,*,#242,.T.);
#476 = ORIENTED_EDGE('',*,*,#477,.T.);
#477 = EDGE_CURVE('',#243,#478,#480,.T.);
#478 = VERTEX_POINT('',#479);
#479 = CARTESIAN_POINT('',(-62.5,7.5,202.));
#480 = LINE('',#481,#482);
#481 = CARTESIAN_POINT('',(-90.,7.5,202.));
#482 = VECTOR('',#483,1.);
#483 = DIRECTION('',(1.,0.,0.));
#484 = ORIENTED_EDGE('',*,*,#485,.F.);
#485 = EDGE_CURVE('',#486,#478,#488,.T.);
#486 = VERTEX_POINT('',#487);
#487 = CARTESIAN_POINT('',(-62.5,14.5,202.));
#488 = LINE('',#489,#490);
#489 = CARTESIAN_POINT('',(-62.5,3.75,202.));
#490 = VECTOR('',#491,1.);
#491 = DIRECTION('',(0.,-1.,0.));
#492 = ORIENTED_EDGE('',*,*,#493,.F.);
#493 = EDGE_CURVE('',#267,#486,#494,.T.);
#494 = LINE('',#495,#496);
#495 = CARTESIAN_POINT('',(-90.,14.5,202.));
#496 = VECTOR('',#497,1.);
#497 = DIRECTION('',(1.,0.,0.));
#498 = ORIENTED_EDGE('',*,*,#274,.T.);
#499 = ORIENTED_EDGE('',*,*,#339,.T.);
#500 = ORIENTED_EDGE('',*,*,#501,.F.);
#501 = EDGE_CURVE('',#114,#332,#502,.T.);
#502 = LINE('',#503,#504);
#503 = CARTESIAN_POINT('',(-6.976246861744,0.,202.));
#504 = VECTOR('',#505,1.);
#505 = DIRECTION('',(0.,1.,0.));
#506 = FACE_BOUND('',#507,.T.);
#507 = EDGE_LOOP('',(#508));
#508 = ORIENTED_EDGE('',*,*,#509,.F.);
#509 = EDGE_CURVE('',#510,#510,#512,.T.);
#510 = VERTEX_POINT('',#511);
#511 = CARTESIAN_POINT('',(-38.47967789535,11.,202.));
#512 = ELLIPSE('',#513,10.328602238927,6.5);
#513 = AXIS2_PLACEMENT_3D('',#514,#515,#516);
#514 = CARTESIAN_POINT('',(-48.80828013428,11.,202.));
#515 = DIRECTION('',(0.,0.,-1.));
#516 = DIRECTION('',(-1.,0.,0.));
#517 = PLANE('',#518);
#518 = AXIS2_PLACEMENT_3D('',#519,#520,#521);
#519 = CARTESIAN_POINT('',(-98.,0.,202.));
#520 = DIRECTION('',(0.,0.,-1.));
#521 = DIRECTION('',(1.,0.,0.));
#522 = ADVANCED_FACE('',(#523),#534,.T.);
#523 = FACE_BOUND('',#524,.T.);
#524 = EDGE_LOOP('',(#525,#526,#527,#533));
#525 = ORIENTED_EDGE('',*,*,#501,.T.);
#526 = ORIENTED_EDGE('',*,*,#331,.T.);
#527 = ORIENTED_EDGE('',*,*,#528,.F.);
#528 = EDGE_CURVE('',#122,#324,#529,.T.);
#529 = LINE('',#530,#531);
#530 = CARTESIAN_POINT('',(-6.976246861744,0.,214.));
#531 = VECTOR('',#532,1.);
#532 = DIRECTION('',(0.,1.,0.));
#533 = ORIENTED_EDGE('',*,*,#121,.F.);
#534 = PLANE('',#535);
#535 = AXIS2_PLACEMENT_3D('',#536,#537,#538);
#536 = CARTESIAN_POINT('',(-6.976246861744,0.,202.));
#537 = DIRECTION('',(1.,0.,0.));
#538 = DIRECTION('',(0.,0.,1.));
#539 = ADVANCED_FACE('',(#540,#551),#562,.T.);
#540 = FACE_BOUND('',#541,.T.);
#541 = EDGE_LOOP('',(#542,#543,#544,#550));
#542 = ORIENTED_EDGE('',*,*,#528,.T.);
#543 = ORIENTED_EDGE('',*,*,#323,.T.);
#544 = ORIENTED_EDGE('',*,*,#545,.F.);
#545 = EDGE_CURVE('',#130,#316,#546,.T.);
#546 = LINE('',#547,#548);
#547 = CARTESIAN_POINT('',(-28.37314015743,0.,240.42296268953));
#548 = VECTOR('',#549,1.);
#549 = DIRECTION('',(0.,1.,0.));
#550 = ORIENTED_EDGE('',*,*,#129,.F.);
#551 = FACE_BOUND('',#552,.T.);
#552 = EDGE_LOOP('',(#553));
#553 = ORIENTED_EDGE('',*,*,#554,.T.);
#554 = EDGE_CURVE('',#555,#555,#557,.T.);
#555 = VERTEX_POINT('',#556);
#556 = CARTESIAN_POINT('',(-15.59793621912,11.,224.64689967196));
#557 = CIRCLE('',#558,3.3);
#558 = AXIS2_PLACEMENT_3D('',#559,#560,#561);
#559 = CARTESIAN_POINT('',(-17.67469350959,11.,227.21148134476));
#560 = DIRECTION('',(-0.777145961457,0.,-0.62932039105));
#561 = DIRECTION('',(0.62932039105,0.,-0.777145961457));
#562 = PLANE('',#563);
#563 = AXIS2_PLACEMENT_3D('',#564,#565,#566);
#564 = CARTESIAN_POINT('',(-6.976246861744,0.,214.));
#565 = DIRECTION('',(0.777145961457,-0.,0.62932039105));
#566 = DIRECTION('',(-0.62932039105,0.,0.777145961457));
#567 = ADVANCED_FACE('',(#568),#596,.T.);
#568 = FACE_BOUND('',#569,.T.);
#569 = EDGE_LOOP('',(#570,#571,#572,#573,#581,#590));
#570 = ORIENTED_EDGE('',*,*,#137,.F.);
#571 = ORIENTED_EDGE('',*,*,#545,.T.);
#572 = ORIENTED_EDGE('',*,*,#315,.T.);
#573 = ORIENTED_EDGE('',*,*,#574,.T.);
#574 = EDGE_CURVE('',#308,#575,#577,.T.);
#575 = VERTEX_POINT('',#576);
#576 = CARTESIAN_POINT('',(-28.37314015743,16.455026913715,214.));
#577 = LINE('',#578,#579);
#578 = CARTESIAN_POINT('',(-28.37314015743,0.,214.));
#579 = VECTOR('',#580,1.);
#580 = DIRECTION('',(-0.,-1.,0.));
#581 = ORIENTED_EDGE('',*,*,#582,.F.);
#582 = EDGE_CURVE('',#583,#575,#585,.T.);
#583 = VERTEX_POINT('',#584);
#584 = CARTESIAN_POINT('',(-28.37314015743,5.544973086285,214.));
#585 = ELLIPSE('',#586,8.363937178306,6.5);
#586 = AXIS2_PLACEMENT_3D('',#587,#588,#589);
#587 = CARTESIAN_POINT('',(-28.37314015743,11.,218.54805006935));
#588 = DIRECTION('',(-1.,0.,0.));
#589 = DIRECTION('',(0.,0.,-1.));
#590 = ORIENTED_EDGE('',*,*,#591,.T.);
#591 = EDGE_CURVE('',#583,#138,#592,.T.);
#592 = LINE('',#593,#594);
#593 = CARTESIAN_POINT('',(-28.37314015743,0.,214.));
#594 = VECTOR('',#595,1.);
#595 = DIRECTION('',(-0.,-1.,0.));
#596 = PLANE('',#597);
#597 = AXIS2_PLACEMENT_3D('',#598,#599,#600);
#598 = CARTESIAN_POINT('',(-28.37314015743,0.,240.42296268953));
#599 = DIRECTION('',(-1.,0.,0.));
#600 = DIRECTION('',(0.,0.,-1.));
#601 = ADVANCED_FACE('',(#602,#621),#655,.T.);
#602 = FACE_BOUND('',#603,.T.);
#603 = EDGE_LOOP('',(#604,#610,#611,#612,#619,#620));
#604 = ORIENTED_EDGE('',*,*,#605,.F.);
#605 = EDGE_CURVE('',#146,#298,#606,.T.);
#606 = LINE('',#607,#608);
#607 = CARTESIAN_POINT('',(-98.,0.,214.));
#608 = VECTOR('',#609,1.);
#609 = DIRECTION('',(0.,1.,0.));
#610 = ORIENTED_EDGE('',*,*,#145,.F.);
#611 = ORIENTED_EDGE('',*,*,#591,.F.);
#612 = ORIENTED_EDGE('',*,*,#613,.F.);
#613 = EDGE_CURVE('',#575,#583,#614,.T.);
#614 = ELLIPSE('',#615,10.328602238927,6.5);
#615 = AXIS2_PLACEMENT_3D('',#616,#617,#618);
#616 = CARTESIAN_POINT('',(-33.98951425586,11.,214.));
#617 = DIRECTION('',(0.,0.,1.));
#618 = DIRECTION('',(-1.,0.,0.));
#619 = ORIENTED_EDGE('',*,*,#574,.F.);
#620 = ORIENTED_EDGE('',*,*,#307,.T.);
#621 = FACE_BOUND('',#622,.T.);
#622 = EDGE_LOOP('',(#623,#633,#641,#649));
#623 = ORIENTED_EDGE('',*,*,#624,.T.);
#624 = EDGE_CURVE('',#625,#627,#629,.T.);
#625 = VERTEX_POINT('',#626);
#626 = CARTESIAN_POINT('',(-62.5,7.5,214.));
#627 = VERTEX_POINT('',#628);
#628 = CARTESIAN_POINT('',(-82.,7.5,214.));
#629 = LINE('',#630,#631);
#630 = CARTESIAN_POINT('',(-44.48812343087,7.5,214.));
#631 = VECTOR('',#632,1.);
#632 = DIRECTION('',(-1.,-0.,0.));
#633 = ORIENTED_EDGE('',*,*,#634,.T.);
#634 = EDGE_CURVE('',#627,#635,#637,.T.);
#635 = VERTEX_POINT('',#636);
#636 = CARTESIAN_POINT('',(-82.,14.5,214.));
#637 = LINE('',#638,#639);
#638 = CARTESIAN_POINT('',(-82.,3.75,214.));
#639 = VECTOR('',#640,1.);
#640 = DIRECTION('',(0.,1.,0.));
#641 = ORIENTED_EDGE('',*,*,#642,.F.);
#642 = EDGE_CURVE('',#643,#635,#645,.T.);
#643 = VERTEX_POINT('',#644);
#644 = CARTESIAN_POINT('',(-62.5,14.5,214.));
#645 = LINE('',#646,#647);
#646 = CARTESIAN_POINT('',(-44.48812343087,14.5,214.));
#647 = VECTOR('',#648,1.);
#648 = DIRECTION('',(-1.,-0.,0.));
#649 = ORIENTED_EDGE('',*,*,#650,.F.);
#650 = EDGE_CURVE('',#625,#643,#651,.T.);
#651 = LINE('',#652,#653);
#652 = CARTESIAN_POINT('',(-62.5,3.75,214.));
#653 = VECTOR('',#654,1.);
#654 = DIRECTION('',(0.,1.,0.));
#655 = PLANE('',#656);
#656 = AXIS2_PLACEMENT_3D('',#657,#658,#659);
#657 = CARTESIAN_POINT('',(-6.976246861744,0.,214.));
#658 = DIRECTION('',(0.,-0.,1.));
#659 = DIRECTION('',(-1.,0.,0.));
#660 = ADVANCED_FACE('',(#661),#667,.T.);
#661 = FACE_BOUND('',#662,.T.);
#662 = EDGE_LOOP('',(#663,#664,#665,#666));
#663 = ORIENTED_EDGE('',*,*,#396,.F.);
#664 = ORIENTED_EDGE('',*,*,#153,.F.);
#665 = ORIENTED_EDGE('',*,*,#605,.T.);
#666 = ORIENTED_EDGE('',*,*,#297,.T.);
#667 = PLANE('',#668);
#668 = AXIS2_PLACEMENT_3D('',#669,#670,#671);
#669 = CARTESIAN_POINT('',(-98.,0.,214.));
#670 = DIRECTION('',(-1.,0.,0.));
#671 = DIRECTION('',(0.,0.,-1.));
#672 = ADVANCED_FACE('',(#673),#702,.T.);
#673 = FACE_BOUND('',#674,.T.);
#674 = EDGE_LOOP('',(#675,#676,#677,#678,#687,#695));
#675 = ORIENTED_EDGE('',*,*,#185,.F.);
#676 = ORIENTED_EDGE('',*,*,#227,.T.);
#677 = ORIENTED_EDGE('',*,*,#219,.T.);
#678 = ORIENTED_EDGE('',*,*,#679,.F.);
#679 = EDGE_CURVE('',#680,#212,#682,.T.);
#680 = VERTEX_POINT('',#681);
#681 = CARTESIAN_POINT('',(-64.2,9.3,150.));
#682 = CIRCLE('',#683,1.7);
#683 = AXIS2_PLACEMENT_3D('',#684,#685,#686);
#684 = CARTESIAN_POINT('',(-64.2,11.,150.));
#685 = DIRECTION('',(0.,0.,1.));
#686 = DIRECTION('',(1.,0.,-0.));
#687 = ORIENTED_EDGE('',*,*,#688,.F.);
#688 = EDGE_CURVE('',#689,#680,#691,.T.);
#689 = VERTEX_POINT('',#690);
#690 = CARTESIAN_POINT('',(-80.3,9.3,150.));
#691 = LINE('',#692,#693);
#692 = CARTESIAN_POINT('',(-81.15,9.3,150.));
#693 = VECTOR('',#694,1.);
#694 = DIRECTION('',(1.,0.,-0.));
#695 = ORIENTED_EDGE('',*,*,#696,.F.);
#696 = EDGE_CURVE('',#188,#689,#697,.T.);
#697 = CIRCLE('',#698,1.7);
#698 = AXIS2_PLACEMENT_3D('',#699,#700,#701);
#699 = CARTESIAN_POINT('',(-80.3,11.,150.));
#700 = DIRECTION('',(0.,0.,1.));
#701 = DIRECTION('',(1.,0.,-0.));
#702 = PLANE('',#703);
#703 = AXIS2_PLACEMENT_3D('',#704,#705,#706);
#704 = CARTESIAN_POINT('',(-82.,7.5,150.));
#705 = DIRECTION('',(0.,0.,1.));
#706 = DIRECTION('',(1.,0.,-0.));
#707 = ADVANCED_FACE('',(#708),#737,.T.);
#708 = FACE_BOUND('',#709,.T.);
#709 = EDGE_LOOP('',(#710,#711,#720,#728,#735,#736));
#710 = ORIENTED_EDGE('',*,*,#195,.F.);
#711 = ORIENTED_EDGE('',*,*,#712,.F.);
#712 = EDGE_CURVE('',#713,#188,#715,.T.);
#713 = VERTEX_POINT('',#714);
#714 = CARTESIAN_POINT('',(-80.3,12.7,150.));
#715 = CIRCLE('',#716,1.7);
#716 = AXIS2_PLACEMENT_3D('',#717,#718,#719);
#717 = CARTESIAN_POINT('',(-80.3,11.,150.));
#718 = DIRECTION('',(0.,0.,1.));
#719 = DIRECTION('',(1.,0.,-0.));
#720 = ORIENTED_EDGE('',*,*,#721,.T.);
#721 = EDGE_CURVE('',#713,#722,#724,.T.);
#722 = VERTEX_POINT('',#723);
#723 = CARTESIAN_POINT('',(-64.2,12.7,150.));
#724 = LINE('',#725,#726);
#725 = CARTESIAN_POINT('',(-81.15,12.7,150.));
#726 = VECTOR('',#727,1.);
#727 = DIRECTION('',(1.,0.,-0.));
#728 = ORIENTED_EDGE('',*,*,#729,.F.);
#729 = EDGE_CURVE('',#212,#722,#730,.T.);
#730 = CIRCLE('',#731,1.7);
#731 = AXIS2_PLACEMENT_3D('',#732,#733,#734);
#732 = CARTESIAN_POINT('',(-64.2,11.,150.));
#733 = DIRECTION('',(0.,0.,1.));
#734 = DIRECTION('',(1.,0.,-0.));
#735 = ORIENTED_EDGE('',*,*,#211,.T.);
#736 = ORIENTED_EDGE('',*,*,#203,.F.);
#737 = PLANE('',#738);
#738 = AXIS2_PLACEMENT_3D('',#739,#740,#741);
#739 = CARTESIAN_POINT('',(-82.,7.5,150.));
#740 = DIRECTION('',(0.,0.,1.));
#741 = DIRECTION('',(1.,0.,-0.));
#742 = ADVANCED_FACE('',(#743),#760,.F.);
#743 = FACE_BOUND('',#744,.F.);
#744 = EDGE_LOOP('',(#745,#751,#752,#753,#759));
#745 = ORIENTED_EDGE('',*,*,#746,.F.);
#746 = EDGE_CURVE('',#486,#643,#747,.T.);
#747 = LINE('',#748,#749);
#748 = CARTESIAN_POINT('',(-62.5,14.5,150.));
#749 = VECTOR('',#750,1.);
#750 = DIRECTION('',(0.,0.,1.));
#751 = ORIENTED_EDGE('',*,*,#493,.F.);
#752 = ORIENTED_EDGE('',*,*,#266,.T.);
#753 = ORIENTED_EDGE('',*,*,#754,.T.);
#754 = EDGE_CURVE('',#259,#635,#755,.T.);
#755 = LINE('',#756,#757);
#756 = CARTESIAN_POINT('',(-82.,14.5,150.));
#757 = VECTOR('',#758,1.);
#758 = DIRECTION('',(0.,0.,1.));
#759 = ORIENTED_EDGE('',*,*,#642,.F.);
#760 = PLANE('',#761);
#761 = AXIS2_PLACEMENT_3D('',#762,#763,#764);
#762 = CARTESIAN_POINT('',(-82.,14.5,150.));
#763 = DIRECTION('',(-0.,1.,0.));
#764 = DIRECTION('',(0.,0.,1.));
#765 = ADVANCED_FACE('',(#766),#777,.T.);
#766 = FACE_BOUND('',#767,.T.);
#767 = EDGE_LOOP('',(#768,#774,#775,#776));
#768 = ORIENTED_EDGE('',*,*,#769,.F.);
#769 = EDGE_CURVE('',#251,#627,#770,.T.);
#770 = LINE('',#771,#772);
#771 = CARTESIAN_POINT('',(-82.,7.5,150.));
#772 = VECTOR('',#773,1.);
#773 = DIRECTION('',(0.,0.,1.));
#774 = ORIENTED_EDGE('',*,*,#258,.T.);
#775 = ORIENTED_EDGE('',*,*,#754,.T.);
#776 = ORIENTED_EDGE('',*,*,#634,.F.);
#777 = PLANE('',#778);
#778 = AXIS2_PLACEMENT_3D('',#779,#780,#781);
#779 = CARTESIAN_POINT('',(-82.,7.5,150.));
#780 = DIRECTION('',(1.,0.,-0.));
#781 = DIRECTION('',(0.,0.,1.));
#782 = ADVANCED_FACE('',(#783),#795,.T.);
#783 = FACE_BOUND('',#784,.T.);
#784 = EDGE_LOOP('',(#785,#791,#792,#793,#794));
#785 = ORIENTED_EDGE('',*,*,#786,.F.);
#786 = EDGE_CURVE('',#478,#625,#787,.T.);
#787 = LINE('',#788,#789);
#788 = CARTESIAN_POINT('',(-62.5,7.5,150.));
#789 = VECTOR('',#790,1.);
#790 = DIRECTION('',(0.,0.,1.));
#791 = ORIENTED_EDGE('',*,*,#477,.F.);
#792 = ORIENTED_EDGE('',*,*,#250,.T.);
#793 = ORIENTED_EDGE('',*,*,#769,.T.);
#794 = ORIENTED_EDGE('',*,*,#624,.F.);
#795 = PLANE('',#796);
#796 = AXIS2_PLACEMENT_3D('',#797,#798,#799);
#797 = CARTESIAN_POINT('',(-82.,7.5,150.));
#798 = DIRECTION('',(-0.,1.,0.));
#799 = DIRECTION('',(0.,0.,1.));
#800 = ADVANCED_FACE('',(#801),#817,.F.);
#801 = FACE_BOUND('',#802,.F.);
#802 = EDGE_LOOP('',(#803,#809,#810,#816));
#803 = ORIENTED_EDGE('',*,*,#804,.F.);
#804 = EDGE_CURVE('',#413,#680,#805,.T.);
#805 = LINE('',#806,#807);
#806 = CARTESIAN_POINT('',(-64.2,9.3,144.));
#807 = VECTOR('',#808,1.);
#808 = DIRECTION('',(0.,0.,1.));
#809 = ORIENTED_EDGE('',*,*,#412,.T.);
#810 = ORIENTED_EDGE('',*,*,#811,.T.);
#811 = EDGE_CURVE('',#415,#212,#812,.T.);
#812 = LINE('',#813,#814);
#813 = CARTESIAN_POINT('',(-62.5,11.,144.));
#814 = VECTOR('',#815,1.);
#815 = DIRECTION('',(0.,0.,1.));
#816 = ORIENTED_EDGE('',*,*,#679,.F.);
#817 = CYLINDRICAL_SURFACE('',#818,1.7);
#818 = AXIS2_PLACEMENT_3D('',#819,#820,#821);
#819 = CARTESIAN_POINT('',(-64.2,11.,144.));
#820 = DIRECTION('',(0.,0.,1.));
#821 = DIRECTION('',(1.,0.,-0.));
#822 = ADVANCED_FACE('',(#823),#834,.T.);
#823 = FACE_BOUND('',#824,.T.);
#824 = EDGE_LOOP('',(#825,#826,#827,#833));
#825 = ORIENTED_EDGE('',*,*,#804,.F.);
#826 = ORIENTED_EDGE('',*,*,#449,.F.);
#827 = ORIENTED_EDGE('',*,*,#828,.T.);
#828 = EDGE_CURVE('',#441,#689,#829,.T.);
#829 = LINE('',#830,#831);
#830 = CARTESIAN_POINT('',(-80.3,9.3,144.));
#831 = VECTOR('',#832,1.);
#832 = DIRECTION('',(0.,0.,1.));
#833 = ORIENTED_EDGE('',*,*,#688,.T.);
#834 = PLANE('',#835);
#835 = AXIS2_PLACEMENT_3D('',#836,#837,#838);
#836 = CARTESIAN_POINT('',(-80.3,9.3,144.));
#837 = DIRECTION('',(-0.,1.,0.));
#838 = DIRECTION('',(0.,0.,1.));
#839 = ADVANCED_FACE('',(#840),#852,.F.);
#840 = FACE_BOUND('',#841,.F.);
#841 = EDGE_LOOP('',(#842,#843,#849,#850,#851));
#842 = ORIENTED_EDGE('',*,*,#712,.F.);
#843 = ORIENTED_EDGE('',*,*,#844,.F.);
#844 = EDGE_CURVE('',#433,#713,#845,.T.);
#845 = LINE('',#846,#847);
#846 = CARTESIAN_POINT('',(-80.3,12.7,144.));
#847 = VECTOR('',#848,1.);
#848 = DIRECTION('',(0.,0.,1.));
#849 = ORIENTED_EDGE('',*,*,#440,.T.);
#850 = ORIENTED_EDGE('',*,*,#828,.T.);
#851 = ORIENTED_EDGE('',*,*,#696,.F.);
#852 = CYLINDRICAL_SURFACE('',#853,1.7);
#853 = AXIS2_PLACEMENT_3D('',#854,#855,#856);
#854 = CARTESIAN_POINT('',(-80.3,11.,144.));
#855 = DIRECTION('',(0.,0.,1.));
#856 = DIRECTION('',(1.,0.,-0.));
#857 = ADVANCED_FACE('',(#858),#869,.F.);
#858 = FACE_BOUND('',#859,.F.);
#859 = EDGE_LOOP('',(#860,#866,#867,#868));
#860 = ORIENTED_EDGE('',*,*,#861,.F.);
#861 = EDGE_CURVE('',#424,#722,#862,.T.);
#862 = LINE('',#863,#864);
#863 = CARTESIAN_POINT('',(-64.2,12.7,144.));
#864 = VECTOR('',#865,1.);
#865 = DIRECTION('',(0.,0.,1.));
#866 = ORIENTED_EDGE('',*,*,#432,.F.);
#867 = ORIENTED_EDGE('',*,*,#844,.T.);
#868 = ORIENTED_EDGE('',*,*,#721,.T.);
#869 = PLANE('',#870);
#870 = AXIS2_PLACEMENT_3D('',#871,#872,#873);
#871 = CARTESIAN_POINT('',(-80.3,12.7,144.));
#872 = DIRECTION('',(-0.,1.,0.));
#873 = DIRECTION('',(0.,0.,1.));
#874 = ADVANCED_FACE('',(#875),#881,.F.);
#875 = FACE_BOUND('',#876,.F.);
#876 = EDGE_LOOP('',(#877,#878,#879,#880));
#877 = ORIENTED_EDGE('',*,*,#729,.F.);
#878 = ORIENTED_EDGE('',*,*,#811,.F.);
#879 = ORIENTED_EDGE('',*,*,#423,.T.);
#880 = ORIENTED_EDGE('',*,*,#861,.T.);
#881 = CYLINDRICAL_SURFACE('',#882,1.7);
#882 = AXIS2_PLACEMENT_3D('',#883,#884,#885);
#883 = CARTESIAN_POINT('',(-64.2,11.,144.));
#884 = DIRECTION('',(0.,0.,1.));
#885 = DIRECTION('',(1.,0.,-0.));
#886 = ADVANCED_FACE('',(#887),#893,.F.);
#887 = FACE_BOUND('',#888,.F.);
#888 = EDGE_LOOP('',(#889,#890,#891,#892));
#889 = ORIENTED_EDGE('',*,*,#786,.F.);
#890 = ORIENTED_EDGE('',*,*,#485,.F.);
#891 = ORIENTED_EDGE('',*,*,#746,.T.);
#892 = ORIENTED_EDGE('',*,*,#650,.F.);
#893 = PLANE('',#894);
#894 = AXIS2_PLACEMENT_3D('',#895,#896,#897);
#895 = CARTESIAN_POINT('',(-62.5,7.5,150.));
#896 = DIRECTION('',(1.,0.,-0.));
#897 = DIRECTION('',(0.,0.,1.));
#898 = ADVANCED_FACE('',(#899,#918),#922,.F.);
#899 = FACE_BOUND('',#900,.F.);
#900 = EDGE_LOOP('',(#901,#902,#910,#917));
#901 = ORIENTED_EDGE('',*,*,#509,.F.);
#902 = ORIENTED_EDGE('',*,*,#903,.F.);
#903 = EDGE_CURVE('',#904,#510,#906,.T.);
#904 = VERTEX_POINT('',#905);
#905 = CARTESIAN_POINT('',(-19.80127865942,11.,217.1254694669));
#906 = LINE('',#907,#908);
#907 = CARTESIAN_POINT('',(-19.80127865942,11.,217.1254694669));
#908 = VECTOR('',#909,1.);
#909 = DIRECTION('',(-0.777145961457,0.,-0.62932039105));
#910 = ORIENTED_EDGE('',*,*,#911,.T.);
#911 = EDGE_CURVE('',#904,#904,#912,.T.);
#912 = CIRCLE('',#913,6.5);
#913 = AXIS2_PLACEMENT_3D('',#914,#915,#916);
#914 = CARTESIAN_POINT('',(-23.89186120124,11.,222.17691821637));
#915 = DIRECTION('',(-0.777145961457,0.,-0.62932039105));
#916 = DIRECTION('',(0.62932039105,0.,-0.777145961457));
#917 = ORIENTED_EDGE('',*,*,#903,.T.);
#918 = FACE_BOUND('',#919,.F.);
#919 = EDGE_LOOP('',(#920,#921));
#920 = ORIENTED_EDGE('',*,*,#582,.F.);
#921 = ORIENTED_EDGE('',*,*,#613,.F.);
#922 = CYLINDRICAL_SURFACE('',#923,6.5);
#923 = AXIS2_PLACEMENT_3D('',#924,#925,#926);
#924 = CARTESIAN_POINT('',(-23.89186120124,11.,222.17691821637));
#925 = DIRECTION('',(-0.777145961457,0.,-0.62932039105));
#926 = DIRECTION('',(0.62932039105,0.,-0.777145961457));
#927 = ADVANCED_FACE('',(#928),#947,.F.);
#928 = FACE_BOUND('',#929,.F.);
#929 = EDGE_LOOP('',(#930,#938,#945,#946));
#930 = ORIENTED_EDGE('',*,*,#931,.T.);
#931 = EDGE_CURVE('',#555,#932,#934,.T.);
#932 = VERTEX_POINT('',#933);
#933 = CARTESIAN_POINT('',(-21.81510391078,11.,219.61233654356));
#934 = LINE('',#935,#936);
#935 = CARTESIAN_POINT('',(-14.82079025767,11.,225.27622006301));
#936 = VECTOR('',#937,1.);
#937 = DIRECTION('',(-0.777145961457,0.,-0.62932039105));
#938 = ORIENTED_EDGE('',*,*,#939,.F.);
#939 = EDGE_CURVE('',#932,#932,#940,.T.);
#940 = CIRCLE('',#941,3.3);
#941 = AXIS2_PLACEMENT_3D('',#942,#943,#944);
#942 = CARTESIAN_POINT('',(-23.89186120124,11.,222.17691821637));
#943 = DIRECTION('',(-0.777145961457,0.,-0.62932039105));
#944 = DIRECTION('',(0.62932039105,0.,-0.777145961457));
#945 = ORIENTED_EDGE('',*,*,#931,.F.);
#946 = ORIENTED_EDGE('',*,*,#554,.T.);
#947 = CYLINDRICAL_SURFACE('',#948,3.3);
#948 = AXIS2_PLACEMENT_3D('',#949,#950,#951);
#949 = CARTESIAN_POINT('',(-16.89754754813,11.,227.84080173581));
#950 = DIRECTION('',(-0.777145961457,0.,-0.62932039105));
#951 = DIRECTION('',(0.62932039105,0.,-0.777145961457));
#952 = ADVANCED_FACE('',(#953,#956),#959,.T.);
#953 = FACE_BOUND('',#954,.T.);
#954 = EDGE_LOOP('',(#955));
#955 = ORIENTED_EDGE('',*,*,#911,.T.);
#956 = FACE_BOUND('',#957,.T.);
#957 = EDGE_LOOP('',(#958));
#958 = ORIENTED_EDGE('',*,*,#939,.F.);
#959 = PLANE('',#960);
#960 = AXIS2_PLACEMENT_3D('',#961,#962,#963);
#961 = CARTESIAN_POINT('',(-23.89186120124,11.,222.17691821637));
#962 = DIRECTION('',(-0.777145961457,0.,-0.62932039105));
#963 = DIRECTION('',(0.62932039105,0.,-0.777145961457));
#964 = ( GEOMETRIC_REPRESENTATION_CONTEXT(3) 
GLOBAL_UNCERTAINTY_ASSIGNED_CONTEXT((#968)) GLOBAL_UNIT_ASSIGNED_CONTEXT
((#965,#966,#967)) REPRESENTATION_CONTEXT('Context #1',
  '3D Context with UNIT and UNCERTAINTY') );
#965 = ( LENGTH_UNIT() NAMED_UNIT(*) SI_UNIT(.MILLI.,.METRE.) );
#966 = ( NAMED_UNIT(*) PLANE_ANGLE_UNIT() SI_UNIT($,.RADIAN.) );
#967 = ( NAMED_UNIT(*) SI_UNIT($,.STERADIAN.) SOLID_ANGLE_UNIT() );
#968 = UNCERTAINTY_MEASURE_WITH_UNIT(LENGTH_MEASURE(1.E-07),#965,
  'distance_accuracy_value','confusion accuracy');
#969 = PRODUCT_RELATED_PRODUCT_CATEGORY('part',$,(#7));
ENDSEC;
END-ISO-10303-21;
