ISO-10303-21;
HEADER;
FILE_DESCRIPTION(('FreeCAD Model'),'2;1');
FILE_NAME('Open CASCADE Shape Model','2026-10-07T11:31:25',('FreeCAD'),(
    'FreeCAD'),'Open CASCADE STEP processor 7.6','FreeCAD','Unknown');
FILE_SCHEMA(('AUTOMOTIVE_DESIGN { 1 0 10303 214 1 1 1 1 }'));
ENDSEC;
DATA;
#1 = APPLICATION_PROTOCOL_DEFINITION('international standard',
  'automotive_design',2000,#2);
#2 = APPLICATION_CONTEXT(
  'core data for automotive mechanical design processes');
#3 = SHAPE_DEFINITION_REPRESENTATION(#4,#10);
#4 = PRODUCT_DEFINITION_SHAPE('','',#5);
#5 = PRODUCT_DEFINITION('design','',#6,#9);
#6 = PRODUCT_DEFINITION_FORMATION('','',#7);
#7 = PRODUCT('Open CASCADE STEP translator 7.6 4',
  'Open CASCADE STEP translator 7.6 4','',(#8));
#8 = PRODUCT_CONTEXT('',#2,'mechanical');
#9 = PRODUCT_DEFINITION_CONTEXT('part definition',#2,'design');
#10 = ADVANCED_BREP_SHAPE_REPRESENTATION('',(#11,#15),#751);
#11 = AXIS2_PLACEMENT_3D('',#12,#13,#14);
#12 = CARTESIAN_POINT('',(0.,0.,0.));
#13 = DIRECTION('',(0.,0.,1.));
#14 = DIRECTION('',(1.,0.,-0.));
#15 = MANIFOLD_SOLID_BREP('',#16);
#16 = CLOSED_SHELL('',(#17,#57,#88,#112,#136,#153,#307,#338,#362,#393,
    #410,#484,#506,#528,#545,#557,#574,#586,#603,#615,#640,#649,#674,
    #683,#708,#717,#742));
#17 = ADVANCED_FACE('',(#18),#52,.F.);
#18 = FACE_BOUND('',#19,.F.);
#19 = EDGE_LOOP('',(#20,#30,#38,#46));
#20 = ORIENTED_EDGE('',*,*,#21,.F.);
#21 = EDGE_CURVE('',#22,#24,#26,.T.);
#22 = VERTEX_POINT('',#23);
#23 = CARTESIAN_POINT('',(-45.,40.,14.));
#24 = VERTEX_POINT('',#25);
#25 = CARTESIAN_POINT('',(-45.,40.,0.));
#26 = LINE('',#27,#28);
#27 = CARTESIAN_POINT('',(-45.,40.,14.));
#28 = VECTOR('',#29,1.);
#29 = DIRECTION('',(0.,-1.224646799147E-16,-1.));
#30 = ORIENTED_EDGE('',*,*,#31,.T.);
#31 = EDGE_CURVE('',#22,#32,#34,.T.);
#32 = VERTEX_POINT('',#33);
#33 = CARTESIAN_POINT('',(-45.,0.,14.));
#34 = LINE('',#35,#36);
#35 = CARTESIAN_POINT('',(-45.,40.,14.));
#36 = VECTOR('',#37,1.);
#37 = DIRECTION('',(0.,-1.,1.224646799147E-16));
#38 = ORIENTED_EDGE('',*,*,#39,.T.);
#39 = EDGE_CURVE('',#32,#40,#42,.T.);
#40 = VERTEX_POINT('',#41);
#41 = CARTESIAN_POINT('',(-45.,0.,5.329070518201E-15));
#42 = LINE('',#43,#44);
#43 = CARTESIAN_POINT('',(-45.,0.,14.));
#44 = VECTOR('',#45,1.);
#45 = DIRECTION('',(0.,-1.224646799147E-16,-1.));
#46 = ORIENTED_EDGE('',*,*,#47,.F.);
#47 = EDGE_CURVE('',#24,#40,#48,.T.);
#48 = LINE('',#49,#50);
#49 = CARTESIAN_POINT('',(-45.,40.,0.));
#50 = VECTOR('',#51,1.);
#51 = DIRECTION('',(0.,-1.,1.224646799147E-16));
#52 = PLANE('',#53);
#53 = AXIS2_PLACEMENT_3D('',#54,#55,#56);
#54 = CARTESIAN_POINT('',(-45.,40.,14.));
#55 = DIRECTION('',(1.,0.,0.));
#56 = DIRECTION('',(0.,-1.224646799147E-16,-1.));
#57 = ADVANCED_FACE('',(#58),#83,.F.);
#58 = FACE_BOUND('',#59,.F.);
#59 = EDGE_LOOP('',(#60,#68,#69,#77));
#60 = ORIENTED_EDGE('',*,*,#61,.F.);
#61 = EDGE_CURVE('',#22,#62,#64,.T.);
#62 = VERTEX_POINT('',#63);
#63 = CARTESIAN_POINT('',(45.,40.,14.));
#64 = LINE('',#65,#66);
#65 = CARTESIAN_POINT('',(-45.,40.,14.));
#66 = VECTOR('',#67,1.);
#67 = DIRECTION('',(1.,0.,0.));
#68 = ORIENTED_EDGE('',*,*,#21,.T.);
#69 = ORIENTED_EDGE('',*,*,#70,.T.);
#70 = EDGE_CURVE('',#24,#71,#73,.T.);
#71 = VERTEX_POINT('',#72);
#72 = CARTESIAN_POINT('',(45.,40.,0.));
#73 = LINE('',#74,#75);
#74 = CARTESIAN_POINT('',(-45.,40.,0.));
#75 = VECTOR('',#76,1.);
#76 = DIRECTION('',(1.,0.,0.));
#77 = ORIENTED_EDGE('',*,*,#78,.F.);
#78 = EDGE_CURVE('',#62,#71,#79,.T.);
#79 = LINE('',#80,#81);
#80 = CARTESIAN_POINT('',(45.,40.,14.));
#81 = VECTOR('',#82,1.);
#82 = DIRECTION('',(0.,-1.224646799147E-16,-1.));
#83 = PLANE('',#84);
#84 = AXIS2_PLACEMENT_3D('',#85,#86,#87);
#85 = CARTESIAN_POINT('',(-45.,40.,14.));
#86 = DIRECTION('',(0.,-1.,1.224646799147E-16));
#87 = DIRECTION('',(0.,-1.224646799147E-16,-1.));
#88 = ADVANCED_FACE('',(#89),#107,.T.);
#89 = FACE_BOUND('',#90,.T.);
#90 = EDGE_LOOP('',(#91,#92,#93,#101));
#91 = ORIENTED_EDGE('',*,*,#47,.F.);
#92 = ORIENTED_EDGE('',*,*,#70,.T.);
#93 = ORIENTED_EDGE('',*,*,#94,.T.);
#94 = EDGE_CURVE('',#71,#95,#97,.T.);
#95 = VERTEX_POINT('',#96);
#96 = CARTESIAN_POINT('',(45.,0.,5.329070518201E-15));
#97 = LINE('',#98,#99);
#98 = CARTESIAN_POINT('',(45.,40.,0.));
#99 = VECTOR('',#100,1.);
#100 = DIRECTION('',(0.,-1.,1.224646799147E-16));
#101 = ORIENTED_EDGE('',*,*,#102,.F.);
#102 = EDGE_CURVE('',#40,#95,#103,.T.);
#103 = LINE('',#104,#105);
#104 = CARTESIAN_POINT('',(-45.,0.,5.329070518201E-15));
#105 = VECTOR('',#106,1.);
#106 = DIRECTION('',(1.,0.,0.));
#107 = PLANE('',#108);
#108 = AXIS2_PLACEMENT_3D('',#109,#110,#111);
#109 = CARTESIAN_POINT('',(-45.,40.,0.));
#110 = DIRECTION('',(0.,-1.224646799147E-16,-1.));
#111 = DIRECTION('',(1.,0.,0.));
#112 = ADVANCED_FACE('',(#113),#131,.T.);
#113 = FACE_BOUND('',#114,.T.);
#114 = EDGE_LOOP('',(#115,#123,#124,#125));
#115 = ORIENTED_EDGE('',*,*,#116,.F.);
#116 = EDGE_CURVE('',#32,#117,#119,.T.);
#117 = VERTEX_POINT('',#118);
#118 = CARTESIAN_POINT('',(45.,0.,14.));
#119 = LINE('',#120,#121);
#120 = CARTESIAN_POINT('',(-45.,0.,14.));
#121 = VECTOR('',#122,1.);
#122 = DIRECTION('',(1.,0.,0.));
#123 = ORIENTED_EDGE('',*,*,#39,.T.);
#124 = ORIENTED_EDGE('',*,*,#102,.T.);
#125 = ORIENTED_EDGE('',*,*,#126,.F.);
#126 = EDGE_CURVE('',#117,#95,#127,.T.);
#127 = LINE('',#128,#129);
#128 = CARTESIAN_POINT('',(45.,0.,14.));
#129 = VECTOR('',#130,1.);
#130 = DIRECTION('',(0.,-1.224646799147E-16,-1.));
#131 = PLANE('',#132);
#132 = AXIS2_PLACEMENT_3D('',#133,#134,#135);
#133 = CARTESIAN_POINT('',(-45.,0.,14.));
#134 = DIRECTION('',(0.,-1.,1.224646799147E-16));
#135 = DIRECTION('',(0.,-1.224646799147E-16,-1.));
#136 = ADVANCED_FACE('',(#137),#148,.T.);
#137 = FACE_BOUND('',#138,.T.);
#138 = EDGE_LOOP('',(#139,#140,#146,#147));
#139 = ORIENTED_EDGE('',*,*,#78,.F.);
#140 = ORIENTED_EDGE('',*,*,#141,.T.);
#141 = EDGE_CURVE('',#62,#117,#142,.T.);
#142 = LINE('',#143,#144);
#143 = CARTESIAN_POINT('',(45.,40.,14.));
#144 = VECTOR('',#145,1.);
#145 = DIRECTION('',(0.,-1.,1.224646799147E-16));
#146 = ORIENTED_EDGE('',*,*,#126,.T.);
#147 = ORIENTED_EDGE('',*,*,#94,.F.);
#148 = PLANE('',#149);
#149 = AXIS2_PLACEMENT_3D('',#150,#151,#152);
#150 = CARTESIAN_POINT('',(45.,40.,14.));
#151 = DIRECTION('',(1.,0.,0.));
#152 = DIRECTION('',(0.,-1.224646799147E-16,-1.));
#153 = ADVANCED_FACE('',(#154,#160,#258,#269,#280,#291),#302,.F.);
#154 = FACE_BOUND('',#155,.T.);
#155 = EDGE_LOOP('',(#156,#157,#158,#159));
#156 = ORIENTED_EDGE('',*,*,#31,.T.);
#157 = ORIENTED_EDGE('',*,*,#116,.T.);
#158 = ORIENTED_EDGE('',*,*,#141,.F.);
#159 = ORIENTED_EDGE('',*,*,#61,.F.);
#160 = FACE_BOUND('',#161,.F.);
#161 = EDGE_LOOP('',(#162,#172,#180,#188,#196,#204,#212,#220,#228,#236,
    #244,#252));
#162 = ORIENTED_EDGE('',*,*,#163,.T.);
#163 = EDGE_CURVE('',#164,#166,#168,.T.);
#164 = VERTEX_POINT('',#165);
#165 = CARTESIAN_POINT('',(-42.6,8.4,14.));
#166 = VERTEX_POINT('',#167);
#167 = CARTESIAN_POINT('',(-36.6,8.4,14.));
#168 = LINE('',#169,#170);
#169 = CARTESIAN_POINT('',(-42.6,8.4,14.));
#170 = VECTOR('',#171,1.);
#171 = DIRECTION('',(1.,0.,0.));
#172 = ORIENTED_EDGE('',*,*,#173,.T.);
#173 = EDGE_CURVE('',#166,#174,#176,.T.);
#174 = VERTEX_POINT('',#175);
#175 = CARTESIAN_POINT('',(-36.6,2.4,14.));
#176 = LINE('',#177,#178);
#177 = CARTESIAN_POINT('',(-36.6,8.4,14.));
#178 = VECTOR('',#179,1.);
#179 = DIRECTION('',(0.,-1.,1.224646799147E-16));
#180 = ORIENTED_EDGE('',*,*,#181,.T.);
#181 = EDGE_CURVE('',#174,#182,#184,.T.);
#182 = VERTEX_POINT('',#183);
#183 = CARTESIAN_POINT('',(36.6,2.4,14.));
#184 = LINE('',#185,#186);
#185 = CARTESIAN_POINT('',(-42.6,2.4,14.));
#186 = VECTOR('',#187,1.);
#187 = DIRECTION('',(1.,0.,0.));
#188 = ORIENTED_EDGE('',*,*,#189,.F.);
#189 = EDGE_CURVE('',#190,#182,#192,.T.);
#190 = VERTEX_POINT('',#191);
#191 = CARTESIAN_POINT('',(36.6,8.4,14.));
#192 = LINE('',#193,#194);
#193 = CARTESIAN_POINT('',(36.6,8.4,14.));
#194 = VECTOR('',#195,1.);
#195 = DIRECTION('',(0.,-1.,1.224646799147E-16));
#196 = ORIENTED_EDGE('',*,*,#197,.T.);
#197 = EDGE_CURVE('',#190,#198,#200,.T.);
#198 = VERTEX_POINT('',#199);
#199 = CARTESIAN_POINT('',(42.6,8.4,14.));
#200 = LINE('',#201,#202);
#201 = CARTESIAN_POINT('',(36.6,8.4,14.));
#202 = VECTOR('',#203,1.);
#203 = DIRECTION('',(1.,0.,0.));
#204 = ORIENTED_EDGE('',*,*,#205,.F.);
#205 = EDGE_CURVE('',#206,#198,#208,.T.);
#206 = VERTEX_POINT('',#207);
#207 = CARTESIAN_POINT('',(42.6,31.6,14.));
#208 = LINE('',#209,#210);
#209 = CARTESIAN_POINT('',(42.6,37.6,14.));
#210 = VECTOR('',#211,1.);
#211 = DIRECTION('',(0.,-1.,1.224646799147E-16));
#212 = ORIENTED_EDGE('',*,*,#213,.F.);
#213 = EDGE_CURVE('',#214,#206,#216,.T.);
#214 = VERTEX_POINT('',#215);
#215 = CARTESIAN_POINT('',(36.6,31.6,14.));
#216 = LINE('',#217,#218);
#217 = CARTESIAN_POINT('',(36.6,31.6,14.));
#218 = VECTOR('',#219,1.);
#219 = DIRECTION('',(1.,0.,0.));
#220 = ORIENTED_EDGE('',*,*,#221,.F.);
#221 = EDGE_CURVE('',#222,#214,#224,.T.);
#222 = VERTEX_POINT('',#223);
#223 = CARTESIAN_POINT('',(36.6,37.6,14.));
#224 = LINE('',#225,#226);
#225 = CARTESIAN_POINT('',(36.6,37.6,14.));
#226 = VECTOR('',#227,1.);
#227 = DIRECTION('',(0.,-1.,1.224646799147E-16));
#228 = ORIENTED_EDGE('',*,*,#229,.F.);
#229 = EDGE_CURVE('',#230,#222,#232,.T.);
#230 = VERTEX_POINT('',#231);
#231 = CARTESIAN_POINT('',(-36.6,37.6,14.));
#232 = LINE('',#233,#234);
#233 = CARTESIAN_POINT('',(-42.6,37.6,14.));
#234 = VECTOR('',#235,1.);
#235 = DIRECTION('',(1.,0.,0.));
#236 = ORIENTED_EDGE('',*,*,#237,.T.);
#237 = EDGE_CURVE('',#230,#238,#240,.T.);
#238 = VERTEX_POINT('',#239);
#239 = CARTESIAN_POINT('',(-36.6,31.6,14.));
#240 = LINE('',#241,#242);
#241 = CARTESIAN_POINT('',(-36.6,37.6,14.));
#242 = VECTOR('',#243,1.);
#243 = DIRECTION('',(0.,-1.,1.224646799147E-16));
#244 = ORIENTED_EDGE('',*,*,#245,.F.);
#245 = EDGE_CURVE('',#246,#238,#248,.T.);
#246 = VERTEX_POINT('',#247);
#247 = CARTESIAN_POINT('',(-42.6,31.6,14.));
#248 = LINE('',#249,#250);
#249 = CARTESIAN_POINT('',(-42.6,31.6,14.));
#250 = VECTOR('',#251,1.);
#251 = DIRECTION('',(1.,0.,0.));
#252 = ORIENTED_EDGE('',*,*,#253,.T.);
#253 = EDGE_CURVE('',#246,#164,#254,.T.);
#254 = LINE('',#255,#256);
#255 = CARTESIAN_POINT('',(-42.6,37.6,14.));
#256 = VECTOR('',#257,1.);
#257 = DIRECTION('',(0.,-1.,1.224646799147E-16));
#258 = FACE_BOUND('',#259,.F.);
#259 = EDGE_LOOP('',(#260));
#260 = ORIENTED_EDGE('',*,*,#261,.F.);
#261 = EDGE_CURVE('',#262,#262,#264,.T.);
#262 = VERTEX_POINT('',#263);
#263 = CARTESIAN_POINT('',(-38.15,5.4,14.));
#264 = CIRCLE('',#265,1.45);
#265 = AXIS2_PLACEMENT_3D('',#266,#267,#268);
#266 = CARTESIAN_POINT('',(-39.6,5.4,14.));
#267 = DIRECTION('',(0.,-1.224646799147E-16,-1.));
#268 = DIRECTION('',(1.,0.,0.));
#269 = FACE_BOUND('',#270,.F.);
#270 = EDGE_LOOP('',(#271));
#271 = ORIENTED_EDGE('',*,*,#272,.F.);
#272 = EDGE_CURVE('',#273,#273,#275,.T.);
#273 = VERTEX_POINT('',#274);
#274 = CARTESIAN_POINT('',(41.05,5.4,14.));
#275 = CIRCLE('',#276,1.45);
#276 = AXIS2_PLACEMENT_3D('',#277,#278,#279);
#277 = CARTESIAN_POINT('',(39.6,5.4,14.));
#278 = DIRECTION('',(0.,-1.224646799147E-16,-1.));
#279 = DIRECTION('',(1.,0.,0.));
#280 = FACE_BOUND('',#281,.F.);
#281 = EDGE_LOOP('',(#282));
#282 = ORIENTED_EDGE('',*,*,#283,.F.);
#283 = EDGE_CURVE('',#284,#284,#286,.T.);
#284 = VERTEX_POINT('',#285);
#285 = CARTESIAN_POINT('',(-38.15,34.6,14.));
#286 = CIRCLE('',#287,1.45);
#287 = AXIS2_PLACEMENT_3D('',#288,#289,#290);
#288 = CARTESIAN_POINT('',(-39.6,34.6,14.));
#289 = DIRECTION('',(0.,-1.224646799147E-16,-1.));
#290 = DIRECTION('',(1.,0.,0.));
#291 = FACE_BOUND('',#292,.F.);
#292 = EDGE_LOOP('',(#293));
#293 = ORIENTED_EDGE('',*,*,#294,.F.);
#294 = EDGE_CURVE('',#295,#295,#297,.T.);
#295 = VERTEX_POINT('',#296);
#296 = CARTESIAN_POINT('',(41.05,34.6,14.));
#297 = CIRCLE('',#298,1.45);
#298 = AXIS2_PLACEMENT_3D('',#299,#300,#301);
#299 = CARTESIAN_POINT('',(39.6,34.6,14.));
#300 = DIRECTION('',(0.,-1.224646799147E-16,-1.));
#301 = DIRECTION('',(1.,0.,0.));
#302 = PLANE('',#303);
#303 = AXIS2_PLACEMENT_3D('',#304,#305,#306);
#304 = CARTESIAN_POINT('',(-45.,40.,14.));
#305 = DIRECTION('',(0.,-1.224646799147E-16,-1.));
#306 = DIRECTION('',(1.,0.,0.));
#307 = ADVANCED_FACE('',(#308),#333,.T.);
#308 = FACE_BOUND('',#309,.T.);
#309 = EDGE_LOOP('',(#310,#311,#319,#327));
#310 = ORIENTED_EDGE('',*,*,#229,.F.);
#311 = ORIENTED_EDGE('',*,*,#312,.T.);
#312 = EDGE_CURVE('',#230,#313,#315,.T.);
#313 = VERTEX_POINT('',#314);
#314 = CARTESIAN_POINT('',(-36.6,37.6,2.4));
#315 = LINE('',#316,#317);
#316 = CARTESIAN_POINT('',(-36.6,37.6,14.));
#317 = VECTOR('',#318,1.);
#318 = DIRECTION('',(0.,-1.224646799147E-16,-1.));
#319 = ORIENTED_EDGE('',*,*,#320,.T.);
#320 = EDGE_CURVE('',#313,#321,#323,.T.);
#321 = VERTEX_POINT('',#322);
#322 = CARTESIAN_POINT('',(36.6,37.6,2.4));
#323 = LINE('',#324,#325);
#324 = CARTESIAN_POINT('',(-42.6,37.6,2.4));
#325 = VECTOR('',#326,1.);
#326 = DIRECTION('',(1.,0.,0.));
#327 = ORIENTED_EDGE('',*,*,#328,.F.);
#328 = EDGE_CURVE('',#222,#321,#329,.T.);
#329 = LINE('',#330,#331);
#330 = CARTESIAN_POINT('',(36.6,37.6,14.));
#331 = VECTOR('',#332,1.);
#332 = DIRECTION('',(0.,-1.224646799147E-16,-1.));
#333 = PLANE('',#334);
#334 = AXIS2_PLACEMENT_3D('',#335,#336,#337);
#335 = CARTESIAN_POINT('',(-42.6,37.6,14.));
#336 = DIRECTION('',(0.,-1.,1.224646799147E-16));
#337 = DIRECTION('',(0.,-1.224646799147E-16,-1.));
#338 = ADVANCED_FACE('',(#339),#357,.T.);
#339 = FACE_BOUND('',#340,.T.);
#340 = EDGE_LOOP('',(#341,#342,#343,#351));
#341 = ORIENTED_EDGE('',*,*,#312,.F.);
#342 = ORIENTED_EDGE('',*,*,#237,.T.);
#343 = ORIENTED_EDGE('',*,*,#344,.T.);
#344 = EDGE_CURVE('',#238,#345,#347,.T.);
#345 = VERTEX_POINT('',#346);
#346 = CARTESIAN_POINT('',(-36.6,31.6,2.4));
#347 = LINE('',#348,#349);
#348 = CARTESIAN_POINT('',(-36.6,31.6,14.));
#349 = VECTOR('',#350,1.);
#350 = DIRECTION('',(0.,-1.224646799147E-16,-1.));
#351 = ORIENTED_EDGE('',*,*,#352,.F.);
#352 = EDGE_CURVE('',#313,#345,#353,.T.);
#353 = LINE('',#354,#355);
#354 = CARTESIAN_POINT('',(-36.6,37.6,2.4));
#355 = VECTOR('',#356,1.);
#356 = DIRECTION('',(0.,-1.,1.224646799147E-16));
#357 = PLANE('',#358);
#358 = AXIS2_PLACEMENT_3D('',#359,#360,#361);
#359 = CARTESIAN_POINT('',(-36.6,37.6,14.));
#360 = DIRECTION('',(1.,0.,0.));
#361 = DIRECTION('',(0.,-1.224646799147E-16,-1.));
#362 = ADVANCED_FACE('',(#363),#388,.T.);
#363 = FACE_BOUND('',#364,.T.);
#364 = EDGE_LOOP('',(#365,#373,#374,#382));
#365 = ORIENTED_EDGE('',*,*,#366,.F.);
#366 = EDGE_CURVE('',#246,#367,#369,.T.);
#367 = VERTEX_POINT('',#368);
#368 = CARTESIAN_POINT('',(-42.6,31.6,2.4));
#369 = LINE('',#370,#371);
#370 = CARTESIAN_POINT('',(-42.6,31.6,14.));
#371 = VECTOR('',#372,1.);
#372 = DIRECTION('',(0.,-1.224646799147E-16,-1.));
#373 = ORIENTED_EDGE('',*,*,#253,.T.);
#374 = ORIENTED_EDGE('',*,*,#375,.T.);
#375 = EDGE_CURVE('',#164,#376,#378,.T.);
#376 = VERTEX_POINT('',#377);
#377 = CARTESIAN_POINT('',(-42.6,8.4,2.4));
#378 = LINE('',#379,#380);
#379 = CARTESIAN_POINT('',(-42.6,8.4,14.));
#380 = VECTOR('',#381,1.);
#381 = DIRECTION('',(0.,-1.224646799147E-16,-1.));
#382 = ORIENTED_EDGE('',*,*,#383,.F.);
#383 = EDGE_CURVE('',#367,#376,#384,.T.);
#384 = LINE('',#385,#386);
#385 = CARTESIAN_POINT('',(-42.6,37.6,2.4));
#386 = VECTOR('',#387,1.);
#387 = DIRECTION('',(0.,-1.,1.224646799147E-16));
#388 = PLANE('',#389);
#389 = AXIS2_PLACEMENT_3D('',#390,#391,#392);
#390 = CARTESIAN_POINT('',(-42.6,37.6,14.));
#391 = DIRECTION('',(1.,0.,0.));
#392 = DIRECTION('',(0.,-1.224646799147E-16,-1.));
#393 = ADVANCED_FACE('',(#394),#405,.T.);
#394 = FACE_BOUND('',#395,.T.);
#395 = EDGE_LOOP('',(#396,#397,#398,#404));
#396 = ORIENTED_EDGE('',*,*,#245,.F.);
#397 = ORIENTED_EDGE('',*,*,#366,.T.);
#398 = ORIENTED_EDGE('',*,*,#399,.T.);
#399 = EDGE_CURVE('',#367,#345,#400,.T.);
#400 = LINE('',#401,#402);
#401 = CARTESIAN_POINT('',(-42.6,31.6,2.4));
#402 = VECTOR('',#403,1.);
#403 = DIRECTION('',(1.,0.,0.));
#404 = ORIENTED_EDGE('',*,*,#344,.F.);
#405 = PLANE('',#406);
#406 = AXIS2_PLACEMENT_3D('',#407,#408,#409);
#407 = CARTESIAN_POINT('',(-42.6,31.6,14.));
#408 = DIRECTION('',(0.,-1.,1.224646799147E-16));
#409 = DIRECTION('',(0.,-1.224646799147E-16,-1.));
#410 = ADVANCED_FACE('',(#411),#479,.F.);
#411 = FACE_BOUND('',#412,.F.);
#412 = EDGE_LOOP('',(#413,#414,#415,#416,#417,#425,#433,#441,#449,#457,
    #465,#473));
#413 = ORIENTED_EDGE('',*,*,#383,.F.);
#414 = ORIENTED_EDGE('',*,*,#399,.T.);
#415 = ORIENTED_EDGE('',*,*,#352,.F.);
#416 = ORIENTED_EDGE('',*,*,#320,.T.);
#417 = ORIENTED_EDGE('',*,*,#418,.T.);
#418 = EDGE_CURVE('',#321,#419,#421,.T.);
#419 = VERTEX_POINT('',#420);
#420 = CARTESIAN_POINT('',(36.6,31.6,2.4));
#421 = LINE('',#422,#423);
#422 = CARTESIAN_POINT('',(36.6,37.6,2.4));
#423 = VECTOR('',#424,1.);
#424 = DIRECTION('',(0.,-1.,1.224646799147E-16));
#425 = ORIENTED_EDGE('',*,*,#426,.T.);
#426 = EDGE_CURVE('',#419,#427,#429,.T.);
#427 = VERTEX_POINT('',#428);
#428 = CARTESIAN_POINT('',(42.6,31.6,2.4));
#429 = LINE('',#430,#431);
#430 = CARTESIAN_POINT('',(36.6,31.6,2.4));
#431 = VECTOR('',#432,1.);
#432 = DIRECTION('',(1.,0.,0.));
#433 = ORIENTED_EDGE('',*,*,#434,.T.);
#434 = EDGE_CURVE('',#427,#435,#437,.T.);
#435 = VERTEX_POINT('',#436);
#436 = CARTESIAN_POINT('',(42.6,8.4,2.4));
#437 = LINE('',#438,#439);
#438 = CARTESIAN_POINT('',(42.6,37.6,2.4));
#439 = VECTOR('',#440,1.);
#440 = DIRECTION('',(0.,-1.,1.224646799147E-16));
#441 = ORIENTED_EDGE('',*,*,#442,.F.);
#442 = EDGE_CURVE('',#443,#435,#445,.T.);
#443 = VERTEX_POINT('',#444);
#444 = CARTESIAN_POINT('',(36.6,8.4,2.4));
#445 = LINE('',#446,#447);
#446 = CARTESIAN_POINT('',(36.6,8.4,2.4));
#447 = VECTOR('',#448,1.);
#448 = DIRECTION('',(1.,0.,0.));
#449 = ORIENTED_EDGE('',*,*,#450,.T.);
#450 = EDGE_CURVE('',#443,#451,#453,.T.);
#451 = VERTEX_POINT('',#452);
#452 = CARTESIAN_POINT('',(36.6,2.4,2.4));
#453 = LINE('',#454,#455);
#454 = CARTESIAN_POINT('',(36.6,8.4,2.4));
#455 = VECTOR('',#456,1.);
#456 = DIRECTION('',(0.,-1.,1.224646799147E-16));
#457 = ORIENTED_EDGE('',*,*,#458,.F.);
#458 = EDGE_CURVE('',#459,#451,#461,.T.);
#459 = VERTEX_POINT('',#460);
#460 = CARTESIAN_POINT('',(-36.6,2.4,2.4));
#461 = LINE('',#462,#463);
#462 = CARTESIAN_POINT('',(-42.6,2.4,2.4));
#463 = VECTOR('',#464,1.);
#464 = DIRECTION('',(1.,0.,0.));
#465 = ORIENTED_EDGE('',*,*,#466,.F.);
#466 = EDGE_CURVE('',#467,#459,#469,.T.);
#467 = VERTEX_POINT('',#468);
#468 = CARTESIAN_POINT('',(-36.6,8.4,2.4));
#469 = LINE('',#470,#471);
#470 = CARTESIAN_POINT('',(-36.6,8.4,2.4));
#471 = VECTOR('',#472,1.);
#472 = DIRECTION('',(0.,-1.,1.224646799147E-16));
#473 = ORIENTED_EDGE('',*,*,#474,.F.);
#474 = EDGE_CURVE('',#376,#467,#475,.T.);
#475 = LINE('',#476,#477);
#476 = CARTESIAN_POINT('',(-42.6,8.4,2.4));
#477 = VECTOR('',#478,1.);
#478 = DIRECTION('',(1.,0.,0.));
#479 = PLANE('',#480);
#480 = AXIS2_PLACEMENT_3D('',#481,#482,#483);
#481 = CARTESIAN_POINT('',(-42.6,37.6,2.4));
#482 = DIRECTION('',(0.,-1.224646799147E-16,-1.));
#483 = DIRECTION('',(1.,0.,0.));
#484 = ADVANCED_FACE('',(#485),#501,.F.);
#485 = FACE_BOUND('',#486,.F.);
#486 = EDGE_LOOP('',(#487,#488,#494,#495));
#487 = ORIENTED_EDGE('',*,*,#181,.F.);
#488 = ORIENTED_EDGE('',*,*,#489,.T.);
#489 = EDGE_CURVE('',#174,#459,#490,.T.);
#490 = LINE('',#491,#492);
#491 = CARTESIAN_POINT('',(-36.6,2.4,14.));
#492 = VECTOR('',#493,1.);
#493 = DIRECTION('',(0.,-1.224646799147E-16,-1.));
#494 = ORIENTED_EDGE('',*,*,#458,.T.);
#495 = ORIENTED_EDGE('',*,*,#496,.F.);
#496 = EDGE_CURVE('',#182,#451,#497,.T.);
#497 = LINE('',#498,#499);
#498 = CARTESIAN_POINT('',(36.6,2.4,14.));
#499 = VECTOR('',#500,1.);
#500 = DIRECTION('',(0.,-1.224646799147E-16,-1.));
#501 = PLANE('',#502);
#502 = AXIS2_PLACEMENT_3D('',#503,#504,#505);
#503 = CARTESIAN_POINT('',(-42.6,2.4,14.));
#504 = DIRECTION('',(0.,-1.,1.224646799147E-16));
#505 = DIRECTION('',(0.,-1.224646799147E-16,-1.));
#506 = ADVANCED_FACE('',(#507),#523,.F.);
#507 = FACE_BOUND('',#508,.F.);
#508 = EDGE_LOOP('',(#509,#515,#516,#522));
#509 = ORIENTED_EDGE('',*,*,#510,.F.);
#510 = EDGE_CURVE('',#206,#427,#511,.T.);
#511 = LINE('',#512,#513);
#512 = CARTESIAN_POINT('',(42.6,31.6,14.));
#513 = VECTOR('',#514,1.);
#514 = DIRECTION('',(0.,-1.224646799147E-16,-1.));
#515 = ORIENTED_EDGE('',*,*,#205,.T.);
#516 = ORIENTED_EDGE('',*,*,#517,.T.);
#517 = EDGE_CURVE('',#198,#435,#518,.T.);
#518 = LINE('',#519,#520);
#519 = CARTESIAN_POINT('',(42.6,8.4,14.));
#520 = VECTOR('',#521,1.);
#521 = DIRECTION('',(0.,-1.224646799147E-16,-1.));
#522 = ORIENTED_EDGE('',*,*,#434,.F.);
#523 = PLANE('',#524);
#524 = AXIS2_PLACEMENT_3D('',#525,#526,#527);
#525 = CARTESIAN_POINT('',(42.6,37.6,14.));
#526 = DIRECTION('',(1.,0.,0.));
#527 = DIRECTION('',(0.,-1.224646799147E-16,-1.));
#528 = ADVANCED_FACE('',(#529),#540,.F.);
#529 = FACE_BOUND('',#530,.F.);
#530 = EDGE_LOOP('',(#531,#532,#533,#534));
#531 = ORIENTED_EDGE('',*,*,#163,.F.);
#532 = ORIENTED_EDGE('',*,*,#375,.T.);
#533 = ORIENTED_EDGE('',*,*,#474,.T.);
#534 = ORIENTED_EDGE('',*,*,#535,.F.);
#535 = EDGE_CURVE('',#166,#467,#536,.T.);
#536 = LINE('',#537,#538);
#537 = CARTESIAN_POINT('',(-36.6,8.4,14.));
#538 = VECTOR('',#539,1.);
#539 = DIRECTION('',(0.,-1.224646799147E-16,-1.));
#540 = PLANE('',#541);
#541 = AXIS2_PLACEMENT_3D('',#542,#543,#544);
#542 = CARTESIAN_POINT('',(-42.6,8.4,14.));
#543 = DIRECTION('',(0.,-1.,1.224646799147E-16));
#544 = DIRECTION('',(0.,-1.224646799147E-16,-1.));
#545 = ADVANCED_FACE('',(#546),#552,.T.);
#546 = FACE_BOUND('',#547,.T.);
#547 = EDGE_LOOP('',(#548,#549,#550,#551));
#548 = ORIENTED_EDGE('',*,*,#535,.F.);
#549 = ORIENTED_EDGE('',*,*,#173,.T.);
#550 = ORIENTED_EDGE('',*,*,#489,.T.);
#551 = ORIENTED_EDGE('',*,*,#466,.F.);
#552 = PLANE('',#553);
#553 = AXIS2_PLACEMENT_3D('',#554,#555,#556);
#554 = CARTESIAN_POINT('',(-36.6,8.4,14.));
#555 = DIRECTION('',(1.,0.,0.));
#556 = DIRECTION('',(0.,-1.224646799147E-16,-1.));
#557 = ADVANCED_FACE('',(#558),#569,.F.);
#558 = FACE_BOUND('',#559,.F.);
#559 = EDGE_LOOP('',(#560,#561,#562,#568));
#560 = ORIENTED_EDGE('',*,*,#328,.F.);
#561 = ORIENTED_EDGE('',*,*,#221,.T.);
#562 = ORIENTED_EDGE('',*,*,#563,.T.);
#563 = EDGE_CURVE('',#214,#419,#564,.T.);
#564 = LINE('',#565,#566);
#565 = CARTESIAN_POINT('',(36.6,31.6,14.));
#566 = VECTOR('',#567,1.);
#567 = DIRECTION('',(0.,-1.224646799147E-16,-1.));
#568 = ORIENTED_EDGE('',*,*,#418,.F.);
#569 = PLANE('',#570);
#570 = AXIS2_PLACEMENT_3D('',#571,#572,#573);
#571 = CARTESIAN_POINT('',(36.6,37.6,14.));
#572 = DIRECTION('',(1.,0.,0.));
#573 = DIRECTION('',(0.,-1.224646799147E-16,-1.));
#574 = ADVANCED_FACE('',(#575),#581,.T.);
#575 = FACE_BOUND('',#576,.T.);
#576 = EDGE_LOOP('',(#577,#578,#579,#580));
#577 = ORIENTED_EDGE('',*,*,#213,.F.);
#578 = ORIENTED_EDGE('',*,*,#563,.T.);
#579 = ORIENTED_EDGE('',*,*,#426,.T.);
#580 = ORIENTED_EDGE('',*,*,#510,.F.);
#581 = PLANE('',#582);
#582 = AXIS2_PLACEMENT_3D('',#583,#584,#585);
#583 = CARTESIAN_POINT('',(36.6,31.6,14.));
#584 = DIRECTION('',(0.,-1.,1.224646799147E-16));
#585 = DIRECTION('',(0.,-1.224646799147E-16,-1.));
#586 = ADVANCED_FACE('',(#587),#598,.F.);
#587 = FACE_BOUND('',#588,.F.);
#588 = EDGE_LOOP('',(#589,#590,#596,#597));
#589 = ORIENTED_EDGE('',*,*,#197,.F.);
#590 = ORIENTED_EDGE('',*,*,#591,.T.);
#591 = EDGE_CURVE('',#190,#443,#592,.T.);
#592 = LINE('',#593,#594);
#593 = CARTESIAN_POINT('',(36.6,8.4,14.));
#594 = VECTOR('',#595,1.);
#595 = DIRECTION('',(0.,-1.224646799147E-16,-1.));
#596 = ORIENTED_EDGE('',*,*,#442,.T.);
#597 = ORIENTED_EDGE('',*,*,#517,.F.);
#598 = PLANE('',#599);
#599 = AXIS2_PLACEMENT_3D('',#600,#601,#602);
#600 = CARTESIAN_POINT('',(36.6,8.4,14.));
#601 = DIRECTION('',(0.,-1.,1.224646799147E-16));
#602 = DIRECTION('',(0.,-1.224646799147E-16,-1.));
#603 = ADVANCED_FACE('',(#604),#610,.F.);
#604 = FACE_BOUND('',#605,.F.);
#605 = EDGE_LOOP('',(#606,#607,#608,#609));
#606 = ORIENTED_EDGE('',*,*,#591,.F.);
#607 = ORIENTED_EDGE('',*,*,#189,.T.);
#608 = ORIENTED_EDGE('',*,*,#496,.T.);
#609 = ORIENTED_EDGE('',*,*,#450,.F.);
#610 = PLANE('',#611);
#611 = AXIS2_PLACEMENT_3D('',#612,#613,#614);
#612 = CARTESIAN_POINT('',(36.6,8.4,14.));
#613 = DIRECTION('',(1.,0.,0.));
#614 = DIRECTION('',(0.,-1.224646799147E-16,-1.));
#615 = ADVANCED_FACE('',(#616),#635,.F.);
#616 = FACE_BOUND('',#617,.F.);
#617 = EDGE_LOOP('',(#618,#626,#633,#634));
#618 = ORIENTED_EDGE('',*,*,#619,.T.);
#619 = EDGE_CURVE('',#262,#620,#622,.T.);
#620 = VERTEX_POINT('',#621);
#621 = CARTESIAN_POINT('',(-38.15,5.4,5.));
#622 = LINE('',#623,#624);
#623 = CARTESIAN_POINT('',(-38.15,5.4,15.));
#624 = VECTOR('',#625,1.);
#625 = DIRECTION('',(0.,-1.224646799147E-16,-1.));
#626 = ORIENTED_EDGE('',*,*,#627,.F.);
#627 = EDGE_CURVE('',#620,#620,#628,.T.);
#628 = CIRCLE('',#629,1.45);
#629 = AXIS2_PLACEMENT_3D('',#630,#631,#632);
#630 = CARTESIAN_POINT('',(-39.6,5.4,5.));
#631 = DIRECTION('',(0.,-1.224646799147E-16,-1.));
#632 = DIRECTION('',(1.,0.,0.));
#633 = ORIENTED_EDGE('',*,*,#619,.F.);
#634 = ORIENTED_EDGE('',*,*,#261,.T.);
#635 = CYLINDRICAL_SURFACE('',#636,1.45);
#636 = AXIS2_PLACEMENT_3D('',#637,#638,#639);
#637 = CARTESIAN_POINT('',(-39.6,5.4,15.));
#638 = DIRECTION('',(0.,-1.224646799147E-16,-1.));
#639 = DIRECTION('',(1.,0.,0.));
#640 = ADVANCED_FACE('',(#641),#644,.F.);
#641 = FACE_BOUND('',#642,.F.);
#642 = EDGE_LOOP('',(#643));
#643 = ORIENTED_EDGE('',*,*,#627,.T.);
#644 = PLANE('',#645);
#645 = AXIS2_PLACEMENT_3D('',#646,#647,#648);
#646 = CARTESIAN_POINT('',(-39.6,5.4,5.));
#647 = DIRECTION('',(0.,-1.224646799147E-16,-1.));
#648 = DIRECTION('',(1.,0.,0.));
#649 = ADVANCED_FACE('',(#650),#669,.F.);
#650 = FACE_BOUND('',#651,.F.);
#651 = EDGE_LOOP('',(#652,#660,#667,#668));
#652 = ORIENTED_EDGE('',*,*,#653,.T.);
#653 = EDGE_CURVE('',#273,#654,#656,.T.);
#654 = VERTEX_POINT('',#655);
#655 = CARTESIAN_POINT('',(41.05,5.4,5.));
#656 = LINE('',#657,#658);
#657 = CARTESIAN_POINT('',(41.05,5.4,15.));
#658 = VECTOR('',#659,1.);
#659 = DIRECTION('',(0.,-1.224646799147E-16,-1.));
#660 = ORIENTED_EDGE('',*,*,#661,.F.);
#661 = EDGE_CURVE('',#654,#654,#662,.T.);
#662 = CIRCLE('',#663,1.45);
#663 = AXIS2_PLACEMENT_3D('',#664,#665,#666);
#664 = CARTESIAN_POINT('',(39.6,5.4,5.));
#665 = DIRECTION('',(0.,-1.224646799147E-16,-1.));
#666 = DIRECTION('',(1.,0.,0.));
#667 = ORIENTED_EDGE('',*,*,#653,.F.);
#668 = ORIENTED_EDGE('',*,*,#272,.T.);
#669 = CYLINDRICAL_SURFACE('',#670,1.45);
#670 = AXIS2_PLACEMENT_3D('',#671,#672,#673);
#671 = CARTESIAN_POINT('',(39.6,5.4,15.));
#672 = DIRECTION('',(0.,-1.224646799147E-16,-1.));
#673 = DIRECTION('',(1.,0.,0.));
#674 = ADVANCED_FACE('',(#675),#678,.F.);
#675 = FACE_BOUND('',#676,.F.);
#676 = EDGE_LOOP('',(#677));
#677 = ORIENTED_EDGE('',*,*,#661,.T.);
#678 = PLANE('',#679);
#679 = AXIS2_PLACEMENT_3D('',#680,#681,#682);
#680 = CARTESIAN_POINT('',(39.6,5.4,5.));
#681 = DIRECTION('',(0.,-1.224646799147E-16,-1.));
#682 = DIRECTION('',(1.,0.,0.));
#683 = ADVANCED_FACE('',(#684),#703,.F.);
#684 = FACE_BOUND('',#685,.F.);
#685 = EDGE_LOOP('',(#686,#694,#701,#702));
#686 = ORIENTED_EDGE('',*,*,#687,.T.);
#687 = EDGE_CURVE('',#284,#688,#690,.T.);
#688 = VERTEX_POINT('',#689);
#689 = CARTESIAN_POINT('',(-38.15,34.6,5.));
#690 = LINE('',#691,#692);
#691 = CARTESIAN_POINT('',(-38.15,34.6,15.));
#692 = VECTOR('',#693,1.);
#693 = DIRECTION('',(0.,-1.224646799147E-16,-1.));
#694 = ORIENTED_EDGE('',*,*,#695,.F.);
#695 = EDGE_CURVE('',#688,#688,#696,.T.);
#696 = CIRCLE('',#697,1.45);
#697 = AXIS2_PLACEMENT_3D('',#698,#699,#700);
#698 = CARTESIAN_POINT('',(-39.6,34.6,5.));
#699 = DIRECTION('',(0.,-1.224646799147E-16,-1.));
#700 = DIRECTION('',(1.,0.,0.));
#701 = ORIENTED_EDGE('',*,*,#687,.F.);
#702 = ORIENTED_EDGE('',*,*,#283,.T.);
#703 = CYLINDRICAL_SURFACE('',#704,1.45);
#704 = AXIS2_PLACEMENT_3D('',#705,#706,#707);
#705 = CARTESIAN_POINT('',(-39.6,34.6,15.));
#706 = DIRECTION('',(0.,-1.224646799147E-16,-1.));
#707 = DIRECTION('',(1.,0.,0.));
#708 = ADVANCED_FACE('',(#709),#712,.F.);
#709 = FACE_BOUND('',#710,.F.);
#710 = EDGE_LOOP('',(#711));
#711 = ORIENTED_EDGE('',*,*,#695,.T.);
#712 = PLANE('',#713);
#713 = AXIS2_PLACEMENT_3D('',#714,#715,#716);
#714 = CARTESIAN_POINT('',(-39.6,34.6,5.));
#715 = DIRECTION('',(0.,-1.224646799147E-16,-1.));
#716 = DIRECTION('',(1.,0.,0.));
#717 = ADVANCED_FACE('',(#718),#737,.F.);
#718 = FACE_BOUND('',#719,.F.);
#719 = EDGE_LOOP('',(#720,#728,#735,#736));
#720 = ORIENTED_EDGE('',*,*,#721,.T.);
#721 = EDGE_CURVE('',#295,#722,#724,.T.);
#722 = VERTEX_POINT('',#723);
#723 = CARTESIAN_POINT('',(41.05,34.6,5.));
#724 = LINE('',#725,#726);
#725 = CARTESIAN_POINT('',(41.05,34.6,15.));
#726 = VECTOR('',#727,1.);
#727 = DIRECTION('',(0.,-1.224646799147E-16,-1.));
#728 = ORIENTED_EDGE('',*,*,#729,.F.);
#729 = EDGE_CURVE('',#722,#722,#730,.T.);
#730 = CIRCLE('',#731,1.45);
#731 = AXIS2_PLACEMENT_3D('',#732,#733,#734);
#732 = CARTESIAN_POINT('',(39.6,34.6,5.));
#733 = DIRECTION('',(0.,-1.224646799147E-16,-1.));
#734 = DIRECTION('',(1.,0.,0.));
#735 = ORIENTED_EDGE('',*,*,#721,.F.);
#736 = ORIENTED_EDGE('',*,*,#294,.T.);
#737 = CYLINDRICAL_SURFACE('',#738,1.45);
#738 = AXIS2_PLACEMENT_3D('',#739,#740,#741);
#739 = CARTESIAN_POINT('',(39.6,34.6,15.));
#740 = DIRECTION('',(0.,-1.224646799147E-16,-1.));
#741 = DIRECTION('',(1.,0.,0.));
#742 = ADVANCED_FACE('',(#743),#746,.F.);
#743 = FACE_BOUND('',#744,.F.);
#744 = EDGE_LOOP('',(#745));
#745 = ORIENTED_EDGE('',*,*,#729,.T.);
#746 = PLANE('',#747);
#747 = AXIS2_PLACEMENT_3D('',#748,#749,#750);
#748 = CARTESIAN_POINT('',(39.6,34.6,5.));
#749 = DIRECTION('',(0.,-1.224646799147E-16,-1.));
#750 = DIRECTION('',(1.,0.,0.));
#751 = ( GEOMETRIC_REPRESENTATION_CONTEXT(3) 
GLOBAL_UNCERTAINTY_ASSIGNED_CONTEXT((#755)) GLOBAL_UNIT_ASSIGNED_CONTEXT
((#752,#753,#754)) REPRESENTATION_CONTEXT('Context #1',
  '3D Context with UNIT and UNCERTAINTY') );
#752 = ( LENGTH_UNIT() NAMED_UNIT(*) SI_UNIT(.MILLI.,.METRE.) );
#753 = ( NAMED_UNIT(*) PLANE_ANGLE_UNIT() SI_UNIT($,.RADIAN.) );
#754 = ( NAMED_UNIT(*) SI_UNIT($,.STERADIAN.) SOLID_ANGLE_UNIT() );
#755 = UNCERTAINTY_MEASURE_WITH_UNIT(LENGTH_MEASURE(1.E-07),#752,
  'distance_accuracy_value','confusion accuracy');
#756 = PRODUCT_RELATED_PRODUCT_CATEGORY('part',$,(#7));
ENDSEC;
END-ISO-10303-21;
