ISO-10303-21;
HEADER;
FILE_DESCRIPTION(('FreeCAD Model'),'2;1');
FILE_NAME('Open CASCADE Shape Model','2026-10-07T11:31:25',('FreeCAD'),(
    'FreeCAD'),'Open CASCADE STEP processor 7.6','FreeCAD','Unknown');
FILE_SCHEMA(('AUTOMOTIVE_DESIGN { 1 0 10303 214 1 1 1 1 }'));
ENDSEC;
DATA;
#1 = APPLICATION_PROTOCOL_DEFINITION('international standard',
  'automotive_design',2000,#2);
#2 = APPLICATION_CONTEXT(
  'core data for automotive mechanical design processes');
#3 = SHAPE_DEFINITION_REPRESENTATION(#4,#10);
#4 = PRODUCT_DEFINITION_SHAPE('','',#5);
#5 = PRODUCT_DEFINITION('design','',#6,#9);
#6 = PRODUCT_DEFINITION_FORMATION('','',#7);
#7 = PRODUCT('Open CASCADE STEP translator 7.6 20',
  'Open CASCADE STEP translator 7.6 20','',(#8));
#8 = PRODUCT_CONTEXT('',#2,'mechanical');
#9 = PRODUCT_DEFINITION_CONTEXT('part definition',#2,'design');
#10 = ADVANCED_BREP_SHAPE_REPRESENTATION('',(#11,#15),#911);
#11 = AXIS2_PLACEMENT_3D('',#12,#13,#14);
#12 = CARTESIAN_POINT('',(0.,0.,0.));
#13 = DIRECTION('',(0.,0.,1.));
#14 = DIRECTION('',(1.,0.,-0.));
#15 = MANIFOLD_SOLID_BREP('',#16);
#16 = CLOSED_SHELL('',(#17,#57,#88,#119,#266,#347,#364,#381,#398,#431,
    #489,#506,#537,#554,#566,#597,#621,#645,#669,#693,#717,#741,#758,
    #775,#787,#818,#842,#866,#883,#899));
#17 = ADVANCED_FACE('',(#18),#52,.F.);
#18 = FACE_BOUND('',#19,.F.);
#19 = EDGE_LOOP('',(#20,#30,#38,#46));
#20 = ORIENTED_EDGE('',*,*,#21,.T.);
#21 = EDGE_CURVE('',#22,#24,#26,.T.);
#22 = VERTEX_POINT('',#23);
#23 = CARTESIAN_POINT('',(60.,24.852813742386,0.));
#24 = VERTEX_POINT('',#25);
#25 = CARTESIAN_POINT('',(60.,24.852813742386,3.));
#26 = LINE('',#27,#28);
#27 = CARTESIAN_POINT('',(60.,24.852813742386,0.));
#28 = VECTOR('',#29,1.);
#29 = DIRECTION('',(0.,0.,1.));
#30 = ORIENTED_EDGE('',*,*,#31,.T.);
#31 = EDGE_CURVE('',#24,#32,#34,.T.);
#32 = VERTEX_POINT('',#33);
#33 = CARTESIAN_POINT('',(24.852813742386,60.,3.));
#34 = LINE('',#35,#36);
#35 = CARTESIAN_POINT('',(60.,24.852813742386,3.));
#36 = VECTOR('',#37,1.);
#37 = DIRECTION('',(-0.707106781187,0.707106781187,0.));
#38 = ORIENTED_EDGE('',*,*,#39,.F.);
#39 = EDGE_CURVE('',#40,#32,#42,.T.);
#40 = VERTEX_POINT('',#41);
#41 = CARTESIAN_POINT('',(24.852813742386,60.,0.));
#42 = LINE('',#43,#44);
#43 = CARTESIAN_POINT('',(24.852813742386,60.,0.));
#44 = VECTOR('',#45,1.);
#45 = DIRECTION('',(0.,0.,1.));
#46 = ORIENTED_EDGE('',*,*,#47,.F.);
#47 = EDGE_CURVE('',#22,#40,#48,.T.);
#48 = LINE('',#49,#50);
#49 = CARTESIAN_POINT('',(60.,24.852813742386,0.));
#50 = VECTOR('',#51,1.);
#51 = DIRECTION('',(-0.707106781187,0.707106781187,0.));
#52 = PLANE('',#53);
#53 = AXIS2_PLACEMENT_3D('',#54,#55,#56);
#54 = CARTESIAN_POINT('',(60.,24.852813742386,0.));
#55 = DIRECTION('',(-0.707106781187,-0.707106781187,0.));
#56 = DIRECTION('',(-0.707106781187,0.707106781187,0.));
#57 = ADVANCED_FACE('',(#58),#83,.F.);
#58 = FACE_BOUND('',#59,.F.);
#59 = EDGE_LOOP('',(#60,#70,#76,#77));
#60 = ORIENTED_EDGE('',*,*,#61,.T.);
#61 = EDGE_CURVE('',#62,#64,#66,.T.);
#62 = VERTEX_POINT('',#63);
#63 = CARTESIAN_POINT('',(60.,-24.85281374238,0.));
#64 = VERTEX_POINT('',#65);
#65 = CARTESIAN_POINT('',(60.,-24.85281374238,3.));
#66 = LINE('',#67,#68);
#67 = CARTESIAN_POINT('',(60.,-24.85281374238,0.));
#68 = VECTOR('',#69,1.);
#69 = DIRECTION('',(0.,0.,1.));
#70 = ORIENTED_EDGE('',*,*,#71,.T.);
#71 = EDGE_CURVE('',#64,#24,#72,.T.);
#72 = LINE('',#73,#74);
#73 = CARTESIAN_POINT('',(60.,-24.85281374238,3.));
#74 = VECTOR('',#75,1.);
#75 = DIRECTION('',(2.859003182196E-16,1.,0.));
#76 = ORIENTED_EDGE('',*,*,#21,.F.);
#77 = ORIENTED_EDGE('',*,*,#78,.F.);
#78 = EDGE_CURVE('',#62,#22,#79,.T.);
#79 = LINE('',#80,#81);
#80 = CARTESIAN_POINT('',(60.,-24.85281374238,0.));
#81 = VECTOR('',#82,1.);
#82 = DIRECTION('',(2.859003182196E-16,1.,0.));
#83 = PLANE('',#84);
#84 = AXIS2_PLACEMENT_3D('',#85,#86,#87);
#85 = CARTESIAN_POINT('',(60.,-24.85281374238,0.));
#86 = DIRECTION('',(-1.,2.859003182196E-16,0.));
#87 = DIRECTION('',(2.859003182196E-16,1.,0.));
#88 = ADVANCED_FACE('',(#89),#114,.F.);
#89 = FACE_BOUND('',#90,.F.);
#90 = EDGE_LOOP('',(#91,#92,#100,#108));
#91 = ORIENTED_EDGE('',*,*,#39,.T.);
#92 = ORIENTED_EDGE('',*,*,#93,.T.);
#93 = EDGE_CURVE('',#32,#94,#96,.T.);
#94 = VERTEX_POINT('',#95);
#95 = CARTESIAN_POINT('',(-24.85281374238,60.,3.));
#96 = LINE('',#97,#98);
#97 = CARTESIAN_POINT('',(24.852813742386,60.,3.));
#98 = VECTOR('',#99,1.);
#99 = DIRECTION('',(-1.,0.,0.));
#100 = ORIENTED_EDGE('',*,*,#101,.F.);
#101 = EDGE_CURVE('',#102,#94,#104,.T.);
#102 = VERTEX_POINT('',#103);
#103 = CARTESIAN_POINT('',(-24.85281374238,60.,0.));
#104 = LINE('',#105,#106);
#105 = CARTESIAN_POINT('',(-24.85281374238,60.,0.));
#106 = VECTOR('',#107,1.);
#107 = DIRECTION('',(0.,0.,1.));
#108 = ORIENTED_EDGE('',*,*,#109,.F.);
#109 = EDGE_CURVE('',#40,#102,#110,.T.);
#110 = LINE('',#111,#112);
#111 = CARTESIAN_POINT('',(24.852813742386,60.,0.));
#112 = VECTOR('',#113,1.);
#113 = DIRECTION('',(-1.,0.,0.));
#114 = PLANE('',#115);
#115 = AXIS2_PLACEMENT_3D('',#116,#117,#118);
#116 = CARTESIAN_POINT('',(24.852813742386,60.,0.));
#117 = DIRECTION('',(0.,-1.,0.));
#118 = DIRECTION('',(-1.,0.,0.));
#119 = ADVANCED_FACE('',(#120,#195),#261,.T.);
#120 = FACE_BOUND('',#121,.T.);
#121 = EDGE_LOOP('',(#122,#123,#131,#139,#147,#155,#163,#171,#179,#187,
    #193,#194));
#122 = ORIENTED_EDGE('',*,*,#78,.F.);
#123 = ORIENTED_EDGE('',*,*,#124,.F.);
#124 = EDGE_CURVE('',#125,#62,#127,.T.);
#125 = VERTEX_POINT('',#126);
#126 = CARTESIAN_POINT('',(24.852813742386,-60.,0.));
#127 = LINE('',#128,#129);
#128 = CARTESIAN_POINT('',(24.852813742386,-60.,0.));
#129 = VECTOR('',#130,1.);
#130 = DIRECTION('',(0.707106781187,0.707106781187,0.));
#131 = ORIENTED_EDGE('',*,*,#132,.F.);
#132 = EDGE_CURVE('',#133,#125,#135,.T.);
#133 = VERTEX_POINT('',#134);
#134 = CARTESIAN_POINT('',(6.,-60.,0.));
#135 = LINE('',#136,#137);
#136 = CARTESIAN_POINT('',(-24.85281374238,-60.,0.));
#137 = VECTOR('',#138,1.);
#138 = DIRECTION('',(1.,-1.429501591098E-16,0.));
#139 = ORIENTED_EDGE('',*,*,#140,.F.);
#140 = EDGE_CURVE('',#141,#133,#143,.T.);
#141 = VERTEX_POINT('',#142);
#142 = CARTESIAN_POINT('',(6.,-65.,0.));
#143 = LINE('',#144,#145);
#144 = CARTESIAN_POINT('',(6.,-65.,0.));
#145 = VECTOR('',#146,1.);
#146 = DIRECTION('',(-0.,1.,0.));
#147 = ORIENTED_EDGE('',*,*,#148,.F.);
#148 = EDGE_CURVE('',#149,#141,#151,.T.);
#149 = VERTEX_POINT('',#150);
#150 = CARTESIAN_POINT('',(-6.,-65.,0.));
#151 = LINE('',#152,#153);
#152 = CARTESIAN_POINT('',(-6.,-65.,0.));
#153 = VECTOR('',#154,1.);
#154 = DIRECTION('',(1.,0.,-0.));
#155 = ORIENTED_EDGE('',*,*,#156,.T.);
#156 = EDGE_CURVE('',#149,#157,#159,.T.);
#157 = VERTEX_POINT('',#158);
#158 = CARTESIAN_POINT('',(-6.,-60.,0.));
#159 = LINE('',#160,#161);
#160 = CARTESIAN_POINT('',(-6.,-65.,0.));
#161 = VECTOR('',#162,1.);
#162 = DIRECTION('',(-0.,1.,0.));
#163 = ORIENTED_EDGE('',*,*,#164,.F.);
#164 = EDGE_CURVE('',#165,#157,#167,.T.);
#165 = VERTEX_POINT('',#166);
#166 = CARTESIAN_POINT('',(-24.85281374238,-60.,0.));
#167 = LINE('',#168,#169);
#168 = CARTESIAN_POINT('',(-24.85281374238,-60.,0.));
#169 = VECTOR('',#170,1.);
#170 = DIRECTION('',(1.,-1.429501591098E-16,0.));
#171 = ORIENTED_EDGE('',*,*,#172,.F.);
#172 = EDGE_CURVE('',#173,#165,#175,.T.);
#173 = VERTEX_POINT('',#174);
#174 = CARTESIAN_POINT('',(-60.,-24.85281374238,0.));
#175 = LINE('',#176,#177);
#176 = CARTESIAN_POINT('',(-60.,-24.85281374238,0.));
#177 = VECTOR('',#178,1.);
#178 = DIRECTION('',(0.707106781187,-0.707106781187,0.));
#179 = ORIENTED_EDGE('',*,*,#180,.F.);
#180 = EDGE_CURVE('',#181,#173,#183,.T.);
#181 = VERTEX_POINT('',#182);
#182 = CARTESIAN_POINT('',(-60.,24.852813742386,0.));
#183 = LINE('',#184,#185);
#184 = CARTESIAN_POINT('',(-60.,24.852813742386,0.));
#185 = VECTOR('',#186,1.);
#186 = DIRECTION('',(-1.429501591098E-16,-1.,0.));
#187 = ORIENTED_EDGE('',*,*,#188,.F.);
#188 = EDGE_CURVE('',#102,#181,#189,.T.);
#189 = LINE('',#190,#191);
#190 = CARTESIAN_POINT('',(-24.85281374238,60.,0.));
#191 = VECTOR('',#192,1.);
#192 = DIRECTION('',(-0.707106781187,-0.707106781187,0.));
#193 = ORIENTED_EDGE('',*,*,#109,.F.);
#194 = ORIENTED_EDGE('',*,*,#47,.F.);
#195 = FACE_BOUND('',#196,.T.);
#196 = EDGE_LOOP('',(#197,#207,#215,#223,#231,#239,#247,#255));
#197 = ORIENTED_EDGE('',*,*,#198,.T.);
#198 = EDGE_CURVE('',#199,#201,#203,.T.);
#199 = VERTEX_POINT('',#200);
#200 = CARTESIAN_POINT('',(58.,-24.02438661764,0.));
#201 = VERTEX_POINT('',#202);
#202 = CARTESIAN_POINT('',(58.,24.02438661764,0.));
#203 = LINE('',#204,#205);
#204 = CARTESIAN_POINT('',(58.,-12.85238510143,0.));
#205 = VECTOR('',#206,1.);
#206 = DIRECTION('',(2.957589498824E-16,1.,-0.));
#207 = ORIENTED_EDGE('',*,*,#208,.T.);
#208 = EDGE_CURVE('',#201,#209,#211,.T.);
#209 = VERTEX_POINT('',#210);
#210 = CARTESIAN_POINT('',(24.02438661764,58.,0.));
#211 = LINE('',#212,#213);
#212 = CARTESIAN_POINT('',(49.926192550715,32.098194066925,0.));
#213 = VECTOR('',#214,1.);
#214 = DIRECTION('',(-0.707106781187,0.707106781187,0.));
#215 = ORIENTED_EDGE('',*,*,#216,.T.);
#216 = EDGE_CURVE('',#209,#217,#219,.T.);
#217 = VERTEX_POINT('',#218);
#218 = CARTESIAN_POINT('',(-24.02438661764,58.,0.));
#219 = LINE('',#220,#221);
#220 = CARTESIAN_POINT('',(12.01219330882,58.,0.));
#221 = VECTOR('',#222,1.);
#222 = DIRECTION('',(-1.,0.,0.));
#223 = ORIENTED_EDGE('',*,*,#224,.T.);
#224 = EDGE_CURVE('',#217,#225,#227,.T.);
#225 = VERTEX_POINT('',#226);
#226 = CARTESIAN_POINT('',(-58.,24.02438661764,0.));
#227 = LINE('',#228,#229);
#228 = CARTESIAN_POINT('',(-32.93838585953,49.086000758105,0.));
#229 = VECTOR('',#230,1.);
#230 = DIRECTION('',(-0.707106781187,-0.707106781187,0.));
#231 = ORIENTED_EDGE('',*,*,#232,.T.);
#232 = EDGE_CURVE('',#225,#233,#235,.T.);
#233 = VERTEX_POINT('',#234);
#234 = CARTESIAN_POINT('',(-58.,-24.02438661764,0.));
#235 = LINE('',#236,#237);
#236 = CARTESIAN_POINT('',(-58.,11.17200151621,0.));
#237 = VECTOR('',#238,1.);
#238 = DIRECTION('',(-1.478794749412E-16,-1.,0.));
#239 = ORIENTED_EDGE('',*,*,#240,.T.);
#240 = EDGE_CURVE('',#233,#241,#243,.T.);
#241 = VERTEX_POINT('',#242);
#242 = CARTESIAN_POINT('',(-24.02438661764,-58.,0.));
#243 = LINE('',#244,#245);
#244 = CARTESIAN_POINT('',(-49.0860007581,-32.93838585953,0.));
#245 = VECTOR('',#246,1.);
#246 = DIRECTION('',(0.707106781187,-0.707106781187,0.));
#247 = ORIENTED_EDGE('',*,*,#248,.T.);
#248 = EDGE_CURVE('',#241,#249,#251,.T.);
#249 = VERTEX_POINT('',#250);
#250 = CARTESIAN_POINT('',(24.02438661764,-58.,0.));
#251 = LINE('',#252,#253);
#252 = CARTESIAN_POINT('',(-12.01219330882,-58.,0.));
#253 = VECTOR('',#254,1.);
#254 = DIRECTION('',(1.,-1.478794749412E-16,0.));
#255 = ORIENTED_EDGE('',*,*,#256,.T.);
#256 = EDGE_CURVE('',#249,#199,#257,.T.);
#257 = LINE('',#258,#259);
#258 = CARTESIAN_POINT('',(32.098194066925,-49.92619255071,0.));
#259 = VECTOR('',#260,1.);
#260 = DIRECTION('',(0.707106781187,0.707106781187,-0.));
#261 = PLANE('',#262);
#262 = AXIS2_PLACEMENT_3D('',#263,#264,#265);
#263 = CARTESIAN_POINT('',(0.,-1.68038358522,0.));
#264 = DIRECTION('',(-0.,-0.,-1.));
#265 = DIRECTION('',(-1.,0.,0.));
#266 = ADVANCED_FACE('',(#267),#342,.T.);
#267 = FACE_BOUND('',#268,.T.);
#268 = EDGE_LOOP('',(#269,#270,#271,#272,#280,#288,#296,#304,#312,#320,
    #328,#336));
#269 = ORIENTED_EDGE('',*,*,#71,.T.);
#270 = ORIENTED_EDGE('',*,*,#31,.T.);
#271 = ORIENTED_EDGE('',*,*,#93,.T.);
#272 = ORIENTED_EDGE('',*,*,#273,.T.);
#273 = EDGE_CURVE('',#94,#274,#276,.T.);
#274 = VERTEX_POINT('',#275);
#275 = CARTESIAN_POINT('',(-60.,24.852813742386,3.));
#276 = LINE('',#277,#278);
#277 = CARTESIAN_POINT('',(-24.85281374238,60.,3.));
#278 = VECTOR('',#279,1.);
#279 = DIRECTION('',(-0.707106781187,-0.707106781187,0.));
#280 = ORIENTED_EDGE('',*,*,#281,.T.);
#281 = EDGE_CURVE('',#274,#282,#284,.T.);
#282 = VERTEX_POINT('',#283);
#283 = CARTESIAN_POINT('',(-60.,-24.85281374238,3.));
#284 = LINE('',#285,#286);
#285 = CARTESIAN_POINT('',(-60.,24.852813742386,3.));
#286 = VECTOR('',#287,1.);
#287 = DIRECTION('',(-1.429501591098E-16,-1.,0.));
#288 = ORIENTED_EDGE('',*,*,#289,.T.);
#289 = EDGE_CURVE('',#282,#290,#292,.T.);
#290 = VERTEX_POINT('',#291);
#291 = CARTESIAN_POINT('',(-24.85281374238,-60.,3.));
#292 = LINE('',#293,#294);
#293 = CARTESIAN_POINT('',(-60.,-24.85281374238,3.));
#294 = VECTOR('',#295,1.);
#295 = DIRECTION('',(0.707106781187,-0.707106781187,0.));
#296 = ORIENTED_EDGE('',*,*,#297,.T.);
#297 = EDGE_CURVE('',#290,#298,#300,.T.);
#298 = VERTEX_POINT('',#299);
#299 = CARTESIAN_POINT('',(-6.,-60.,3.));
#300 = LINE('',#301,#302);
#301 = CARTESIAN_POINT('',(-24.85281374238,-60.,3.));
#302 = VECTOR('',#303,1.);
#303 = DIRECTION('',(1.,-1.429501591098E-16,0.));
#304 = ORIENTED_EDGE('',*,*,#305,.T.);
#305 = EDGE_CURVE('',#298,#306,#308,.T.);
#306 = VERTEX_POINT('',#307);
#307 = CARTESIAN_POINT('',(-6.,-40.,3.));
#308 = LINE('',#309,#310);
#309 = CARTESIAN_POINT('',(-6.,-32.5,3.));
#310 = VECTOR('',#311,1.);
#311 = DIRECTION('',(-0.,1.,0.));
#312 = ORIENTED_EDGE('',*,*,#313,.F.);
#313 = EDGE_CURVE('',#314,#306,#316,.T.);
#314 = VERTEX_POINT('',#315);
#315 = CARTESIAN_POINT('',(6.,-40.,3.));
#316 = LINE('',#317,#318);
#317 = CARTESIAN_POINT('',(-3.,-40.,3.));
#318 = VECTOR('',#319,1.);
#319 = DIRECTION('',(-1.,-0.,0.));
#320 = ORIENTED_EDGE('',*,*,#321,.F.);
#321 = EDGE_CURVE('',#322,#314,#324,.T.);
#322 = VERTEX_POINT('',#323);
#323 = CARTESIAN_POINT('',(6.,-60.,3.));
#324 = LINE('',#325,#326);
#325 = CARTESIAN_POINT('',(6.,-32.5,3.));
#326 = VECTOR('',#327,1.);
#327 = DIRECTION('',(-0.,1.,0.));
#328 = ORIENTED_EDGE('',*,*,#329,.T.);
#329 = EDGE_CURVE('',#322,#330,#332,.T.);
#330 = VERTEX_POINT('',#331);
#331 = CARTESIAN_POINT('',(24.852813742386,-60.,3.));
#332 = LINE('',#333,#334);
#333 = CARTESIAN_POINT('',(-24.85281374238,-60.,3.));
#334 = VECTOR('',#335,1.);
#335 = DIRECTION('',(1.,-1.429501591098E-16,0.));
#336 = ORIENTED_EDGE('',*,*,#337,.T.);
#337 = EDGE_CURVE('',#330,#64,#338,.T.);
#338 = LINE('',#339,#340);
#339 = CARTESIAN_POINT('',(24.852813742386,-60.,3.));
#340 = VECTOR('',#341,1.);
#341 = DIRECTION('',(0.707106781187,0.707106781187,0.));
#342 = PLANE('',#343);
#343 = AXIS2_PLACEMENT_3D('',#344,#345,#346);
#344 = CARTESIAN_POINT('',(-2.859003182196E-15,2.287202545757E-15,3.));
#345 = DIRECTION('',(0.,0.,1.));
#346 = DIRECTION('',(1.,0.,-0.));
#347 = ADVANCED_FACE('',(#348),#359,.F.);
#348 = FACE_BOUND('',#349,.F.);
#349 = EDGE_LOOP('',(#350,#356,#357,#358));
#350 = ORIENTED_EDGE('',*,*,#351,.T.);
#351 = EDGE_CURVE('',#125,#330,#352,.T.);
#352 = LINE('',#353,#354);
#353 = CARTESIAN_POINT('',(24.852813742386,-60.,0.));
#354 = VECTOR('',#355,1.);
#355 = DIRECTION('',(0.,0.,1.));
#356 = ORIENTED_EDGE('',*,*,#337,.T.);
#357 = ORIENTED_EDGE('',*,*,#61,.F.);
#358 = ORIENTED_EDGE('',*,*,#124,.F.);
#359 = PLANE('',#360);
#360 = AXIS2_PLACEMENT_3D('',#361,#362,#363);
#361 = CARTESIAN_POINT('',(24.852813742386,-60.,0.));
#362 = DIRECTION('',(-0.707106781187,0.707106781187,0.));
#363 = DIRECTION('',(0.707106781187,0.707106781187,0.));
#364 = ADVANCED_FACE('',(#365),#376,.F.);
#365 = FACE_BOUND('',#366,.F.);
#366 = EDGE_LOOP('',(#367,#368,#369,#375));
#367 = ORIENTED_EDGE('',*,*,#101,.T.);
#368 = ORIENTED_EDGE('',*,*,#273,.T.);
#369 = ORIENTED_EDGE('',*,*,#370,.F.);
#370 = EDGE_CURVE('',#181,#274,#371,.T.);
#371 = LINE('',#372,#373);
#372 = CARTESIAN_POINT('',(-60.,24.852813742386,0.));
#373 = VECTOR('',#374,1.);
#374 = DIRECTION('',(0.,0.,1.));
#375 = ORIENTED_EDGE('',*,*,#188,.F.);
#376 = PLANE('',#377);
#377 = AXIS2_PLACEMENT_3D('',#378,#379,#380);
#378 = CARTESIAN_POINT('',(-24.85281374238,60.,0.));
#379 = DIRECTION('',(0.707106781187,-0.707106781187,0.));
#380 = DIRECTION('',(-0.707106781187,-0.707106781187,0.));
#381 = ADVANCED_FACE('',(#382),#393,.F.);
#382 = FACE_BOUND('',#383,.F.);
#383 = EDGE_LOOP('',(#384,#385,#391,#392));
#384 = ORIENTED_EDGE('',*,*,#132,.F.);
#385 = ORIENTED_EDGE('',*,*,#386,.F.);
#386 = EDGE_CURVE('',#322,#133,#387,.T.);
#387 = LINE('',#388,#389);
#388 = CARTESIAN_POINT('',(6.,-60.,0.));
#389 = VECTOR('',#390,1.);
#390 = DIRECTION('',(0.,0.,-1.));
#391 = ORIENTED_EDGE('',*,*,#329,.T.);
#392 = ORIENTED_EDGE('',*,*,#351,.F.);
#393 = PLANE('',#394);
#394 = AXIS2_PLACEMENT_3D('',#395,#396,#397);
#395 = CARTESIAN_POINT('',(-24.85281374238,-60.,0.));
#396 = DIRECTION('',(1.429501591098E-16,1.,-0.));
#397 = DIRECTION('',(1.,-1.429501591098E-16,0.));
#398 = ADVANCED_FACE('',(#399),#426,.T.);
#399 = FACE_BOUND('',#400,.T.);
#400 = EDGE_LOOP('',(#401,#411,#417,#418,#419,#420));
#401 = ORIENTED_EDGE('',*,*,#402,.F.);
#402 = EDGE_CURVE('',#403,#405,#407,.T.);
#403 = VERTEX_POINT('',#404);
#404 = CARTESIAN_POINT('',(6.,-65.,12.));
#405 = VERTEX_POINT('',#406);
#406 = CARTESIAN_POINT('',(6.,-40.,12.));
#407 = LINE('',#408,#409);
#408 = CARTESIAN_POINT('',(6.,-65.,12.));
#409 = VECTOR('',#410,1.);
#410 = DIRECTION('',(-0.,1.,0.));
#411 = ORIENTED_EDGE('',*,*,#412,.F.);
#412 = EDGE_CURVE('',#141,#403,#413,.T.);
#413 = LINE('',#414,#415);
#414 = CARTESIAN_POINT('',(6.,-65.,0.));
#415 = VECTOR('',#416,1.);
#416 = DIRECTION('',(0.,0.,1.));
#417 = ORIENTED_EDGE('',*,*,#140,.T.);
#418 = ORIENTED_EDGE('',*,*,#386,.F.);
#419 = ORIENTED_EDGE('',*,*,#321,.T.);
#420 = ORIENTED_EDGE('',*,*,#421,.T.);
#421 = EDGE_CURVE('',#314,#405,#422,.T.);
#422 = LINE('',#423,#424);
#423 = CARTESIAN_POINT('',(6.,-40.,0.));
#424 = VECTOR('',#425,1.);
#425 = DIRECTION('',(0.,0.,1.));
#426 = PLANE('',#427);
#427 = AXIS2_PLACEMENT_3D('',#428,#429,#430);
#428 = CARTESIAN_POINT('',(6.,-65.,0.));
#429 = DIRECTION('',(1.,0.,-0.));
#430 = DIRECTION('',(0.,0.,1.));
#431 = ADVANCED_FACE('',(#432,#450),#484,.F.);
#432 = FACE_BOUND('',#433,.F.);
#433 = EDGE_LOOP('',(#434,#435,#443,#449));
#434 = ORIENTED_EDGE('',*,*,#148,.F.);
#435 = ORIENTED_EDGE('',*,*,#436,.T.);
#436 = EDGE_CURVE('',#149,#437,#439,.T.);
#437 = VERTEX_POINT('',#438);
#438 = CARTESIAN_POINT('',(-6.,-65.,12.));
#439 = LINE('',#440,#441);
#440 = CARTESIAN_POINT('',(-6.,-65.,0.));
#441 = VECTOR('',#442,1.);
#442 = DIRECTION('',(0.,0.,1.));
#443 = ORIENTED_EDGE('',*,*,#444,.T.);
#444 = EDGE_CURVE('',#437,#403,#445,.T.);
#445 = LINE('',#446,#447);
#446 = CARTESIAN_POINT('',(-6.,-65.,12.));
#447 = VECTOR('',#448,1.);
#448 = DIRECTION('',(1.,0.,-0.));
#449 = ORIENTED_EDGE('',*,*,#412,.F.);
#450 = FACE_BOUND('',#451,.F.);
#451 = EDGE_LOOP('',(#452,#462,#470,#478));
#452 = ORIENTED_EDGE('',*,*,#453,.F.);
#453 = EDGE_CURVE('',#454,#456,#458,.T.);
#454 = VERTEX_POINT('',#455);
#455 = CARTESIAN_POINT('',(-4.1,-65.,10.1));
#456 = VERTEX_POINT('',#457);
#457 = CARTESIAN_POINT('',(4.1,-65.,10.1));
#458 = LINE('',#459,#460);
#459 = CARTESIAN_POINT('',(-5.05,-65.,10.1));
#460 = VECTOR('',#461,1.);
#461 = DIRECTION('',(1.,0.,-0.));
#462 = ORIENTED_EDGE('',*,*,#463,.T.);
#463 = EDGE_CURVE('',#454,#464,#466,.T.);
#464 = VERTEX_POINT('',#465);
#465 = CARTESIAN_POINT('',(-4.1,-65.,1.9));
#466 = LINE('',#467,#468);
#467 = CARTESIAN_POINT('',(-4.1,-65.,0.95));
#468 = VECTOR('',#469,1.);
#469 = DIRECTION('',(-0.,0.,-1.));
#470 = ORIENTED_EDGE('',*,*,#471,.T.);
#471 = EDGE_CURVE('',#464,#472,#474,.T.);
#472 = VERTEX_POINT('',#473);
#473 = CARTESIAN_POINT('',(4.1,-65.,1.9));
#474 = LINE('',#475,#476);
#475 = CARTESIAN_POINT('',(-5.05,-65.,1.9));
#476 = VECTOR('',#477,1.);
#477 = DIRECTION('',(1.,0.,-0.));
#478 = ORIENTED_EDGE('',*,*,#479,.F.);
#479 = EDGE_CURVE('',#456,#472,#480,.T.);
#480 = LINE('',#481,#482);
#481 = CARTESIAN_POINT('',(4.1,-65.,0.95));
#482 = VECTOR('',#483,1.);
#483 = DIRECTION('',(-0.,0.,-1.));
#484 = PLANE('',#485);
#485 = AXIS2_PLACEMENT_3D('',#486,#487,#488);
#486 = CARTESIAN_POINT('',(-6.,-65.,0.));
#487 = DIRECTION('',(-0.,1.,0.));
#488 = DIRECTION('',(0.,0.,1.));
#489 = ADVANCED_FACE('',(#490),#501,.F.);
#490 = FACE_BOUND('',#491,.F.);
#491 = EDGE_LOOP('',(#492,#493,#494,#500));
#492 = ORIENTED_EDGE('',*,*,#370,.T.);
#493 = ORIENTED_EDGE('',*,*,#281,.T.);
#494 = ORIENTED_EDGE('',*,*,#495,.F.);
#495 = EDGE_CURVE('',#173,#282,#496,.T.);
#496 = LINE('',#497,#498);
#497 = CARTESIAN_POINT('',(-60.,-24.85281374238,0.));
#498 = VECTOR('',#499,1.);
#499 = DIRECTION('',(0.,0.,1.));
#500 = ORIENTED_EDGE('',*,*,#180,.F.);
#501 = PLANE('',#502);
#502 = AXIS2_PLACEMENT_3D('',#503,#504,#505);
#503 = CARTESIAN_POINT('',(-60.,24.852813742386,0.));
#504 = DIRECTION('',(1.,-1.429501591098E-16,0.));
#505 = DIRECTION('',(-1.429501591098E-16,-1.,0.));
#506 = ADVANCED_FACE('',(#507),#532,.F.);
#507 = FACE_BOUND('',#508,.F.);
#508 = EDGE_LOOP('',(#509,#517,#518,#519,#525,#526));
#509 = ORIENTED_EDGE('',*,*,#510,.F.);
#510 = EDGE_CURVE('',#437,#511,#513,.T.);
#511 = VERTEX_POINT('',#512);
#512 = CARTESIAN_POINT('',(-6.,-40.,12.));
#513 = LINE('',#514,#515);
#514 = CARTESIAN_POINT('',(-6.,-65.,12.));
#515 = VECTOR('',#516,1.);
#516 = DIRECTION('',(-0.,1.,0.));
#517 = ORIENTED_EDGE('',*,*,#436,.F.);
#518 = ORIENTED_EDGE('',*,*,#156,.T.);
#519 = ORIENTED_EDGE('',*,*,#520,.F.);
#520 = EDGE_CURVE('',#298,#157,#521,.T.);
#521 = LINE('',#522,#523);
#522 = CARTESIAN_POINT('',(-6.,-60.,0.));
#523 = VECTOR('',#524,1.);
#524 = DIRECTION('',(0.,0.,-1.));
#525 = ORIENTED_EDGE('',*,*,#305,.T.);
#526 = ORIENTED_EDGE('',*,*,#527,.T.);
#527 = EDGE_CURVE('',#306,#511,#528,.T.);
#528 = LINE('',#529,#530);
#529 = CARTESIAN_POINT('',(-6.,-40.,0.));
#530 = VECTOR('',#531,1.);
#531 = DIRECTION('',(0.,0.,1.));
#532 = PLANE('',#533);
#533 = AXIS2_PLACEMENT_3D('',#534,#535,#536);
#534 = CARTESIAN_POINT('',(-6.,-65.,0.));
#535 = DIRECTION('',(1.,0.,-0.));
#536 = DIRECTION('',(0.,0.,1.));
#537 = ADVANCED_FACE('',(#538),#549,.F.);
#538 = FACE_BOUND('',#539,.F.);
#539 = EDGE_LOOP('',(#540,#541,#542,#548));
#540 = ORIENTED_EDGE('',*,*,#495,.T.);
#541 = ORIENTED_EDGE('',*,*,#289,.T.);
#542 = ORIENTED_EDGE('',*,*,#543,.F.);
#543 = EDGE_CURVE('',#165,#290,#544,.T.);
#544 = LINE('',#545,#546);
#545 = CARTESIAN_POINT('',(-24.85281374238,-60.,0.));
#546 = VECTOR('',#547,1.);
#547 = DIRECTION('',(0.,0.,1.));
#548 = ORIENTED_EDGE('',*,*,#172,.F.);
#549 = PLANE('',#550);
#550 = AXIS2_PLACEMENT_3D('',#551,#552,#553);
#551 = CARTESIAN_POINT('',(-60.,-24.85281374238,0.));
#552 = DIRECTION('',(0.707106781187,0.707106781187,-0.));
#553 = DIRECTION('',(0.707106781187,-0.707106781187,0.));
#554 = ADVANCED_FACE('',(#555),#561,.F.);
#555 = FACE_BOUND('',#556,.F.);
#556 = EDGE_LOOP('',(#557,#558,#559,#560));
#557 = ORIENTED_EDGE('',*,*,#164,.F.);
#558 = ORIENTED_EDGE('',*,*,#543,.T.);
#559 = ORIENTED_EDGE('',*,*,#297,.T.);
#560 = ORIENTED_EDGE('',*,*,#520,.T.);
#561 = PLANE('',#562);
#562 = AXIS2_PLACEMENT_3D('',#563,#564,#565);
#563 = CARTESIAN_POINT('',(-24.85281374238,-60.,0.));
#564 = DIRECTION('',(1.429501591098E-16,1.,-0.));
#565 = DIRECTION('',(1.,-1.429501591098E-16,0.));
#566 = ADVANCED_FACE('',(#567),#592,.T.);
#567 = FACE_BOUND('',#568,.T.);
#568 = EDGE_LOOP('',(#569,#570,#578,#586));
#569 = ORIENTED_EDGE('',*,*,#198,.F.);
#570 = ORIENTED_EDGE('',*,*,#571,.T.);
#571 = EDGE_CURVE('',#199,#572,#574,.T.);
#572 = VERTEX_POINT('',#573);
#573 = CARTESIAN_POINT('',(58.,-24.02438661764,0.7));
#574 = LINE('',#575,#576);
#575 = CARTESIAN_POINT('',(58.,-24.02438661764,-0.1));
#576 = VECTOR('',#577,1.);
#577 = DIRECTION('',(0.,0.,1.));
#578 = ORIENTED_EDGE('',*,*,#579,.T.);
#579 = EDGE_CURVE('',#572,#580,#582,.T.);
#580 = VERTEX_POINT('',#581);
#581 = CARTESIAN_POINT('',(58.,24.02438661764,0.7));
#582 = LINE('',#583,#584);
#583 = CARTESIAN_POINT('',(58.,-24.02438661764,0.7));
#584 = VECTOR('',#585,1.);
#585 = DIRECTION('',(2.957589498824E-16,1.,0.));
#586 = ORIENTED_EDGE('',*,*,#587,.F.);
#587 = EDGE_CURVE('',#201,#580,#588,.T.);
#588 = LINE('',#589,#590);
#589 = CARTESIAN_POINT('',(58.,24.02438661764,-0.1));
#590 = VECTOR('',#591,1.);
#591 = DIRECTION('',(0.,0.,1.));
#592 = PLANE('',#593);
#593 = AXIS2_PLACEMENT_3D('',#594,#595,#596);
#594 = CARTESIAN_POINT('',(58.,-24.02438661764,-0.1));
#595 = DIRECTION('',(-1.,2.957589498824E-16,0.));
#596 = DIRECTION('',(2.957589498824E-16,1.,0.));
#597 = ADVANCED_FACE('',(#598),#616,.T.);
#598 = FACE_BOUND('',#599,.T.);
#599 = EDGE_LOOP('',(#600,#601,#609,#615));
#600 = ORIENTED_EDGE('',*,*,#256,.F.);
#601 = ORIENTED_EDGE('',*,*,#602,.T.);
#602 = EDGE_CURVE('',#249,#603,#605,.T.);
#603 = VERTEX_POINT('',#604);
#604 = CARTESIAN_POINT('',(24.02438661764,-58.,0.7));
#605 = LINE('',#606,#607);
#606 = CARTESIAN_POINT('',(24.02438661764,-58.,-0.1));
#607 = VECTOR('',#608,1.);
#608 = DIRECTION('',(0.,0.,1.));
#609 = ORIENTED_EDGE('',*,*,#610,.T.);
#610 = EDGE_CURVE('',#603,#572,#611,.T.);
#611 = LINE('',#612,#613);
#612 = CARTESIAN_POINT('',(24.02438661764,-58.,0.7));
#613 = VECTOR('',#614,1.);
#614 = DIRECTION('',(0.707106781187,0.707106781187,0.));
#615 = ORIENTED_EDGE('',*,*,#571,.F.);
#616 = PLANE('',#617);
#617 = AXIS2_PLACEMENT_3D('',#618,#619,#620);
#618 = CARTESIAN_POINT('',(24.02438661764,-58.,-0.1));
#619 = DIRECTION('',(-0.707106781187,0.707106781187,0.));
#620 = DIRECTION('',(0.707106781187,0.707106781187,0.));
#621 = ADVANCED_FACE('',(#622),#640,.T.);
#622 = FACE_BOUND('',#623,.T.);
#623 = EDGE_LOOP('',(#624,#625,#633,#639));
#624 = ORIENTED_EDGE('',*,*,#248,.F.);
#625 = ORIENTED_EDGE('',*,*,#626,.T.);
#626 = EDGE_CURVE('',#241,#627,#629,.T.);
#627 = VERTEX_POINT('',#628);
#628 = CARTESIAN_POINT('',(-24.02438661764,-58.,0.7));
#629 = LINE('',#630,#631);
#630 = CARTESIAN_POINT('',(-24.02438661764,-58.,-0.1));
#631 = VECTOR('',#632,1.);
#632 = DIRECTION('',(0.,0.,1.));
#633 = ORIENTED_EDGE('',*,*,#634,.T.);
#634 = EDGE_CURVE('',#627,#603,#635,.T.);
#635 = LINE('',#636,#637);
#636 = CARTESIAN_POINT('',(-24.02438661764,-58.,0.7));
#637 = VECTOR('',#638,1.);
#638 = DIRECTION('',(1.,-1.478794749412E-16,0.));
#639 = ORIENTED_EDGE('',*,*,#602,.F.);
#640 = PLANE('',#641);
#641 = AXIS2_PLACEMENT_3D('',#642,#643,#644);
#642 = CARTESIAN_POINT('',(-24.02438661764,-58.,-0.1));
#643 = DIRECTION('',(1.478794749412E-16,1.,-0.));
#644 = DIRECTION('',(1.,-1.478794749412E-16,0.));
#645 = ADVANCED_FACE('',(#646),#664,.T.);
#646 = FACE_BOUND('',#647,.T.);
#647 = EDGE_LOOP('',(#648,#649,#657,#663));
#648 = ORIENTED_EDGE('',*,*,#240,.F.);
#649 = ORIENTED_EDGE('',*,*,#650,.T.);
#650 = EDGE_CURVE('',#233,#651,#653,.T.);
#651 = VERTEX_POINT('',#652);
#652 = CARTESIAN_POINT('',(-58.,-24.02438661764,0.7));
#653 = LINE('',#654,#655);
#654 = CARTESIAN_POINT('',(-58.,-24.02438661764,-0.1));
#655 = VECTOR('',#656,1.);
#656 = DIRECTION('',(0.,0.,1.));
#657 = ORIENTED_EDGE('',*,*,#658,.T.);
#658 = EDGE_CURVE('',#651,#627,#659,.T.);
#659 = LINE('',#660,#661);
#660 = CARTESIAN_POINT('',(-58.,-24.02438661764,0.7));
#661 = VECTOR('',#662,1.);
#662 = DIRECTION('',(0.707106781187,-0.707106781187,0.));
#663 = ORIENTED_EDGE('',*,*,#626,.F.);
#664 = PLANE('',#665);
#665 = AXIS2_PLACEMENT_3D('',#666,#667,#668);
#666 = CARTESIAN_POINT('',(-58.,-24.02438661764,-0.1));
#667 = DIRECTION('',(0.707106781187,0.707106781187,-0.));
#668 = DIRECTION('',(0.707106781187,-0.707106781187,0.));
#669 = ADVANCED_FACE('',(#670),#688,.T.);
#670 = FACE_BOUND('',#671,.T.);
#671 = EDGE_LOOP('',(#672,#673,#681,#687));
#672 = ORIENTED_EDGE('',*,*,#232,.F.);
#673 = ORIENTED_EDGE('',*,*,#674,.T.);
#674 = EDGE_CURVE('',#225,#675,#677,.T.);
#675 = VERTEX_POINT('',#676);
#676 = CARTESIAN_POINT('',(-58.,24.02438661764,0.7));
#677 = LINE('',#678,#679);
#678 = CARTESIAN_POINT('',(-58.,24.02438661764,-0.1));
#679 = VECTOR('',#680,1.);
#680 = DIRECTION('',(0.,0.,1.));
#681 = ORIENTED_EDGE('',*,*,#682,.T.);
#682 = EDGE_CURVE('',#675,#651,#683,.T.);
#683 = LINE('',#684,#685);
#684 = CARTESIAN_POINT('',(-58.,24.02438661764,0.7));
#685 = VECTOR('',#686,1.);
#686 = DIRECTION('',(-1.478794749412E-16,-1.,0.));
#687 = ORIENTED_EDGE('',*,*,#650,.F.);
#688 = PLANE('',#689);
#689 = AXIS2_PLACEMENT_3D('',#690,#691,#692);
#690 = CARTESIAN_POINT('',(-58.,24.02438661764,-0.1));
#691 = DIRECTION('',(1.,-1.478794749412E-16,0.));
#692 = DIRECTION('',(-1.478794749412E-16,-1.,0.));
#693 = ADVANCED_FACE('',(#694),#712,.T.);
#694 = FACE_BOUND('',#695,.T.);
#695 = EDGE_LOOP('',(#696,#697,#705,#711));
#696 = ORIENTED_EDGE('',*,*,#224,.F.);
#697 = ORIENTED_EDGE('',*,*,#698,.T.);
#698 = EDGE_CURVE('',#217,#699,#701,.T.);
#699 = VERTEX_POINT('',#700);
#700 = CARTESIAN_POINT('',(-24.02438661764,58.,0.7));
#701 = LINE('',#702,#703);
#702 = CARTESIAN_POINT('',(-24.02438661764,58.,-0.1));
#703 = VECTOR('',#704,1.);
#704 = DIRECTION('',(0.,0.,1.));
#705 = ORIENTED_EDGE('',*,*,#706,.T.);
#706 = EDGE_CURVE('',#699,#675,#707,.T.);
#707 = LINE('',#708,#709);
#708 = CARTESIAN_POINT('',(-24.02438661764,58.,0.7));
#709 = VECTOR('',#710,1.);
#710 = DIRECTION('',(-0.707106781187,-0.707106781187,0.));
#711 = ORIENTED_EDGE('',*,*,#674,.F.);
#712 = PLANE('',#713);
#713 = AXIS2_PLACEMENT_3D('',#714,#715,#716);
#714 = CARTESIAN_POINT('',(-24.02438661764,58.,-0.1));
#715 = DIRECTION('',(0.707106781187,-0.707106781187,0.));
#716 = DIRECTION('',(-0.707106781187,-0.707106781187,0.));
#717 = ADVANCED_FACE('',(#718),#736,.T.);
#718 = FACE_BOUND('',#719,.T.);
#719 = EDGE_LOOP('',(#720,#721,#729,#735));
#720 = ORIENTED_EDGE('',*,*,#216,.F.);
#721 = ORIENTED_EDGE('',*,*,#722,.T.);
#722 = EDGE_CURVE('',#209,#723,#725,.T.);
#723 = VERTEX_POINT('',#724);
#724 = CARTESIAN_POINT('',(24.02438661764,58.,0.7));
#725 = LINE('',#726,#727);
#726 = CARTESIAN_POINT('',(24.02438661764,58.,-0.1));
#727 = VECTOR('',#728,1.);
#728 = DIRECTION('',(0.,0.,1.));
#729 = ORIENTED_EDGE('',*,*,#730,.T.);
#730 = EDGE_CURVE('',#723,#699,#731,.T.);
#731 = LINE('',#732,#733);
#732 = CARTESIAN_POINT('',(24.02438661764,58.,0.7));
#733 = VECTOR('',#734,1.);
#734 = DIRECTION('',(-1.,0.,0.));
#735 = ORIENTED_EDGE('',*,*,#698,.F.);
#736 = PLANE('',#737);
#737 = AXIS2_PLACEMENT_3D('',#738,#739,#740);
#738 = CARTESIAN_POINT('',(24.02438661764,58.,-0.1));
#739 = DIRECTION('',(0.,-1.,0.));
#740 = DIRECTION('',(-1.,0.,0.));
#741 = ADVANCED_FACE('',(#742),#753,.T.);
#742 = FACE_BOUND('',#743,.T.);
#743 = EDGE_LOOP('',(#744,#745,#746,#752));
#744 = ORIENTED_EDGE('',*,*,#208,.F.);
#745 = ORIENTED_EDGE('',*,*,#587,.T.);
#746 = ORIENTED_EDGE('',*,*,#747,.T.);
#747 = EDGE_CURVE('',#580,#723,#748,.T.);
#748 = LINE('',#749,#750);
#749 = CARTESIAN_POINT('',(58.,24.02438661764,0.7));
#750 = VECTOR('',#751,1.);
#751 = DIRECTION('',(-0.707106781187,0.707106781187,0.));
#752 = ORIENTED_EDGE('',*,*,#722,.F.);
#753 = PLANE('',#754);
#754 = AXIS2_PLACEMENT_3D('',#755,#756,#757);
#755 = CARTESIAN_POINT('',(58.,24.02438661764,-0.1));
#756 = DIRECTION('',(-0.707106781187,-0.707106781187,0.));
#757 = DIRECTION('',(-0.707106781187,0.707106781187,0.));
#758 = ADVANCED_FACE('',(#759),#770,.T.);
#759 = FACE_BOUND('',#760,.T.);
#760 = EDGE_LOOP('',(#761,#762,#763,#764));
#761 = ORIENTED_EDGE('',*,*,#421,.F.);
#762 = ORIENTED_EDGE('',*,*,#313,.T.);
#763 = ORIENTED_EDGE('',*,*,#527,.T.);
#764 = ORIENTED_EDGE('',*,*,#765,.T.);
#765 = EDGE_CURVE('',#511,#405,#766,.T.);
#766 = LINE('',#767,#768);
#767 = CARTESIAN_POINT('',(-6.,-40.,12.));
#768 = VECTOR('',#769,1.);
#769 = DIRECTION('',(1.,0.,-0.));
#770 = PLANE('',#771);
#771 = AXIS2_PLACEMENT_3D('',#772,#773,#774);
#772 = CARTESIAN_POINT('',(-6.,-40.,0.));
#773 = DIRECTION('',(-0.,1.,0.));
#774 = DIRECTION('',(0.,0.,1.));
#775 = ADVANCED_FACE('',(#776),#782,.T.);
#776 = FACE_BOUND('',#777,.T.);
#777 = EDGE_LOOP('',(#778,#779,#780,#781));
#778 = ORIENTED_EDGE('',*,*,#510,.F.);
#779 = ORIENTED_EDGE('',*,*,#444,.T.);
#780 = ORIENTED_EDGE('',*,*,#402,.T.);
#781 = ORIENTED_EDGE('',*,*,#765,.F.);
#782 = PLANE('',#783);
#783 = AXIS2_PLACEMENT_3D('',#784,#785,#786);
#784 = CARTESIAN_POINT('',(-6.,-65.,12.));
#785 = DIRECTION('',(0.,0.,1.));
#786 = DIRECTION('',(1.,0.,-0.));
#787 = ADVANCED_FACE('',(#788),#813,.F.);
#788 = FACE_BOUND('',#789,.F.);
#789 = EDGE_LOOP('',(#790,#798,#799,#807));
#790 = ORIENTED_EDGE('',*,*,#791,.F.);
#791 = EDGE_CURVE('',#454,#792,#794,.T.);
#792 = VERTEX_POINT('',#793);
#793 = CARTESIAN_POINT('',(-4.1,-53.,10.1));
#794 = LINE('',#795,#796);
#795 = CARTESIAN_POINT('',(-4.1,-66.,10.1));
#796 = VECTOR('',#797,1.);
#797 = DIRECTION('',(-0.,1.,0.));
#798 = ORIENTED_EDGE('',*,*,#453,.T.);
#799 = ORIENTED_EDGE('',*,*,#800,.T.);
#800 = EDGE_CURVE('',#456,#801,#803,.T.);
#801 = VERTEX_POINT('',#802);
#802 = CARTESIAN_POINT('',(4.1,-53.,10.1));
#803 = LINE('',#804,#805);
#804 = CARTESIAN_POINT('',(4.1,-66.,10.1));
#805 = VECTOR('',#806,1.);
#806 = DIRECTION('',(-0.,1.,0.));
#807 = ORIENTED_EDGE('',*,*,#808,.F.);
#808 = EDGE_CURVE('',#792,#801,#809,.T.);
#809 = LINE('',#810,#811);
#810 = CARTESIAN_POINT('',(-4.1,-53.,10.1));
#811 = VECTOR('',#812,1.);
#812 = DIRECTION('',(1.,0.,-0.));
#813 = PLANE('',#814);
#814 = AXIS2_PLACEMENT_3D('',#815,#816,#817);
#815 = CARTESIAN_POINT('',(-4.1,-66.,10.1));
#816 = DIRECTION('',(0.,0.,1.));
#817 = DIRECTION('',(1.,0.,-0.));
#818 = ADVANCED_FACE('',(#819),#837,.F.);
#819 = FACE_BOUND('',#820,.F.);
#820 = EDGE_LOOP('',(#821,#822,#823,#831));
#821 = ORIENTED_EDGE('',*,*,#800,.F.);
#822 = ORIENTED_EDGE('',*,*,#479,.T.);
#823 = ORIENTED_EDGE('',*,*,#824,.T.);
#824 = EDGE_CURVE('',#472,#825,#827,.T.);
#825 = VERTEX_POINT('',#826);
#826 = CARTESIAN_POINT('',(4.1,-53.,1.9));
#827 = LINE('',#828,#829);
#828 = CARTESIAN_POINT('',(4.1,-66.,1.9));
#829 = VECTOR('',#830,1.);
#830 = DIRECTION('',(-0.,1.,0.));
#831 = ORIENTED_EDGE('',*,*,#832,.T.);
#832 = EDGE_CURVE('',#825,#801,#833,.T.);
#833 = LINE('',#834,#835);
#834 = CARTESIAN_POINT('',(4.1,-53.,1.9));
#835 = VECTOR('',#836,1.);
#836 = DIRECTION('',(0.,0.,1.));
#837 = PLANE('',#838);
#838 = AXIS2_PLACEMENT_3D('',#839,#840,#841);
#839 = CARTESIAN_POINT('',(4.1,-66.,1.9));
#840 = DIRECTION('',(1.,0.,-0.));
#841 = DIRECTION('',(0.,0.,1.));
#842 = ADVANCED_FACE('',(#843),#861,.T.);
#843 = FACE_BOUND('',#844,.T.);
#844 = EDGE_LOOP('',(#845,#853,#854,#855));
#845 = ORIENTED_EDGE('',*,*,#846,.F.);
#846 = EDGE_CURVE('',#464,#847,#849,.T.);
#847 = VERTEX_POINT('',#848);
#848 = CARTESIAN_POINT('',(-4.1,-53.,1.9));
#849 = LINE('',#850,#851);
#850 = CARTESIAN_POINT('',(-4.1,-66.,1.9));
#851 = VECTOR('',#852,1.);
#852 = DIRECTION('',(-0.,1.,0.));
#853 = ORIENTED_EDGE('',*,*,#471,.T.);
#854 = ORIENTED_EDGE('',*,*,#824,.T.);
#855 = ORIENTED_EDGE('',*,*,#856,.F.);
#856 = EDGE_CURVE('',#847,#825,#857,.T.);
#857 = LINE('',#858,#859);
#858 = CARTESIAN_POINT('',(-4.1,-53.,1.9));
#859 = VECTOR('',#860,1.);
#860 = DIRECTION('',(1.,0.,-0.));
#861 = PLANE('',#862);
#862 = AXIS2_PLACEMENT_3D('',#863,#864,#865);
#863 = CARTESIAN_POINT('',(-4.1,-66.,1.9));
#864 = DIRECTION('',(0.,0.,1.));
#865 = DIRECTION('',(1.,0.,-0.));
#866 = ADVANCED_FACE('',(#867),#878,.T.);
#867 = FACE_BOUND('',#868,.T.);
#868 = EDGE_LOOP('',(#869,#870,#871,#872));
#869 = ORIENTED_EDGE('',*,*,#791,.F.);
#870 = ORIENTED_EDGE('',*,*,#463,.T.);
#871 = ORIENTED_EDGE('',*,*,#846,.T.);
#872 = ORIENTED_EDGE('',*,*,#873,.T.);
#873 = EDGE_CURVE('',#847,#792,#874,.T.);
#874 = LINE('',#875,#876);
#875 = CARTESIAN_POINT('',(-4.1,-53.,1.9));
#876 = VECTOR('',#877,1.);
#877 = DIRECTION('',(0.,0.,1.));
#878 = PLANE('',#879);
#879 = AXIS2_PLACEMENT_3D('',#880,#881,#882);
#880 = CARTESIAN_POINT('',(-4.1,-66.,1.9));
#881 = DIRECTION('',(1.,0.,-0.));
#882 = DIRECTION('',(0.,0.,1.));
#883 = ADVANCED_FACE('',(#884),#894,.F.);
#884 = FACE_BOUND('',#885,.F.);
#885 = EDGE_LOOP('',(#886,#887,#888,#889,#890,#891,#892,#893));
#886 = ORIENTED_EDGE('',*,*,#747,.T.);
#887 = ORIENTED_EDGE('',*,*,#730,.T.);
#888 = ORIENTED_EDGE('',*,*,#706,.T.);
#889 = ORIENTED_EDGE('',*,*,#682,.T.);
#890 = ORIENTED_EDGE('',*,*,#658,.T.);
#891 = ORIENTED_EDGE('',*,*,#634,.T.);
#892 = ORIENTED_EDGE('',*,*,#610,.T.);
#893 = ORIENTED_EDGE('',*,*,#579,.T.);
#894 = PLANE('',#895);
#895 = AXIS2_PLACEMENT_3D('',#896,#897,#898);
#896 = CARTESIAN_POINT('',(0.,2.661830548941E-15,0.7));
#897 = DIRECTION('',(-7.505962771528E-35,-3.127484488137E-35,1.));
#898 = DIRECTION('',(1.,0.,7.505962771528E-35));
#899 = ADVANCED_FACE('',(#900),#906,.F.);
#900 = FACE_BOUND('',#901,.F.);
#901 = EDGE_LOOP('',(#902,#903,#904,#905));
#902 = ORIENTED_EDGE('',*,*,#856,.F.);
#903 = ORIENTED_EDGE('',*,*,#873,.T.);
#904 = ORIENTED_EDGE('',*,*,#808,.T.);
#905 = ORIENTED_EDGE('',*,*,#832,.F.);
#906 = PLANE('',#907);
#907 = AXIS2_PLACEMENT_3D('',#908,#909,#910);
#908 = CARTESIAN_POINT('',(-4.1,-53.,1.9));
#909 = DIRECTION('',(-0.,1.,0.));
#910 = DIRECTION('',(0.,0.,1.));
#911 = ( GEOMETRIC_REPRESENTATION_CONTEXT(3) 
GLOBAL_UNCERTAINTY_ASSIGNED_CONTEXT((#915)) GLOBAL_UNIT_ASSIGNED_CONTEXT
((#912,#913,#914)) REPRESENTATION_CONTEXT('Context #1',
  '3D Context with UNIT and UNCERTAINTY') );
#912 = ( LENGTH_UNIT() NAMED_UNIT(*) SI_UNIT(.MILLI.,.METRE.) );
#913 = ( NAMED_UNIT(*) PLANE_ANGLE_UNIT() SI_UNIT($,.RADIAN.) );
#914 = ( NAMED_UNIT(*) SI_UNIT($,.STERADIAN.) SOLID_ANGLE_UNIT() );
#915 = UNCERTAINTY_MEASURE_WITH_UNIT(LENGTH_MEASURE(1.E-07),#912,
  'distance_accuracy_value','confusion accuracy');
#916 = PRODUCT_RELATED_PRODUCT_CATEGORY('part',$,(#7));
ENDSEC;
END-ISO-10303-21;
