ISO-10303-21;
HEADER;
FILE_DESCRIPTION(('FreeCAD Model'),'2;1');
FILE_NAME('Open CASCADE Shape Model','2026-10-07T11:31:25',('FreeCAD'),(
    'FreeCAD'),'Open CASCADE STEP processor 7.6','FreeCAD','Unknown');
FILE_SCHEMA(('AUTOMOTIVE_DESIGN { 1 0 10303 214 1 1 1 1 }'));
ENDSEC;
DATA;
#1 = APPLICATION_PROTOCOL_DEFINITION('international standard',
  'automotive_design',2000,#2);
#2 = APPLICATION_CONTEXT(
  'core data for automotive mechanical design processes');
#3 = SHAPE_DEFINITION_REPRESENTATION(#4,#10);
#4 = PRODUCT_DEFINITION_SHAPE('','',#5);
#5 = PRODUCT_DEFINITION('design','',#6,#9);
#6 = PRODUCT_DEFINITION_FORMATION('','',#7);
#7 = PRODUCT('Open CASCADE STEP translator 7.6 21',
  'Open CASCADE STEP translator 7.6 21','',(#8));
#8 = PRODUCT_CONTEXT('',#2,'mechanical');
#9 = PRODUCT_DEFINITION_CONTEXT('part definition',#2,'design');
#10 = ADVANCED_BREP_SHAPE_REPRESENTATION('',(#11,#15),#581);
#11 = AXIS2_PLACEMENT_3D('',#12,#13,#14);
#12 = CARTESIAN_POINT('',(0.,0.,0.));
#13 = DIRECTION('',(0.,0.,1.));
#14 = DIRECTION('',(1.,0.,-0.));
#15 = MANIFOLD_SOLID_BREP('',#16);
#16 = CLOSED_SHELL('',(#17,#57,#88,#119,#186,#227,#244,#277,#310,#361,
    #392,#416,#433,#450,#462,#493,#517,#541,#558,#569));
#17 = ADVANCED_FACE('',(#18),#52,.F.);
#18 = FACE_BOUND('',#19,.F.);
#19 = EDGE_LOOP('',(#20,#30,#38,#46));
#20 = ORIENTED_EDGE('',*,*,#21,.T.);
#21 = EDGE_CURVE('',#22,#24,#26,.T.);
#22 = VERTEX_POINT('',#23);
#23 = CARTESIAN_POINT('',(0.,69.282032302755,0.));
#24 = VERTEX_POINT('',#25);
#25 = CARTESIAN_POINT('',(0.,69.282032302755,3.));
#26 = LINE('',#27,#28);
#27 = CARTESIAN_POINT('',(0.,69.282032302755,0.));
#28 = VECTOR('',#29,1.);
#29 = DIRECTION('',(0.,0.,1.));
#30 = ORIENTED_EDGE('',*,*,#31,.T.);
#31 = EDGE_CURVE('',#24,#32,#34,.T.);
#32 = VERTEX_POINT('',#33);
#33 = CARTESIAN_POINT('',(-60.,-34.64101615137,3.));
#34 = LINE('',#35,#36);
#35 = CARTESIAN_POINT('',(0.,69.282032302755,3.));
#36 = VECTOR('',#37,1.);
#37 = DIRECTION('',(-0.5,-0.866025403784,0.));
#38 = ORIENTED_EDGE('',*,*,#39,.F.);
#39 = EDGE_CURVE('',#40,#32,#42,.T.);
#40 = VERTEX_POINT('',#41);
#41 = CARTESIAN_POINT('',(-60.,-34.64101615137,0.));
#42 = LINE('',#43,#44);
#43 = CARTESIAN_POINT('',(-60.,-34.64101615137,0.));
#44 = VECTOR('',#45,1.);
#45 = DIRECTION('',(0.,0.,1.));
#46 = ORIENTED_EDGE('',*,*,#47,.F.);
#47 = EDGE_CURVE('',#22,#40,#48,.T.);
#48 = LINE('',#49,#50);
#49 = CARTESIAN_POINT('',(0.,69.282032302755,0.));
#50 = VECTOR('',#51,1.);
#51 = DIRECTION('',(-0.5,-0.866025403784,0.));
#52 = PLANE('',#53);
#53 = AXIS2_PLACEMENT_3D('',#54,#55,#56);
#54 = CARTESIAN_POINT('',(0.,69.282032302755,0.));
#55 = DIRECTION('',(0.866025403784,-0.5,0.));
#56 = DIRECTION('',(-0.5,-0.866025403784,0.));
#57 = ADVANCED_FACE('',(#58),#83,.F.);
#58 = FACE_BOUND('',#59,.F.);
#59 = EDGE_LOOP('',(#60,#70,#76,#77));
#60 = ORIENTED_EDGE('',*,*,#61,.T.);
#61 = EDGE_CURVE('',#62,#64,#66,.T.);
#62 = VERTEX_POINT('',#63);
#63 = CARTESIAN_POINT('',(60.,-34.64101615137,0.));
#64 = VERTEX_POINT('',#65);
#65 = CARTESIAN_POINT('',(60.,-34.64101615137,3.));
#66 = LINE('',#67,#68);
#67 = CARTESIAN_POINT('',(60.,-34.64101615137,0.));
#68 = VECTOR('',#69,1.);
#69 = DIRECTION('',(0.,0.,1.));
#70 = ORIENTED_EDGE('',*,*,#71,.T.);
#71 = EDGE_CURVE('',#64,#24,#72,.T.);
#72 = LINE('',#73,#74);
#73 = CARTESIAN_POINT('',(60.,-34.64101615137,3.));
#74 = VECTOR('',#75,1.);
#75 = DIRECTION('',(-0.5,0.866025403784,0.));
#76 = ORIENTED_EDGE('',*,*,#21,.F.);
#77 = ORIENTED_EDGE('',*,*,#78,.F.);
#78 = EDGE_CURVE('',#62,#22,#79,.T.);
#79 = LINE('',#80,#81);
#80 = CARTESIAN_POINT('',(60.,-34.64101615137,0.));
#81 = VECTOR('',#82,1.);
#82 = DIRECTION('',(-0.5,0.866025403784,0.));
#83 = PLANE('',#84);
#84 = AXIS2_PLACEMENT_3D('',#85,#86,#87);
#85 = CARTESIAN_POINT('',(60.,-34.64101615137,0.));
#86 = DIRECTION('',(-0.866025403784,-0.5,0.));
#87 = DIRECTION('',(-0.5,0.866025403784,0.));
#88 = ADVANCED_FACE('',(#89),#114,.F.);
#89 = FACE_BOUND('',#90,.F.);
#90 = EDGE_LOOP('',(#91,#99,#100,#108));
#91 = ORIENTED_EDGE('',*,*,#92,.F.);
#92 = EDGE_CURVE('',#40,#93,#95,.T.);
#93 = VERTEX_POINT('',#94);
#94 = CARTESIAN_POINT('',(-6.,-34.64101615137,0.));
#95 = LINE('',#96,#97);
#96 = CARTESIAN_POINT('',(-60.,-34.64101615137,0.));
#97 = VECTOR('',#98,1.);
#98 = DIRECTION('',(1.,0.,0.));
#99 = ORIENTED_EDGE('',*,*,#39,.T.);
#100 = ORIENTED_EDGE('',*,*,#101,.T.);
#101 = EDGE_CURVE('',#32,#102,#104,.T.);
#102 = VERTEX_POINT('',#103);
#103 = CARTESIAN_POINT('',(-6.,-34.64101615137,3.));
#104 = LINE('',#105,#106);
#105 = CARTESIAN_POINT('',(-60.,-34.64101615137,3.));
#106 = VECTOR('',#107,1.);
#107 = DIRECTION('',(1.,0.,0.));
#108 = ORIENTED_EDGE('',*,*,#109,.T.);
#109 = EDGE_CURVE('',#102,#93,#110,.T.);
#110 = LINE('',#111,#112);
#111 = CARTESIAN_POINT('',(-6.,-34.64101615137,0.));
#112 = VECTOR('',#113,1.);
#113 = DIRECTION('',(-0.,0.,-1.));
#114 = PLANE('',#115);
#115 = AXIS2_PLACEMENT_3D('',#116,#117,#118);
#116 = CARTESIAN_POINT('',(-60.,-34.64101615137,0.));
#117 = DIRECTION('',(0.,1.,0.));
#118 = DIRECTION('',(1.,0.,0.));
#119 = ADVANCED_FACE('',(#120,#155),#181,.T.);
#120 = FACE_BOUND('',#121,.T.);
#121 = EDGE_LOOP('',(#122,#123,#131,#139,#147,#153,#154));
#122 = ORIENTED_EDGE('',*,*,#78,.F.);
#123 = ORIENTED_EDGE('',*,*,#124,.F.);
#124 = EDGE_CURVE('',#125,#62,#127,.T.);
#125 = VERTEX_POINT('',#126);
#126 = CARTESIAN_POINT('',(6.,-34.64101615137,0.));
#127 = LINE('',#128,#129);
#128 = CARTESIAN_POINT('',(-60.,-34.64101615137,0.));
#129 = VECTOR('',#130,1.);
#130 = DIRECTION('',(1.,0.,0.));
#131 = ORIENTED_EDGE('',*,*,#132,.F.);
#132 = EDGE_CURVE('',#133,#125,#135,.T.);
#133 = VERTEX_POINT('',#134);
#134 = CARTESIAN_POINT('',(6.,-39.64101615137,0.));
#135 = LINE('',#136,#137);
#136 = CARTESIAN_POINT('',(6.,-39.64101615137,0.));
#137 = VECTOR('',#138,1.);
#138 = DIRECTION('',(-0.,1.,0.));
#139 = ORIENTED_EDGE('',*,*,#140,.F.);
#140 = EDGE_CURVE('',#141,#133,#143,.T.);
#141 = VERTEX_POINT('',#142);
#142 = CARTESIAN_POINT('',(-6.,-39.64101615137,0.));
#143 = LINE('',#144,#145);
#144 = CARTESIAN_POINT('',(-6.,-39.64101615137,0.));
#145 = VECTOR('',#146,1.);
#146 = DIRECTION('',(1.,0.,-0.));
#147 = ORIENTED_EDGE('',*,*,#148,.T.);
#148 = EDGE_CURVE('',#141,#93,#149,.T.);
#149 = LINE('',#150,#151);
#150 = CARTESIAN_POINT('',(-6.,-39.64101615137,0.));
#151 = VECTOR('',#152,1.);
#152 = DIRECTION('',(-0.,1.,0.));
#153 = ORIENTED_EDGE('',*,*,#92,.F.);
#154 = ORIENTED_EDGE('',*,*,#47,.F.);
#155 = FACE_BOUND('',#156,.T.);
#156 = EDGE_LOOP('',(#157,#167,#175));
#157 = ORIENTED_EDGE('',*,*,#158,.T.);
#158 = EDGE_CURVE('',#159,#161,#163,.T.);
#159 = VERTEX_POINT('',#160);
#160 = CARTESIAN_POINT('',(58.,-33.48631561299,0.));
#161 = VERTEX_POINT('',#162);
#162 = CARTESIAN_POINT('',(0.,66.972631225997,0.));
#163 = LINE('',#164,#165);
#164 = CARTESIAN_POINT('',(43.75244064819,-8.808818931811,0.));
#165 = VECTOR('',#166,1.);
#166 = DIRECTION('',(-0.5,0.866025403784,0.));
#167 = ORIENTED_EDGE('',*,*,#168,.T.);
#168 = EDGE_CURVE('',#161,#169,#171,.T.);
#169 = VERTEX_POINT('',#170);
#170 = CARTESIAN_POINT('',(-58.,-33.48631561299,0.));
#171 = LINE('',#172,#173);
#172 = CARTESIAN_POINT('',(-14.75244064819,41.420654487687,0.));
#173 = VECTOR('',#174,1.);
#174 = DIRECTION('',(-0.5,-0.866025403784,0.));
#175 = ORIENTED_EDGE('',*,*,#176,.T.);
#176 = EDGE_CURVE('',#169,#159,#177,.T.);
#177 = LINE('',#178,#179);
#178 = CARTESIAN_POINT('',(-29.,-33.48631561299,0.));
#179 = VECTOR('',#180,1.);
#180 = DIRECTION('',(1.,0.,0.));
#181 = PLANE('',#182);
#182 = AXIS2_PLACEMENT_3D('',#183,#184,#185);
#183 = CARTESIAN_POINT('',(0.,-1.165973409497,0.));
#184 = DIRECTION('',(-0.,-0.,-1.));
#185 = DIRECTION('',(-1.,0.,0.));
#186 = ADVANCED_FACE('',(#187),#222,.T.);
#187 = FACE_BOUND('',#188,.T.);
#188 = EDGE_LOOP('',(#189,#190,#191,#192,#200,#208,#216));
#189 = ORIENTED_EDGE('',*,*,#71,.T.);
#190 = ORIENTED_EDGE('',*,*,#31,.T.);
#191 = ORIENTED_EDGE('',*,*,#101,.T.);
#192 = ORIENTED_EDGE('',*,*,#193,.T.);
#193 = EDGE_CURVE('',#102,#194,#196,.T.);
#194 = VERTEX_POINT('',#195);
#195 = CARTESIAN_POINT('',(-6.,-14.64101615137,3.));
#196 = LINE('',#197,#198);
#197 = CARTESIAN_POINT('',(-6.,-19.82050807568,3.));
#198 = VECTOR('',#199,1.);
#199 = DIRECTION('',(-0.,1.,0.));
#200 = ORIENTED_EDGE('',*,*,#201,.F.);
#201 = EDGE_CURVE('',#202,#194,#204,.T.);
#202 = VERTEX_POINT('',#203);
#203 = CARTESIAN_POINT('',(6.,-14.64101615137,3.));
#204 = LINE('',#205,#206);
#205 = CARTESIAN_POINT('',(-3.,-14.64101615137,3.));
#206 = VECTOR('',#207,1.);
#207 = DIRECTION('',(-1.,-0.,0.));
#208 = ORIENTED_EDGE('',*,*,#209,.F.);
#209 = EDGE_CURVE('',#210,#202,#212,.T.);
#210 = VERTEX_POINT('',#211);
#211 = CARTESIAN_POINT('',(6.,-34.64101615137,3.));
#212 = LINE('',#213,#214);
#213 = CARTESIAN_POINT('',(6.,-19.82050807568,3.));
#214 = VECTOR('',#215,1.);
#215 = DIRECTION('',(-0.,1.,0.));
#216 = ORIENTED_EDGE('',*,*,#217,.T.);
#217 = EDGE_CURVE('',#210,#64,#218,.T.);
#218 = LINE('',#219,#220);
#219 = CARTESIAN_POINT('',(-60.,-34.64101615137,3.));
#220 = VECTOR('',#221,1.);
#221 = DIRECTION('',(1.,0.,0.));
#222 = PLANE('',#223);
#223 = AXIS2_PLACEMENT_3D('',#224,#225,#226);
#224 = CARTESIAN_POINT('',(0.,-2.526374171591E-15,3.));
#225 = DIRECTION('',(0.,0.,1.));
#226 = DIRECTION('',(1.,0.,-0.));
#227 = ADVANCED_FACE('',(#228),#239,.F.);
#228 = FACE_BOUND('',#229,.F.);
#229 = EDGE_LOOP('',(#230,#231,#237,#238));
#230 = ORIENTED_EDGE('',*,*,#124,.F.);
#231 = ORIENTED_EDGE('',*,*,#232,.F.);
#232 = EDGE_CURVE('',#210,#125,#233,.T.);
#233 = LINE('',#234,#235);
#234 = CARTESIAN_POINT('',(6.,-34.64101615137,0.));
#235 = VECTOR('',#236,1.);
#236 = DIRECTION('',(-0.,0.,-1.));
#237 = ORIENTED_EDGE('',*,*,#217,.T.);
#238 = ORIENTED_EDGE('',*,*,#61,.F.);
#239 = PLANE('',#240);
#240 = AXIS2_PLACEMENT_3D('',#241,#242,#243);
#241 = CARTESIAN_POINT('',(-60.,-34.64101615137,0.));
#242 = DIRECTION('',(0.,1.,0.));
#243 = DIRECTION('',(1.,0.,0.));
#244 = ADVANCED_FACE('',(#245),#272,.F.);
#245 = FACE_BOUND('',#246,.F.);
#246 = EDGE_LOOP('',(#247,#257,#263,#264,#265,#266));
#247 = ORIENTED_EDGE('',*,*,#248,.F.);
#248 = EDGE_CURVE('',#249,#251,#253,.T.);
#249 = VERTEX_POINT('',#250);
#250 = CARTESIAN_POINT('',(-6.,-39.64101615137,12.));
#251 = VERTEX_POINT('',#252);
#252 = CARTESIAN_POINT('',(-6.,-14.64101615137,12.));
#253 = LINE('',#254,#255);
#254 = CARTESIAN_POINT('',(-6.,-39.64101615137,12.));
#255 = VECTOR('',#256,1.);
#256 = DIRECTION('',(-0.,1.,0.));
#257 = ORIENTED_EDGE('',*,*,#258,.F.);
#258 = EDGE_CURVE('',#141,#249,#259,.T.);
#259 = LINE('',#260,#261);
#260 = CARTESIAN_POINT('',(-6.,-39.64101615137,0.));
#261 = VECTOR('',#262,1.);
#262 = DIRECTION('',(0.,0.,1.));
#263 = ORIENTED_EDGE('',*,*,#148,.T.);
#264 = ORIENTED_EDGE('',*,*,#109,.F.);
#265 = ORIENTED_EDGE('',*,*,#193,.T.);
#266 = ORIENTED_EDGE('',*,*,#267,.T.);
#267 = EDGE_CURVE('',#194,#251,#268,.T.);
#268 = LINE('',#269,#270);
#269 = CARTESIAN_POINT('',(-6.,-14.64101615137,0.));
#270 = VECTOR('',#271,1.);
#271 = DIRECTION('',(0.,0.,1.));
#272 = PLANE('',#273);
#273 = AXIS2_PLACEMENT_3D('',#274,#275,#276);
#274 = CARTESIAN_POINT('',(-6.,-39.64101615137,0.));
#275 = DIRECTION('',(1.,0.,-0.));
#276 = DIRECTION('',(0.,0.,1.));
#277 = ADVANCED_FACE('',(#278),#305,.T.);
#278 = FACE_BOUND('',#279,.T.);
#279 = EDGE_LOOP('',(#280,#290,#296,#297,#298,#299));
#280 = ORIENTED_EDGE('',*,*,#281,.F.);
#281 = EDGE_CURVE('',#282,#284,#286,.T.);
#282 = VERTEX_POINT('',#283);
#283 = CARTESIAN_POINT('',(6.,-39.64101615137,12.));
#284 = VERTEX_POINT('',#285);
#285 = CARTESIAN_POINT('',(6.,-14.64101615137,12.));
#286 = LINE('',#287,#288);
#287 = CARTESIAN_POINT('',(6.,-39.64101615137,12.));
#288 = VECTOR('',#289,1.);
#289 = DIRECTION('',(-0.,1.,0.));
#290 = ORIENTED_EDGE('',*,*,#291,.F.);
#291 = EDGE_CURVE('',#133,#282,#292,.T.);
#292 = LINE('',#293,#294);
#293 = CARTESIAN_POINT('',(6.,-39.64101615137,0.));
#294 = VECTOR('',#295,1.);
#295 = DIRECTION('',(0.,0.,1.));
#296 = ORIENTED_EDGE('',*,*,#132,.T.);
#297 = ORIENTED_EDGE('',*,*,#232,.F.);
#298 = ORIENTED_EDGE('',*,*,#209,.T.);
#299 = ORIENTED_EDGE('',*,*,#300,.T.);
#300 = EDGE_CURVE('',#202,#284,#301,.T.);
#301 = LINE('',#302,#303);
#302 = CARTESIAN_POINT('',(6.,-14.64101615137,0.));
#303 = VECTOR('',#304,1.);
#304 = DIRECTION('',(0.,0.,1.));
#305 = PLANE('',#306);
#306 = AXIS2_PLACEMENT_3D('',#307,#308,#309);
#307 = CARTESIAN_POINT('',(6.,-39.64101615137,0.));
#308 = DIRECTION('',(1.,0.,-0.));
#309 = DIRECTION('',(0.,0.,1.));
#310 = ADVANCED_FACE('',(#311,#322),#356,.F.);
#311 = FACE_BOUND('',#312,.F.);
#312 = EDGE_LOOP('',(#313,#314,#315,#321));
#313 = ORIENTED_EDGE('',*,*,#140,.F.);
#314 = ORIENTED_EDGE('',*,*,#258,.T.);
#315 = ORIENTED_EDGE('',*,*,#316,.T.);
#316 = EDGE_CURVE('',#249,#282,#317,.T.);
#317 = LINE('',#318,#319);
#318 = CARTESIAN_POINT('',(-6.,-39.64101615137,12.));
#319 = VECTOR('',#320,1.);
#320 = DIRECTION('',(1.,0.,-0.));
#321 = ORIENTED_EDGE('',*,*,#291,.F.);
#322 = FACE_BOUND('',#323,.F.);
#323 = EDGE_LOOP('',(#324,#334,#342,#350));
#324 = ORIENTED_EDGE('',*,*,#325,.F.);
#325 = EDGE_CURVE('',#326,#328,#330,.T.);
#326 = VERTEX_POINT('',#327);
#327 = CARTESIAN_POINT('',(-4.1,-39.64101615137,10.1));
#328 = VERTEX_POINT('',#329);
#329 = CARTESIAN_POINT('',(4.1,-39.64101615137,10.1));
#330 = LINE('',#331,#332);
#331 = CARTESIAN_POINT('',(-5.05,-39.64101615137,10.1));
#332 = VECTOR('',#333,1.);
#333 = DIRECTION('',(1.,0.,-0.));
#334 = ORIENTED_EDGE('',*,*,#335,.T.);
#335 = EDGE_CURVE('',#326,#336,#338,.T.);
#336 = VERTEX_POINT('',#337);
#337 = CARTESIAN_POINT('',(-4.1,-39.64101615137,1.9));
#338 = LINE('',#339,#340);
#339 = CARTESIAN_POINT('',(-4.1,-39.64101615137,0.95));
#340 = VECTOR('',#341,1.);
#341 = DIRECTION('',(-0.,0.,-1.));
#342 = ORIENTED_EDGE('',*,*,#343,.T.);
#343 = EDGE_CURVE('',#336,#344,#346,.T.);
#344 = VERTEX_POINT('',#345);
#345 = CARTESIAN_POINT('',(4.1,-39.64101615137,1.9));
#346 = LINE('',#347,#348);
#347 = CARTESIAN_POINT('',(-5.05,-39.64101615137,1.9));
#348 = VECTOR('',#349,1.);
#349 = DIRECTION('',(1.,0.,-0.));
#350 = ORIENTED_EDGE('',*,*,#351,.F.);
#351 = EDGE_CURVE('',#328,#344,#352,.T.);
#352 = LINE('',#353,#354);
#353 = CARTESIAN_POINT('',(4.1,-39.64101615137,0.95));
#354 = VECTOR('',#355,1.);
#355 = DIRECTION('',(-0.,0.,-1.));
#356 = PLANE('',#357);
#357 = AXIS2_PLACEMENT_3D('',#358,#359,#360);
#358 = CARTESIAN_POINT('',(-6.,-39.64101615137,0.));
#359 = DIRECTION('',(-0.,1.,0.));
#360 = DIRECTION('',(0.,0.,1.));
#361 = ADVANCED_FACE('',(#362),#387,.T.);
#362 = FACE_BOUND('',#363,.T.);
#363 = EDGE_LOOP('',(#364,#365,#373,#381));
#364 = ORIENTED_EDGE('',*,*,#158,.F.);
#365 = ORIENTED_EDGE('',*,*,#366,.T.);
#366 = EDGE_CURVE('',#159,#367,#369,.T.);
#367 = VERTEX_POINT('',#368);
#368 = CARTESIAN_POINT('',(58.,-33.48631561299,0.7));
#369 = LINE('',#370,#371);
#370 = CARTESIAN_POINT('',(58.,-33.48631561299,-0.1));
#371 = VECTOR('',#372,1.);
#372 = DIRECTION('',(0.,0.,1.));
#373 = ORIENTED_EDGE('',*,*,#374,.T.);
#374 = EDGE_CURVE('',#367,#375,#377,.T.);
#375 = VERTEX_POINT('',#376);
#376 = CARTESIAN_POINT('',(0.,66.972631225997,0.7));
#377 = LINE('',#378,#379);
#378 = CARTESIAN_POINT('',(58.,-33.48631561299,0.7));
#379 = VECTOR('',#380,1.);
#380 = DIRECTION('',(-0.5,0.866025403784,0.));
#381 = ORIENTED_EDGE('',*,*,#382,.F.);
#382 = EDGE_CURVE('',#161,#375,#383,.T.);
#383 = LINE('',#384,#385);
#384 = CARTESIAN_POINT('',(0.,66.972631225997,-0.1));
#385 = VECTOR('',#386,1.);
#386 = DIRECTION('',(0.,0.,1.));
#387 = PLANE('',#388);
#388 = AXIS2_PLACEMENT_3D('',#389,#390,#391);
#389 = CARTESIAN_POINT('',(58.,-33.48631561299,-0.1));
#390 = DIRECTION('',(-0.866025403784,-0.5,0.));
#391 = DIRECTION('',(-0.5,0.866025403784,0.));
#392 = ADVANCED_FACE('',(#393),#411,.T.);
#393 = FACE_BOUND('',#394,.T.);
#394 = EDGE_LOOP('',(#395,#396,#404,#410));
#395 = ORIENTED_EDGE('',*,*,#176,.F.);
#396 = ORIENTED_EDGE('',*,*,#397,.T.);
#397 = EDGE_CURVE('',#169,#398,#400,.T.);
#398 = VERTEX_POINT('',#399);
#399 = CARTESIAN_POINT('',(-58.,-33.48631561299,0.7));
#400 = LINE('',#401,#402);
#401 = CARTESIAN_POINT('',(-58.,-33.48631561299,-0.1));
#402 = VECTOR('',#403,1.);
#403 = DIRECTION('',(0.,0.,1.));
#404 = ORIENTED_EDGE('',*,*,#405,.T.);
#405 = EDGE_CURVE('',#398,#367,#406,.T.);
#406 = LINE('',#407,#408);
#407 = CARTESIAN_POINT('',(-58.,-33.48631561299,0.7));
#408 = VECTOR('',#409,1.);
#409 = DIRECTION('',(1.,0.,0.));
#410 = ORIENTED_EDGE('',*,*,#366,.F.);
#411 = PLANE('',#412);
#412 = AXIS2_PLACEMENT_3D('',#413,#414,#415);
#413 = CARTESIAN_POINT('',(-58.,-33.48631561299,-0.1));
#414 = DIRECTION('',(0.,1.,0.));
#415 = DIRECTION('',(1.,0.,0.));
#416 = ADVANCED_FACE('',(#417),#428,.T.);
#417 = FACE_BOUND('',#418,.T.);
#418 = EDGE_LOOP('',(#419,#420,#421,#427));
#419 = ORIENTED_EDGE('',*,*,#168,.F.);
#420 = ORIENTED_EDGE('',*,*,#382,.T.);
#421 = ORIENTED_EDGE('',*,*,#422,.T.);
#422 = EDGE_CURVE('',#375,#398,#423,.T.);
#423 = LINE('',#424,#425);
#424 = CARTESIAN_POINT('',(0.,66.972631225997,0.7));
#425 = VECTOR('',#426,1.);
#426 = DIRECTION('',(-0.5,-0.866025403784,0.));
#427 = ORIENTED_EDGE('',*,*,#397,.F.);
#428 = PLANE('',#429);
#429 = AXIS2_PLACEMENT_3D('',#430,#431,#432);
#430 = CARTESIAN_POINT('',(0.,66.972631225997,-0.1));
#431 = DIRECTION('',(0.866025403784,-0.5,0.));
#432 = DIRECTION('',(-0.5,-0.866025403784,0.));
#433 = ADVANCED_FACE('',(#434),#445,.T.);
#434 = FACE_BOUND('',#435,.T.);
#435 = EDGE_LOOP('',(#436,#437,#438,#439));
#436 = ORIENTED_EDGE('',*,*,#300,.F.);
#437 = ORIENTED_EDGE('',*,*,#201,.T.);
#438 = ORIENTED_EDGE('',*,*,#267,.T.);
#439 = ORIENTED_EDGE('',*,*,#440,.T.);
#440 = EDGE_CURVE('',#251,#284,#441,.T.);
#441 = LINE('',#442,#443);
#442 = CARTESIAN_POINT('',(-6.,-14.64101615137,12.));
#443 = VECTOR('',#444,1.);
#444 = DIRECTION('',(1.,0.,-0.));
#445 = PLANE('',#446);
#446 = AXIS2_PLACEMENT_3D('',#447,#448,#449);
#447 = CARTESIAN_POINT('',(-6.,-14.64101615137,0.));
#448 = DIRECTION('',(-0.,1.,0.));
#449 = DIRECTION('',(0.,0.,1.));
#450 = ADVANCED_FACE('',(#451),#457,.T.);
#451 = FACE_BOUND('',#452,.T.);
#452 = EDGE_LOOP('',(#453,#454,#455,#456));
#453 = ORIENTED_EDGE('',*,*,#248,.F.);
#454 = ORIENTED_EDGE('',*,*,#316,.T.);
#455 = ORIENTED_EDGE('',*,*,#281,.T.);
#456 = ORIENTED_EDGE('',*,*,#440,.F.);
#457 = PLANE('',#458);
#458 = AXIS2_PLACEMENT_3D('',#459,#460,#461);
#459 = CARTESIAN_POINT('',(-6.,-39.64101615137,12.));
#460 = DIRECTION('',(0.,0.,1.));
#461 = DIRECTION('',(1.,0.,-0.));
#462 = ADVANCED_FACE('',(#463),#488,.F.);
#463 = FACE_BOUND('',#464,.F.);
#464 = EDGE_LOOP('',(#465,#473,#474,#482));
#465 = ORIENTED_EDGE('',*,*,#466,.F.);
#466 = EDGE_CURVE('',#326,#467,#469,.T.);
#467 = VERTEX_POINT('',#468);
#468 = CARTESIAN_POINT('',(-4.1,-27.64101615137,10.1));
#469 = LINE('',#470,#471);
#470 = CARTESIAN_POINT('',(-4.1,-40.64101615137,10.1));
#471 = VECTOR('',#472,1.);
#472 = DIRECTION('',(-0.,1.,0.));
#473 = ORIENTED_EDGE('',*,*,#325,.T.);
#474 = ORIENTED_EDGE('',*,*,#475,.T.);
#475 = EDGE_CURVE('',#328,#476,#478,.T.);
#476 = VERTEX_POINT('',#477);
#477 = CARTESIAN_POINT('',(4.1,-27.64101615137,10.1));
#478 = LINE('',#479,#480);
#479 = CARTESIAN_POINT('',(4.1,-40.64101615137,10.1));
#480 = VECTOR('',#481,1.);
#481 = DIRECTION('',(-0.,1.,0.));
#482 = ORIENTED_EDGE('',*,*,#483,.F.);
#483 = EDGE_CURVE('',#467,#476,#484,.T.);
#484 = LINE('',#485,#486);
#485 = CARTESIAN_POINT('',(-4.1,-27.64101615137,10.1));
#486 = VECTOR('',#487,1.);
#487 = DIRECTION('',(1.,0.,-0.));
#488 = PLANE('',#489);
#489 = AXIS2_PLACEMENT_3D('',#490,#491,#492);
#490 = CARTESIAN_POINT('',(-4.1,-40.64101615137,10.1));
#491 = DIRECTION('',(0.,0.,1.));
#492 = DIRECTION('',(1.,0.,-0.));
#493 = ADVANCED_FACE('',(#494),#512,.F.);
#494 = FACE_BOUND('',#495,.F.);
#495 = EDGE_LOOP('',(#496,#497,#498,#506));
#496 = ORIENTED_EDGE('',*,*,#475,.F.);
#497 = ORIENTED_EDGE('',*,*,#351,.T.);
#498 = ORIENTED_EDGE('',*,*,#499,.T.);
#499 = EDGE_CURVE('',#344,#500,#502,.T.);
#500 = VERTEX_POINT('',#501);
#501 = CARTESIAN_POINT('',(4.1,-27.64101615137,1.9));
#502 = LINE('',#503,#504);
#503 = CARTESIAN_POINT('',(4.1,-40.64101615137,1.9));
#504 = VECTOR('',#505,1.);
#505 = DIRECTION('',(-0.,1.,0.));
#506 = ORIENTED_EDGE('',*,*,#507,.T.);
#507 = EDGE_CURVE('',#500,#476,#508,.T.);
#508 = LINE('',#509,#510);
#509 = CARTESIAN_POINT('',(4.1,-27.64101615137,1.9));
#510 = VECTOR('',#511,1.);
#511 = DIRECTION('',(0.,0.,1.));
#512 = PLANE('',#513);
#513 = AXIS2_PLACEMENT_3D('',#514,#515,#516);
#514 = CARTESIAN_POINT('',(4.1,-40.64101615137,1.9));
#515 = DIRECTION('',(1.,0.,-0.));
#516 = DIRECTION('',(0.,0.,1.));
#517 = ADVANCED_FACE('',(#518),#536,.T.);
#518 = FACE_BOUND('',#519,.T.);
#519 = EDGE_LOOP('',(#520,#528,#529,#530));
#520 = ORIENTED_EDGE('',*,*,#521,.F.);
#521 = EDGE_CURVE('',#336,#522,#524,.T.);
#522 = VERTEX_POINT('',#523);
#523 = CARTESIAN_POINT('',(-4.1,-27.64101615137,1.9));
#524 = LINE('',#525,#526);
#525 = CARTESIAN_POINT('',(-4.1,-40.64101615137,1.9));
#526 = VECTOR('',#527,1.);
#527 = DIRECTION('',(-0.,1.,0.));
#528 = ORIENTED_EDGE('',*,*,#343,.T.);
#529 = ORIENTED_EDGE('',*,*,#499,.T.);
#530 = ORIENTED_EDGE('',*,*,#531,.F.);
#531 = EDGE_CURVE('',#522,#500,#532,.T.);
#532 = LINE('',#533,#534);
#533 = CARTESIAN_POINT('',(-4.1,-27.64101615137,1.9));
#534 = VECTOR('',#535,1.);
#535 = DIRECTION('',(1.,0.,-0.));
#536 = PLANE('',#537);
#537 = AXIS2_PLACEMENT_3D('',#538,#539,#540);
#538 = CARTESIAN_POINT('',(-4.1,-40.64101615137,1.9));
#539 = DIRECTION('',(0.,0.,1.));
#540 = DIRECTION('',(1.,0.,-0.));
#541 = ADVANCED_FACE('',(#542),#553,.T.);
#542 = FACE_BOUND('',#543,.T.);
#543 = EDGE_LOOP('',(#544,#545,#546,#547));
#544 = ORIENTED_EDGE('',*,*,#466,.F.);
#545 = ORIENTED_EDGE('',*,*,#335,.T.);
#546 = ORIENTED_EDGE('',*,*,#521,.T.);
#547 = ORIENTED_EDGE('',*,*,#548,.T.);
#548 = EDGE_CURVE('',#522,#467,#549,.T.);
#549 = LINE('',#550,#551);
#550 = CARTESIAN_POINT('',(-4.1,-27.64101615137,1.9));
#551 = VECTOR('',#552,1.);
#552 = DIRECTION('',(0.,0.,1.));
#553 = PLANE('',#554);
#554 = AXIS2_PLACEMENT_3D('',#555,#556,#557);
#555 = CARTESIAN_POINT('',(-4.1,-40.64101615137,1.9));
#556 = DIRECTION('',(1.,0.,-0.));
#557 = DIRECTION('',(0.,0.,1.));
#558 = ADVANCED_FACE('',(#559),#564,.F.);
#559 = FACE_BOUND('',#560,.F.);
#560 = EDGE_LOOP('',(#561,#562,#563));
#561 = ORIENTED_EDGE('',*,*,#422,.T.);
#562 = ORIENTED_EDGE('',*,*,#405,.T.);
#563 = ORIENTED_EDGE('',*,*,#374,.T.);
#564 = PLANE('',#565);
#565 = AXIS2_PLACEMENT_3D('',#566,#567,#568);
#566 = CARTESIAN_POINT('',(1.306745261168E-15,1.306745261168E-15,0.7));
#567 = DIRECTION('',(0.,0.,1.));
#568 = DIRECTION('',(1.,0.,-0.));
#569 = ADVANCED_FACE('',(#570),#576,.F.);
#570 = FACE_BOUND('',#571,.F.);
#571 = EDGE_LOOP('',(#572,#573,#574,#575));
#572 = ORIENTED_EDGE('',*,*,#531,.F.);
#573 = ORIENTED_EDGE('',*,*,#548,.T.);
#574 = ORIENTED_EDGE('',*,*,#483,.T.);
#575 = ORIENTED_EDGE('',*,*,#507,.F.);
#576 = PLANE('',#577);
#577 = AXIS2_PLACEMENT_3D('',#578,#579,#580);
#578 = CARTESIAN_POINT('',(-4.1,-27.64101615137,1.9));
#579 = DIRECTION('',(-0.,1.,0.));
#580 = DIRECTION('',(0.,0.,1.));
#581 = ( GEOMETRIC_REPRESENTATION_CONTEXT(3) 
GLOBAL_UNCERTAINTY_ASSIGNED_CONTEXT((#585)) GLOBAL_UNIT_ASSIGNED_CONTEXT
((#582,#583,#584)) REPRESENTATION_CONTEXT('Context #1',
  '3D Context with UNIT and UNCERTAINTY') );
#582 = ( LENGTH_UNIT() NAMED_UNIT(*) SI_UNIT(.MILLI.,.METRE.) );
#583 = ( NAMED_UNIT(*) PLANE_ANGLE_UNIT() SI_UNIT($,.RADIAN.) );
#584 = ( NAMED_UNIT(*) SI_UNIT($,.STERADIAN.) SOLID_ANGLE_UNIT() );
#585 = UNCERTAINTY_MEASURE_WITH_UNIT(LENGTH_MEASURE(1.E-07),#582,
  'distance_accuracy_value','confusion accuracy');
#586 = PRODUCT_RELATED_PRODUCT_CATEGORY('part',$,(#7));
ENDSEC;
END-ISO-10303-21;
